SplineFontDB: 3.0
FontName: Pacifico
FullName: Pacifico
FamilyName: Pacifico
Weight: Book
Copyright: Copyright (c) 2011 by vernon adams. All rights reserved.
Version: 1.002
ItalicAngle: 0
UnderlinePosition: -103
UnderlineWidth: 102
Ascent: 1638
Descent: 410
sfntRevision: 0x00010000
LayerCount: 2
Layer: 0 0 "Back"  1
Layer: 1 0 "Fore"  0
XUID: [1021 846 39740748 13323642]
FSType: 0
OS2Version: 3
OS2_WeightWidthSlopeOnly: 0
OS2_UseTypoMetrics: 1
CreationTime: 1297379580
ModificationTime: 1333137055
PfmFamily: 17
TTFWeight: 400
TTFWidth: 5
LineGap: 0
VLineGap: 0
Panose: 2 0 0 0 0 0 0 0 0 0
OS2TypoAscent: 1243
OS2TypoAOffset: 1
OS2TypoDescent: -518
OS2TypoDOffset: 1
OS2TypoLinegap: 0
OS2WinAscent: 0
OS2WinAOffset: 1
OS2WinDescent: 0
OS2WinDOffset: 1
HheadAscent: 0
HheadAOffset: 1
HheadDescent: 0
HheadDOffset: 1
OS2SubXSize: 1434
OS2SubYSize: 1331
OS2SubXOff: 0
OS2SubYOff: 287
OS2SupXSize: 1434
OS2SupYSize: 1331
OS2SupXOff: 0
OS2SupYOff: 977
OS2StrikeYSize: 102
OS2StrikeYPos: 512
OS2Vendor: 'newt'
OS2CodePages: 20000111.40000000
OS2UnicodeRanges: 8000002f.4000004b.00000000.00000000
Lookup: 4 0 0 "midword DLIGs"  {"midword DLIGs-1"  "o_o_s"  "r_s"  } ['dlig' ('DFLT' <'dflt' > 'latn' <'dflt' > ) ]
Lookup: 4 0 0 "os.final"  {"os.final-1"  } []
Lookup: 1 0 0 "Alt swash fin"  {"Alt swash fin-1"  } []
Lookup: 1 0 0 "'swsh' fina"  {"finals" ("fina" ) } []
Lookup: 1 0 0 "'swash' ini"  {"'swash' ini-1" ("init" ) } []
Lookup: 4 0 0 "word sub 'for'"  {"word sub 'for'-1"  } ['dlig' ('DFLT' <'dflt' > 'latn' <'dflt' > ) ]
Lookup: 4 0 0 "sub for No."  {"sub for No.-1"  } ['dlig' ('DFLT' <'dflt' > 'latn' <'dflt' > ) ]

StartChar: c
Encoding: 69 99 4
Width: 756
Flags: W
HStem: 0 192<389.793 632.276> 783.901 176.099<437.141 597.852>
LayerCount: 2
Fore
SplineSet
524.312 960 m 0
 683.25 960 813.531 877.509 806.296 739.451 c 0
 803.259 681.496 758.38 649.164 711.657 649.164 c 0
 611.332 649.164 631.346 783.901 504.784 783.901 c 0
 443.465 783.901 355.735 681.877 341.697 414 c 0
 335.513 296 370.062 192 490.062 192 c 0
 669.062 192 788.976 343 878.426 447 c 0
 897.579 469 912.998 477 925.998 477 c 0
 951.998 477 973.906 418 971.862 379 c 0
 970.5 353 963.138 327 950.246 310 c 0
 867.481 200 685 0 437 0 c 0
 199 0 73.2764 177 85.6445 413 c 0
 99.7422 682 259.312 960 524.312 960 c 0
EndSplineSet
Substitution2: "finals" c.fina
EndChar

StartChar: f
Encoding: 72 102 5
Width: 687
Flags: HW
HStem: -604 225<166 373.765> 427 160<515.355 772.638> 1631 225<660.378 788.666>
VStem: 34 225<-378.47 503.385> 422 211<-303.715 235.257> 795 187<1371.04 1630.56>
LayerCount: 2
Fore
SplineSet
875.132 1529 m 0
 877.962 1583 871.478 1631 830.478 1631 c 0
 601.478 1631 396.616 775 365.952 686 c 1
 532.066 879 861.349 1266 875.132 1529 c 0
282.138 -379 m 0
 401.138 -379 412.934 -173 418.751 -62 c 2
 419.013 -57 l 2
 431.8 187 378.125 384 313.356 522 c 1
 294.295 330 266.547 144 256.537 -47 c 0
 249.2 -187 243.138 -379 282.138 -379 c 0
1024.17 652 m 0
 1013.74 453 738.745 434 536.378 427 c 1
 585.984 305 641.07 154 631.48 -29 c 0
 619.007 -267 498.346 -604 238.346 -604 c 0
 30.3457 -604 19.5352 -276 32.0088 -38 c 0
 61.3047 521 323.269 1856 879.269 1856 c 0
 1004.27 1856 1074.34 1762 1067.11 1624 c 0
 1047.14 1243 685.655 833 476.602 603 c 1
 505.078 593 550.764 587 589.764 587 c 0
 756.764 587 831.437 638 973.472 715 c 0
 980.682 719 985.786 721 991.786 721 c 0
 1014.79 721 1026.21 691 1024.17 652 c 0
EndSplineSet
Substitution2: "finals" f.fina
Substitution2: "'swash' ini-1" f.init
EndChar

StartChar: i
Encoding: 75 105 6
Width: 532
Flags: W
HStem: 0 218.388<207.933 467.073> 940 20G<409.624 462.365> 1089 319<417.85 623.539>
VStem: 97.0635 305.145<144.236 455.285> 289.228 210.077<751.03 925.821> 343.984 351.202<1161.05 1336.09>
LayerCount: 2
Fore
SplineSet
505.072 1089 m 0xe4
 392.551 1089 343.984 1151.22 343.984 1220.7 c 0
 343.984 1308.54 421.618 1408 545.79 1408 c 0
 650.435 1408 695.186 1347.02 695.186 1278.38 c 0
 695.186 1190.03 621.051 1089 505.072 1089 c 0xe4
514.641 232 m 1
 533.319 243.014 550.47 247.97 564.802 247.97 c 0
 590.608 247.97 607.277 231.904 607.277 206.209 c 0
 607.277 171.022 576.02 117.778 494.163 63 c 0
 443.927 36.3803 361.055 0 274 0 c 0
 141.866 0 97.0635 85.288 97.0635 203.185 c 0xf0
 97.0635 424.225 254.548 759.888 289.228 863 c 1
 305.839 928 377.935 960 441.312 960 c 0
 483.417 960 499.305 928.129 499.305 877.372 c 0xe8
 499.305 719.592 402.208 449.426 402.208 309.053 c 0xf0
 402.208 253.589 417.367 218.388 459.662 218.388 c 0
 474.484 218.388 492.638 222.711 514.641 232 c 1
EndSplineSet
EndChar

StartChar: n
Encoding: 80 110 7
Width: 947
Flags: W
HStem: -12 199<722.669 927.749> 627.487 332.513<660.422 934.779>
VStem: 161.36 195.078<22.2409 130.765> 261.636 284.705<707.71 902.553>
LayerCount: 2
Fore
SplineSet
991.987 818.622 m 0xd0
 967.483 619.052 858.776 412.188 842.507 279.688 c 0
 834.95 218.143 847.98 187 878.761 187 c 0
 921.289 187 944.371 215.113 984.908 215.113 c 0
 1011.41 215.113 1033.88 202.362 1029.91 170.037 c 0
 1017.59 69.6826 884.708 -12 789.897 -12 c 0
 655.44 -12 615.748 88.0723 633.239 230.525 c 0
 639.593 282.271 696.269 452.53 708.54 552.475 c 0
 714 596.939 710.67 627.487 690.209 627.487 c 0
 630.636 627.487 514.209 533.79 449.988 461 c 1
 356.438 71 l 1
 326.73 27 297 0 241 0 c 0
 181.444 0 153.583 49.8418 161.36 113.183 c 0xe0
 184.881 304.746 237.172 512.849 254.528 654.202 c 0
 257.326 676.989 259.278 698.081 261.636 717.28 c 0
 280.781 873.207 303.14 965.082 417.64 965.082 c 0
 527.967 965.082 554.922 916.554 546.341 846.67 c 0
 543.015 819.576 525.974 758.089 506.524 705.226 c 1
 611.726 825.12 750.718 960 908.186 960 c 0
 980.06 960 1001.43 895.524 991.987 818.622 c 0xd0
EndSplineSet
Substitution2: "finals" n.fina
EndChar

StartChar: P
Encoding: 50 80 8
Width: 1551
Flags: HW
HStem: -255 234<484.232 660.767> 1648 235<778.742 1319.71>
VStem: 120 268<232.077 1107.25> 1567 235<1176.03 1461.51>
LayerCount: 2
Fore
SplineSet
1635.29 1303 m 0
 1648.91 1563 1390.33 1648 1071.37 1648 c 0
 632.368 1648 449.475 1173 427.463 753 c 0
 413.459 485.793 372.485 -21 556.899 -21 c 0
 775.899 -21 764.924 342 814.859 627 c 2
 833.467 734 l 1
 723.826 779 598.293 807 605.683 948 c 0
 607.937 991 610.766 1045 653.766 1045 c 0
 715.766 1045 777.517 983 835.836 970 c 1
 846.212 1168 888.209 1416 1086.21 1416 c 0
 1145.21 1416 1193 1393 1189.86 1333 c 0
 1189.39 1324 1188.39 1324 1188.02 1317 c 1
 1113.55 1060 l 1
 1100.41 981 l 1
 1358.85 1010 1624.65 1100 1635.29 1303 c 0
158.101 727 m 0
 189.126 1319 510.684 1883 1106.68 1883 c 0
 1548.82 1883 1890.88 1696 1870.97 1316 c 0
 1852.99 973 1468.73 794 1082.1 746 c 1
 1084.1 746 1049.92 475.496 1032.55 373 c 0
 972.258 24 839.636 -255 522.636 -255 c 0
 175.636 -255 138.039 344.204 158.101 727 c 0
EndSplineSet
EndChar

StartChar: d
Encoding: 70 100 9
Width: 1147
Flags: W
HStem: 1.04452 212.452<907.9 1097.37> 20.9036 185.107<387.577 593.81> 743.497 168.817<444.641 630.563> 1688 232<1100.72 1295.78>
VStem: 96.6032 227.45<269.224 572.038> 680.813 271.785<329.128 612.533> 1209.44 181.903<1376.56 1687.02>
LayerCount: 2
Fore
SplineSet
929.039 903 m 1x3e
 1049.99 1097.95 1209.44 1346.46 1209.44 1623.27 c 0
 1209.44 1658.85 1203.73 1688 1176.46 1688 c 0
 986.465 1688 938.211 1093.02 929.039 954 c 1
 929.039 903 l 1x3e
1391.35 1668.13 m 0
 1391.35 1105.97 952.599 845.969 952.599 359.117 c 0
 952.599 250.218 988.026 213.496 1036.37 213.496 c 0
 1100.53 213.496 1187.43 278.186 1244.45 324.669 c 0
 1246.99 326.53 1249.77 327.389 1252.69 327.389 c 0
 1272.73 327.389 1299.22 286.756 1299.22 251.905 c 0
 1299.22 240.367 1296.32 229.463 1289.32 220.877 c 0
 1188.85 86.915 1061.47 1.04452 951.181 1.04452 c 0xbe
 864.618 1.04452 788.579 53.9412 744.328 178 c 1
 655.998 75.9325 526.258 20.9036 406.048 20.9036 c 0x7e
 242.507 20.9036 96.6032 122.754 96.6032 346.576 c 0
 96.6032 604.588 286.984 912.314 495.417 912.314 c 0
 585.153 912.314 665.653 861.01 692.429 785 c 1
 719.722 1192.34 859.411 1920 1233.62 1920 c 0
 1357.94 1920 1391.35 1795.83 1391.35 1668.13 c 0
681.242 329 m 1
 680.945 331.665 680.813 338.557 680.813 348.671 c 0
 680.813 417.653 688.62 656 688.62 656 c 1
 642.425 717.257 597.248 743.497 556.625 743.497 c 0
 420.363 743.497 324.054 572.031 324.054 420.143 c 0
 324.054 277.572 404.242 206.01 493.583 206.01 c 0x7e
 561.14 206.01 633.93 246.928 681.242 329 c 1
EndSplineSet
Substitution2: "finals" d.fina
EndChar

StartChar: a
Encoding: 67 97 10
Width: 928
Flags: W
HStem: 0 224<760 960.896> 0 192<237.5 484.024> 768 190<541.485 668.76>
LayerCount: 2
Fore
SplineSet
336.98 324 m 0x60
 333.626 260 344.062 192 408.062 192 c 0
 516.062 192 570.915 380 594.842 474 c 2
 671.249 768 l 1
 484.249 768 346.623 508 336.98 324 c 0x60
816.98 324 m 0
 814.412 275 813.739 224 856.739 224 c 0
 949.739 224 1032.56 335 1082.91 399 c 0
 1098.8 416 1113.22 424 1125.22 424 c 0
 1166.22 424 1185.92 342 1183.04 287 c 0
 1182.25 272 1179.52 258 1175.1 250 c 1
 1101.86 150 970 0 813 0 c 0xa0
 707 0 664.878 74 635.438 161 c 1
 567.507 86 450 0 315 0 c 0
 160 0 70.4463 123 78.7266 281 c 0
 94.5537 583 300.708 834 516.635 928 c 0
 561.683 948 607.207 958 653.207 958 c 0
 726.207 958 709.224 882 793.224 882 c 0
 808.224 882 823.276 883 838.276 883 c 0
 895.276 883 908.494 849 905.402 790 c 0
 896.859 627 825.68 490 816.98 324 c 0
EndSplineSet
Substitution2: "finals" a.fina
EndChar

StartChar: e
Encoding: 71 101 11
Width: 740
Flags: W
HStem: 21.1289 168.166<360.009 555.962> 771 188<421.261 571.202>
LayerCount: 2
Fore
SplineSet
578.532 678 m 0
 581.311 731 558.406 771 510.406 771 c 0
 381.406 771 324.029 573 316.902 437 c 1
 398.632 470 572.243 558 578.532 678 c 0
724.485 181 m 5
 619.563 82.8398 490.91 21.1289 379.542 21.1289 c 0
 199.461 21.1289 56.9512 132.634 71.8545 417 c 1
 86.0039 687 240.259 959 508.259 959 c 0
 662.259 959 766.228 863 758.157 709 c 0
 746.47 486 514.818 340 332.198 290 c 1
 350.926 215.884 396.99 189.295 453.377 189.295 c 0
 542.808 189.295 665.26 297.479 710.924 342 c 5
 732.486 361.34 752.616 369.807 768.967 369.807 c 4
 794.386 369.807 810.669 349.343 808.998 317.461 c 4
 807.138 281.966 783.023 232.318 724.485 181 c 5
EndSplineSet
Substitution2: "finals" e.fina
EndChar

StartChar: m
Encoding: 79 109 12
Width: 1312
Flags: HW
HStem: 11 183<1081.35 1308.36> 940 20G<309.666 365.286 711.976 753.018 1099 1141.24>
VStem: 217.703 212.333<709.549 933.289> 559.375 205.562<27.9865 208.101> 963.066 208.222<195.108 741.051>
LayerCount: 2
Fore
SplineSet
866.596 872 m 0
 863.719 817.108 793.938 523.869 793.533 522.16 c 1
 811.487 501.096 l 1
 890.17 665.355 985.771 825.108 1095.03 933.651 c 0
 1112.9 951.406 1136.23 960 1162.4 960 c 0
 1220.71 960 1265.36 928.705 1262.39 872 c 0
 1257.83 784.953 1193.76 428.814 1187.9 317 c 0
 1185.15 264.515 1181.95 194 1234.78 194 c 0
 1293.68 194 1388.62 284.295 1445.79 348.096 c 0
 1474.29 378.954 1492.94 390 1503.44 390 c 0
 1528.04 390 1532.5 333.993 1529.57 278 c 0
 1528.26 253.062 1526.22 229.915 1525.48 218.703 c 1
 1419.74 128.323 1312.36 11 1135.37 11 c 0
 985.76 11 968.934 111.97 975.801 243 c 0
 983.969 398.84 1010.13 547.296 1059.37 690 c 1
 948.243 500.954 847.657 291.526 769.09 79.2402 c 0
 750.619 29.335 712.467 12 650.79 12 c 0
 572.617 12 564.908 105.57 569.489 193 c 0
 578.364 362.345 629.17 514.954 669.266 677 c 1
 531.35 484.138 439.063 299.944 338.757 78.6836 c 0
 318.556 34.124 289.15 12 235.629 12 c 0
 132.544 12 119.521 105.357 125.268 215 c 0
 137.28 444.207 194.695 682.786 263.096 866.135 c 0
 283.262 918.416 329.854 964 390.521 964 c 0
 441.092 964 478.703 928.62 475.841 874 c 0
 475.533 868.146 475.163 861.547 474.074 856.324 c 0
 440.761 735.776 399.54 603.268 377.853 522.235 c 1
 395.824 501.251 l 1
 473.18 654.936 577.165 834.476 702.897 934.362 c 0
 724.514 951.533 748.102 960 776.474 960 c 0
 830.187 960 869.439 926.266 866.596 872 c 0
EndSplineSet
Substitution2: "finals" m.fina
EndChar

StartChar: h
Encoding: 74 104 13
Width: 999
Flags: W
HStem: 0 236<726 964.7> 958 20G<896.255 941.755> 1729 191<632.353 827.123>
LayerCount: 2
Fore
SplineSet
351.21 710 m 1
 482.583 982.662 689.884 1295.3 708.63 1653 c 0
 711.303 1704 705.613 1729 692.613 1729 c 0
 613.997 1729 548.969 1507.23 508.214 1397 c 0
 433.262 1194.27 382.893 952 351.21 710 c 1
873.368 236 m 0
 1006.75 236 1088.02 407.105 1196.7 407.105 c 0
 1235.16 407.105 1244.61 368.131 1242.35 324.962 c 0
 1239.72 274.692 1221.9 217.883 1214.11 212 c 0
 1109.73 133.15 960 0 791 0 c 0
 661 0 582.241 100 588.844 226 c 0
 597.125 384 663.985 534 720.96 648 c 0
 728.746 663 733.218 672 735.323 674 c 1
 714.48 677 l 1
 507.634 548.361 404.732 250.123 264.306 44 c 0
 246.996 19 230 0 192 0 c 0
 97 0 101.604 126 106.687 223 c 0
 135.459 772 202.117 1357 431.407 1706 c 0
 503.173 1816 605.623 1920 765.623 1920 c 0
 888.623 1920 922.221 1836 915.041 1699 c 0
 892.399 1266.98 639.687 918.96 464.331 636 c 1
 483.598 622 l 1
 574.467 734 684.333 865 807.368 942 c 0
 844.626 966 880.255 978 912.255 978 c 0
 971.255 978 996.792 931 993.49 868 c 0
 983.271 673 853.361 503 842.774 301 c 0
 841.098 269 844.368 236 873.368 236 c 0
EndSplineSet
Substitution2: "finals" h.fina
EndChar

StartChar: u
Encoding: 87 117 14
Width: 927
Flags: W
HStem: 0 225<214.5 442.962> 0.25 177.195<747.242 911.619> 939 20G<286.759 401.759 786.759 837.759>
VStem: 687.271 231.634<844.027 942.516>
LayerCount: 2
Fore
SplineSet
918.905 895 m 0xb0
 911.777 759 799.02 382 793.569 278 c 0
 789.706 204.29 806.354 177.445 832.898 177.445 c 0
 897.222 177.445 1019.65 335.082 1049.15 365.484 c 0
 1072.81 389.983 1096.3 400.889 1117.33 400.889 c 0
 1165.02 400.889 1200.07 344.818 1195.84 264 c 1
 1127.42 136.609 947.837 0.25 788.018 0.25 c 0x70
 706.467 0.25 590.853 57.0879 589.9 208 c 1
 589.9 208 488.79 0 298 0 c 0
 131 0 83.8135 130 93.7705 320 c 0
 103.151 499 191.259 959 382.259 959 c 0
 421.259 959 471.211 939 467.699 872 c 0
 467.438 867 468.176 862 465.913 857 c 0
 384.432 657 340.047 497 331.189 328 c 0
 328.622 279 345.792 225 403.792 225 c 0
 490.792 225 542.718 319 561.648 394 c 2
 687.271 902 l 2
 697.211 939 762.259 959 811.259 959 c 0
 864.259 959 921.315 941 918.905 895 c 0xb0
EndSplineSet
EndChar

StartChar: l
Encoding: 78 108 15
Width: 730
Flags: W
HStem: 0 209.322<265.125 501.655> 1641 279<698.71 880.629>
VStem: 113.571 268.089<213.755 608.528 630 784.331> 767.803 211.153<1552.4 1816.64>
LayerCount: 2
Fore
SplineSet
368.782 630 m 1
 385.229 659.195 767.803 1393.22 767.803 1595.59 c 0
 767.803 1624.36 758.206 1641 736.001 1641 c 0
 605.445 1641 381.443 893.69 368.782 630 c 1
676.221 364 m 0
 679.501 367.319 683.802 368.92 688.556 368.92 c 0
 706.536 368.92 730.973 346.016 730.973 306.556 c 0
 730.973 287.617 725.344 264.864 710.67 239 c 1
 621.512 112.706 484.182 0 349 0 c 0
 181.251 0 113.571 168.391 113.571 405.437 c 0
 113.571 968.819 495.867 1920 825.623 1920 c 0
 935.635 1920 978.956 1863.13 978.956 1770.16 c 0
 978.956 1425.45 423.448 574.461 383.448 305.516 c 0
 382.231 297.333 381.66 289.743 381.66 282.719 c 0
 381.66 230.177 413.617 209.322 446.28 209.322 c 0
 515.405 209.322 623.655 300.066 676.221 364 c 0
EndSplineSet
Substitution2: "finals" l.fina
EndChar

StartChar: o
Encoding: 81 111 16
Width: 927
Flags: W
HStem: 0 192<337.025 538.046> 407 172.388<828.388 913.807> 768 197.395<421.907 636.231>
LayerCount: 2
Back
SplineSet
545 960 m 4
 728 960 826 808 826 618 c 4
 826 607 831 602 841 602 c 4
 940 602 1003 699 1057 724 c 4
 1066 732 1077 736 1089 736 c 4
 1095 736 l 4
 1135 736 1176 735 1176 694 c 4
 1176 685 1174 673 1169 659 c 4
 1117 554 980 407 788 407 c 4
 777 407 770 409 765 412 c 5
 726 237 646 0 397 0 c 4
 166 0 67 206 67 437 c 4
 67 739 243 960 545 960 c 4
261 446 m 4
 261 313 304 192 436 192 c 4
 545 192 611 352 611 461 c 5
 545 498 449 549 449 641 c 4
 449 686 478 722 500 746 c 4
 506 753 509 758 509 762 c 260
 509 766 504 768 494 768 c 4
 354 768 261 588 261 446 c 4
EndSplineSet
Fore
SplineSet
482.594 641 m 0
 485.469 695.874 547.122 727.416 548.935 762 c 0
 549.145 766 544.249 768 534.249 768 c 0
 394.249 768 291.815 588 284.374 446 c 0
 277.403 313 314.062 192 446.062 192 c 0
 555.062 192 629.447 352 635.16 461 c 1
 571.099 498 477.771 549 482.594 641 c 0
851.978 579.388 m 0
 884.799 579.388 919.892 620.391 956.027 667.406 c 0
 970.137 691.212 1013.4 643.661 1011.85 614 c 0
 1006.25 518.379 895.451 407 809.33 407 c 1
 800.997 248 668.396 0 397 0 c 0
 166 0 77.7959 206 89.9023 437 c 0
 104.175 709.339 287.191 965.395 551.417 965.395 c 0
 721.045 965.395 839.352 827.204 828.388 618 c 0
 827.024 591.989 836.718 579.388 851.978 579.388 c 0
EndSplineSet
Substitution2: "finals" o.fina
EndChar

StartChar: k
Encoding: 77 107 17
Width: 997
Flags: W
HStem: -17.3908 21G<218.617 239.914> -1 185<606.291 852.767> 1685 222<667.694 861.152>
VStem: 757.561 203.586<1564.44 1773.21>
LayerCount: 2
Back
SplineSet
460.735 1429.89 m 5x9880
 552.52 1505.17 634.101 1651.36 634.101 1706.88 c 4
 634.101 1720.78 628.98 1729 617.641 1729 c 4
 546.231 1729 495.629 1546.05 460.735 1429.89 c 5x9880
-155.292 1485.22 m 4
 -14.2217 1485.22 73.166 1466.48 234.674 1419.79 c 5
 266.97 1526.16 307.331 1622.79 357.641 1706 c 4
 415.641 1802.67 502.021 1927.52 626.811 1927.52 c 4
 772.723 1927.52 845.57 1809.4 845.57 1696.49 c 4
 845.57 1508.04 676.621 1267.5 400.066 1218.65 c 5
 360.294 1059.09 339.249 884.603 329.641 710 c 6
 313.641 419.248 l 5
 442.543 615.056 535.699 941.494 816.395 941.494 c 4
 956.307 941.494 1054.64 851.328 1054.64 716 c 4
 1054.64 530 919.318 404.238 765.641 320 c 4
 717.716 293.73 693.604 260.633 693.604 233.394 c 4
 693.604 204.117 721.455 181.606 777.529 181.606 c 4
 892.053 181.606 1096.37 409.855 1146.73 461.917 c 5
 1182.92 440.769 1244 387.699 1244 338.292 c 4
 1244 296.52 1237.72 261.689 1226.64 261 c 5
 1128.88 151.248 909.479 -4.43652 728.481 -4.43652 c 4
 597.554 -4.43652 480.886 83.0479 480.886 196.051 c 4
 480.886 208.979 482.414 222.021 485.641 235 c 4
 545.641 476.353 781.607 469.811 830.641 631 c 4
 832.881 638.363 833.912 645 833.912 650.973 c 4
 833.912 690.894 787.834 701.207 748.442 701.207 c 4
 724.234 701.207 702.552 697.312 695.641 694 c 4
 549.569 624 343.668 -9.32324 180.58 -9.32324 c 4
 119.845 -9.32324 110.641 140.04 110.641 230 c 4
 110.641 569.13 124.378 914.997 184.615 1217.49 c 5
 53.8828 1234.39 -119.25 1288.29 -237.875 1288.29 c 4
 -306.731 1288.29 -358.394 1238.64 -358.394 1177.34 c 4
 -358.394 1082.3 -299.728 1024.64 -229.733 958.132 c 5
 -112.712 946.07 9.08594 876.688 9.08594 782.075 c 4
 9.08594 703.305 -66.6016 650.086 -108.079 650.086 c 4
 -194.634 650.086 -277.359 768 -277.359 768 c 5
 -395.173 768 -419.359 566 -419.359 414 c 4
 -419.359 248.678 -340.299 190.206 -251.242 190.206 c 4
 -180.329 190.206 -103.079 227.279 -54.3594 277 c 4
 -39.6182 292.045 -24.4941 298.136 -10.5723 298.136 c 4
 21.4648 298.136 47.1357 265.878 47.1357 236.231 c 4
 47.1357 231.01 46.3389 225.869 44.6406 221 c 4
 5.06348 107.539 -84.6133 0 -302.359 0 c 4
 -540.359 0 -675.359 177 -675.359 413 c 4xdc
 -675.359 631.099 -580.043 855.113 -402.733 932.082 c 5
 -477.565 1015.36 -551.373 1099.4 -551.373 1172.88 c 4xda
 -551.373 1369.82 -314.107 1485.22 -155.292 1485.22 c 4
EndSplineSet
Fore
SplineSet
453.777 380.332 m 1x70
 330.011 303.567 254.499 -17.3908 225.329 -17.3908 c 0xb0
 211.905 -17.3908 199.215 -11 188.424 -11 c 0
 111.44 -11 93.9338 95.9931 93.9338 188.308 c 0
 93.9338 744.714 241.181 1907 799.941 1907 c 4
 922.363 1907 961.146 1830.75 961.146 1715.68 c 4
 961.146 1484.36 676.035 1337.02 504 1204 c 5
 314.911 459 l 1
 477.715 603.679 659.325 858.855 814.654 858.855 c 0
 878.026 858.855 943.665 799.304 941.048 746 c 0
 937.147 666.549 950.168 591.686 880.771 570 c 2
 625.737 490.306 l 1
 625.737 326.203 649.174 184 689.643 184 c 0
 894.806 184 1104 431 1201.59 431 c 0
 1215.09 431 1230.38 360.256 1230.38 301.629 c 0
 1230.38 126.564 858.976 -1 651.947 -1 c 0
 560.635 -1 466.611 146.361 453.777 380.332 c 1x70
528 1333 m 5
 610.636 1428.48 757.561 1483.96 757.561 1653.28 c 4
 757.561 1676.76 743.31 1685 721.307 1685 c 4
 638.354 1685 548.547 1431.12 528 1333 c 5
EndSplineSet
EndChar

StartChar: b
Encoding: 68 98 18
Width: 964
Flags: HW
HStem: 2 190<315.391 595.996> 732 228<456.5 765.321> 1728 192<552.672 659.771>
VStem: 666 192<1401.53 1725.66> 698 226<380.585 709.553>
LayerCount: 2
Fore
SplineSet
392.905 895 m 1xf0
 522.802 1122 735.702 1330 752.368 1648 c 0
 754.202 1683 741.561 1728 705.561 1728 c 0
 547.561 1728 422.403 1019 392.905 895 c 1xf0
729.812 607 m 0xe8
 734.267 692 693.362 732 606.362 732 c 0
 383.362 732 354.588 431 325.792 225 c 1
 379.9 208 443.062 192 512.062 192 c 0
 663.062 192 721.584 450 729.812 607 c 0xe8
941.381 1591 m 0xf0
 924.242 1263.98 670.276 1004.73 504.765 816 c 1
 520.188 805 l 1
 572.438 867 639.312 960 723.312 960 c 0
 904.312 960 965.874 799 956.388 618 c 0xe8
 949.261 482 907.024 363 841.094 288 c 1
 958.102 352 1066.37 407 1162.99 496 c 1
 1172.35 500.475 1181.33 502.509 1189.79 502.509 c 0
 1230.7 502.509 1259.13 454.857 1256.55 405.661 c 0
 1255.14 378.71 1244.42 351.296 1221.35 331 c 1
 1079.8 222.002 937.441 142 735.031 96 c 1
 669.939 37 590.104 2 482.104 2 c 0
 317.104 2 179.616 69 83.1797 137 c 0
 71.5996 145 66.8613 150 65.9658 152 c 1
 109.437 638 223.854 1123 379.24 1512 c 0
 439.389 1661.34 543.644 1920 724.623 1920 c 0
 918.623 1920 951.495 1784 941.381 1591 c 0xf0
EndSplineSet
Substitution2: "finals" b.fina
EndChar

StartChar: N
Encoding: 48 78 19
Width: 1693
Flags: HW
HStem: -41 232<1369.27 1614.09> 1471 225<276.473 387.215> 1474.38 253.619<1041.77 1310.56>
VStem: 189.493 283.507<24.5031 213.977> 390 224<986.465 1467.17> 1040.88 271.119<246.808 760.7> 1212 261<1093.15 1458.02>
LayerCount: 2
Fore
SplineSet
1281.54 1327 m 0xa2
 1285.06 1394.07 1276.4 1474.38 1198.83 1474.38 c 0
 928.628 1474.38 589.412 359.676 477.455 85 c 0
 452.205 23 402.267 -14 326.267 -14 c 0
 249.202 -14 192.275 53.0957 196.19 127.798 c 0xb2
 196.645 136.461 197.917 145.226 200.07 154 c 0
 305.698 584.327 406.853 929.928 462.899 1391 c 1
 464.104 1414 l 2
 465.572 1442 460.092 1471 431.092 1471 c 0
 368.092 1471 309.166 1377 282.174 1339 c 0
 248.711 1292 207.68 1196 141.68 1196 c 0
 106.68 1196 63.0381 1241 64.8203 1275 c 0
 74.3057 1456 271.884 1696 448.884 1696 c 0xc8
 631.884 1696 697.066 1585 687.476 1402 c 0
 675.526 1174 569.455 734.357 575.311 731 c 1
 705.864 1102.85 873.796 1728 1313.56 1728 c 0
 1488.68 1728 1555.7 1578 1547.79 1427 c 0xaa
 1530.02 1088 1354.71 815 1336.47 467 c 0
 1329.77 339 1342.01 191 1470.01 191 c 0
 1660.01 191 1833.33 388 1927.89 494 c 0
 1942.73 510 1950.2 519 1950.25 520 c 2
 1998.88 303 l 1
 1872.55 144 1659.85 -41 1392.85 -41 c 0
 1151.6 -41 1049.7 168.224 1062.53 413.113 c 0xa4
 1078.93 726.11 1199.37 956.404 1263.31 1208 c 0
 1273.46 1249 1279.55 1289 1281.54 1327 c 0xa2
EndSplineSet
EndChar

StartChar: M
Encoding: 47 77 20
Width: 2201
Flags: W
HStem: 0 224<1852.96 2132.42> 1472 258<1013.76 1238.35 1726.87 1991.67> 1518 184<286.263 476.198>
LayerCount: 2
Fore
SplineSet
1671.51 296 m 0xc0
 1690.69 662 1858.68 967 1877.39 1324 c 0
 1881.37 1400 1870.14 1472 1798.14 1472 c 0xc0
 1567.14 1472 1250.34 369 1193.35 102 c 0
 1177.42 27 1118.69 -6 1061.69 -6 c 0
 997.686 -6 920.097 40 924.342 121 c 0
 924.761 129 926.127 136 927.547 144 c 0
 989.645 413 1138.19 1015 1150.35 1247 c 0
 1155.54 1346 1159.25 1474 1079.25 1474 c 0
 896.249 1474 547.764 587 475.932 304 c 0
 439.385 160 405.947 -1 274.947 -1 c 0
 207.947 -1 129.153 22 132.141 79 c 0
 137.8 187 224.898 456 263.541 640 c 0
 276.896 704 361.431 1134 373.693 1368 c 0
 378.358 1457 371.555 1518 347.555 1518 c 0
 284.555 1518 184.336 1323 98.6396 1138 c 1
 93.2207 1130 85.0635 1127 74.0635 1127 c 0
 24.0635 1127 -64.9531 1203 -61.6514 1266 c 0
 -60.9707 1279 -58.2363 1293 -51.4502 1308 c 0
 50.498 1536 219.198 1702 388.198 1702 c 0xa0
 564.198 1702 591.494 1555 582.166 1377 c 0
 576.4 1267 568.636 1157 561.08 1051 c 1
 652.815 1294 864.351 1724 1157.35 1724 c 0
 1319.35 1724 1398.17 1587 1390.42 1439 c 0
 1387.58 1385 1308.66 1043 1308.66 1043 c 1
 1399.02 1336 1566.67 1730 1911.67 1730 c 0
 2071.67 1730 2154.97 1564 2145.11 1376 c 0
 2143.44 1344 2139.71 1311 2131.98 1278 c 0
 2060.89 971 2009.52 716 1947.48 448 c 0
 1937.22 405 1931.23 367 1929.61 336 c 0
 1925.99 267 1944.74 224 2007.74 224 c 0
 2109.74 224 2196.56 316 2252.44 371 c 0
 2296.7 414 2345.11 460 2386.15 518 c 0
 2414.14 556 2438.34 579 2459.34 579 c 0
 2480.34 579 2495.24 558 2493.04 516 c 0
 2490.79 473 2475.28 406 2422.82 321 c 0
 2324.49 162 2178 0 1941 0 c 0
 1769 0 1662.34 121 1671.51 296 c 0xc0
EndSplineSet
EndChar

StartChar: R
Encoding: 52 82 21
Width: 1820
Flags: WO
HStem: 1494 234<1148.23 1520.21>
VStem: -191.434 319.502<90.4249 615.206> 1651.94 268.81<1130.4 1383.17>
LayerCount: 2
Fore
SplineSet
577.491 903.396 m 0
 577.491 943.086 590.084 992 634.988 992 c 0
 678.988 992 729.202 977 770.15 976 c 1
 917.014 1584 972.259 1665 1081.26 1665 c 0
 1112.78 1665 1126.26 1641.88 1126.26 1595.63 c 0
 1126.26 1590.99 1126.13 1586.11 1125.86 1581 c 2
 1125.86 1572 l 1
 1109.85 1375.99 1040.86 1164.3 1003.79 950 c 1
 1310.95 956.026 1651.94 1017.29 1651.94 1264.44 c 0
 1651.94 1425.52 1482.72 1494 1302.3 1494 c 0
 541.256 1494 128.068 801.862 128.068 336.477 c 0
 128.068 -409.899 616.337 358.966 720.039 764 c 1
 658.539 795.233 577.491 828.371 577.491 903.396 c 0
1264.61 794 m 1
 1781.44 566.509 1789.65 228.498 1789.65 43.5421 c 0
 1789.65 -75.5444 1757.34 -239.423 1706.05 -239.423 c 0
 1682.09 -239.423 1653.99 -203.671 1623.11 -110.906 c 0
 1525.8 181.398 1486.79 532.466 942.729 739 c 1
 839.132 306.271 818.824 -196.712 327.539 -196.712 c 0
 -31.0508 -196.712 -191.434 27.0951 -191.434 322.073 c 0
 -191.434 924.052 426.456 1728 1332.56 1728 c 0
 1639.99 1728 1920.75 1580.35 1920.75 1285.96 c 0
 1920.75 958.354 1575.77 817.464 1264.61 794 c 1
EndSplineSet
EndChar

StartChar: t
Encoding: 86 116 22
Width: 727
Flags: W
HStem: 8.938 209.856<404.137 582.963> 922 158<73.1471 237.32 549.601 898.574>
VStem: 125.659 241.545<252.019 688.916>
LayerCount: 2
Fore
SplineSet
723.793 354 m 0
 767.507 354 789.538 315.928 789.538 273.782 c 0
 789.538 248.55 781.642 221.857 765.774 201 c 1
 690.651 73.784 584.635 8.938 486.542 8.938 c 0
 295.298 8.938 125.659 135.789 125.659 396.265 c 0
 125.659 567.943 181.88 764.3 237.32 922 c 1
 113.923 922 36.3159 976.112 36.3159 1021 c 0
 36.3159 1052.82 75.3013 1080 164.601 1080 c 2
 287.601 1080 l 1
 513.201 1587.76 493.478 1792 712.915 1792 c 0
 776.398 1792 801.351 1764.96 801.351 1717.19 c 0
 801.351 1599.35 649.502 1355.37 549.601 1080 c 1
 782.601 1080 l 2
 875.817 1080 921.212 1025.67 921.212 980.725 c 0
 921.212 949.027 898.631 922 854.32 922 c 2
 490.32 922 l 1
 449.668 811.228 367.203 595.518 367.203 429.325 c 0
 367.203 268.736 417.125 218.794 485.559 218.794 c 0
 562.59 218.794 673.908 354 723.793 354 c 0
EndSplineSet
Substitution2: "'swash' ini-1" t.init
Substitution2: "finals" t.fina
EndChar

StartChar: D
Encoding: 38 68 23
Width: 1430
Flags: HW
HStem: -60 188<423.838 723.076> 1507 229<347.888 871.394>
VStem: 154 260<72 723.691> 1194 244<737.028 1223.31>
LayerCount: 2
Fore
SplineSet
18.4307 1134 m 0
 -35.5693 1134 -53.792 1187 -51.5908 1229 c 0
 -46.7168 1322 34.0439 1451 51.0391 1470 c 0
 207.211 1645 397.979 1736 669.979 1736 c 0
 1177.98 1736 1518.08 1528 1491.88 1028 c 0
 1465.3 521 1177.6 126 800.267 -14 c 0
 718.694 -44 631.855 -60 538.855 -60 c 0
 402.855 -60 284.004 -19 193.258 24 c 0
 163.991 38 156.673 51 158.874 93 c 0
 184.921 590 254.604 1061 473.223 1359 c 1
 521.951 1392 565.79 1408 604.79 1408 c 0
 653.79 1408 692.375 1381 722.493 1326 c 1
 542.648 1100 446.702 624 427.521 258 c 0
 422.856 169 427.708 128 516.708 128 c 0
 899.708 128 1126.31 502 1213.66 814 c 0
 1232.22 882 1243.58 946 1246.88 1009 c 0
 1264.02 1336 1025.98 1507 668.979 1507 c 0
 535.979 1507 359.039 1470 219.702 1330 c 0
 164.82 1275 82.4307 1134 18.4307 1134 c 0
EndSplineSet
EndChar

StartChar: quotesingle
Encoding: 9 39 24
Width: 524
Flags: HW
VStem: 117.666 458.802
LayerCount: 2
Fore
SplineSet
531.767 1861.13 m 0
 636.371 1861.13 671.601 1815.23 668.12 1748.83 c 0
 659.079 1576.32 413.375 1279.17 369.818 1218.92 c 1
 307.981 1128.7 300.044 1108 233.799 1108 c 0
 221.646 1108 177.151 1135.04 178.967 1169.69 c 0
 179.918 1187.84 184.166 1209.2 192.326 1228.42 c 1
 265.618 1362.5 399.277 1861.13 531.767 1861.13 c 0
EndSplineSet
EndChar

StartChar: E
Encoding: 39 69 25
Width: 1475
Flags: HW
HStem: -96 210<461.683 939.927> 710 177<550.828 696> 1501 225<634.053 1169.76>
VStem: 64 288<222.884 540.787> 260 262<1138.71 1395.72>
LayerCount: 2
Fore
SplineSet
372.439 390 m 0xf0
 362.429 199 462.975 114 650.975 114 c 0
 976.975 114 1262.84 264 1485.09 517 c 1
 1598.23 634 1579.35 331 1542.2 290 c 1
 1337.88 74 1017.97 -96 631.969 -96 c 0
 310.969 -96 66.3057 44 83.0762 364 c 0xf0
 101.576 717 385.014 878 742.485 887 c 1
 483.485 887 313.771 1026 327.082 1280 c 0
 343.957 1602 683.456 1726 1002.46 1726 c 0
 1302.46 1726 1666.01 1603 1602.07 1318 c 0
 1581.25 1226 1465.91 1124 1374.91 1124 c 0
 1360.91 1124 1354.54 1136 1355.85 1161 c 1
 1413.11 1376 l 1
 1317.36 1457 1115.66 1501 937.664 1501 c 0
 757.664 1501 597.729 1445 588.349 1266 c 0xe8
 574.88 1009 905.076 1070 1034.79 950 c 0
 1068.16 919 1069.75 873 1066.5 811 c 0
 1062.47 734 1036.89 704 957.896 704 c 0
 919.896 704 860.21 710 820.21 710 c 0
 602.21 710 383.812 607 372.439 390 c 0xf0
EndSplineSet
EndChar

StartChar: O
Encoding: 49 79 26
Width: 1699
Flags: W
HStem: -66 225<632.129 1034.92> 1508.54 221.46<939.462 1324.3>
LayerCount: 2
Back
SplineSet
428 456 m 4
 428 281 491 160 660 160 c 4
 962 160 1138 505 1203 745 c 6
 1411 1517 l 5
 1369 1529 1318 1536 1266 1536 c 4
 986 1536 804 1309 684 1138 c 4
 562 964 428 733 428 456 c 4
1423 344 m 4
 1423 334 1423 324 1423 314 c 4
 1423 276 1426 238 1459 238 c 4
 1597 238 1735 365 1833 419 c 5
 1884 224 l 5
 1776 111 1592 -32 1380 -32 c 4
 1240 -32 1196 88 1196 236 c 4
 1196 293 1205 345 1214 399 c 5
 1105 179 915 -64 603 -64 c 4
 308 -64 140 149 140 450 c 4
 140 899 395 1243 642 1460 c 4
 802 1601 1012 1728 1301 1728 c 4
 1351 1728 1403 1720 1403 1675 c 4
 1403 1670 1402 1664 1402 1660 c 6
 1402 1655 l 5
 1496 1599 1601 1659 1634 1519 c 4
 1641 1489 1644 1448 1644 1397 c 4
 1644 1064 1508 777 1430 505 c 5
 1426 448 1423 403 1423 344 c 4
EndSplineSet
Fore
SplineSet
1489.29 1036 m 0
 1502.99 1297.31 1411.98 1508.54 1147.41 1508.54 c 0
 699.695 1508.54 461.764 968.629 441.764 587 c 0
 429.682 356.476 551.333 159 833.333 159 c 0
 1274.33 159 1470.74 681.891 1489.29 1036 c 0
184.607 589.495 m 0
 215.176 1172.78 584.141 1730 1144.67 1730 c 0
 1565.67 1730 1765.42 1420 1743.25 997 c 0
 1716.94 494.981 1386.19 -66 797.541 -66 c 0
 373.149 -66 165.813 230.898 184.607 589.495 c 0
EndSplineSet
EndChar

StartChar: period
Encoding: 16 46 27
Width: 704
Flags: HW
HStem: 0 353<376.763 613.2>
VStem: 320 352<58.8001 295.029>
LayerCount: 2
Fore
SplineSet
521.5 353 m 0
 629.5 353 687.565 297 682.01 191 c 0
 675.983 76 603 0 484 0 c 0
 378 0 322.883 55 328.49 162 c 0
 334.517 277 404.5 353 521.5 353 c 0
EndSplineSet
EndChar

StartChar: p
Encoding: 82 112 28
Width: 898
Flags: HW
HStem: 27 154.594<482.824 761.129> 774 186<458.383 692.912>
VStem: 708 195<550.49 754.756>
DStem2: -38 -425 177 -398 0.182698 0.983169<-10.3118 627.1>
LayerCount: 2
Back
SplineSet
-86 -441 m 4xf6
 -86 -484 -62 -549 -18 -549 c 4
 49 -549 52 -313 52 -173 c 6
 52 -90 l 5
 -35 -211 -86 -321.807 -86 -441 c 4xf6
262 278 m 1xfa
 504.859 289.778 611 459.656 611 636 c 0
 611 710.391 568.053 774 467 774 c 0
 271 774 262 457.2 262 278 c 1xfa
808 621 m 0
 808 320.101 669.031 113.993 283.888 113.993 c 4
 282.595 113.993 281.299 113.995 280 114 c 5
 286 25 l 5xf6
 286 -286 220 -581 57 -721 c 4
 13 -759 -33 -778 -80 -778 c 4
 -223.559 -778 -281.109 -644.124 -281.109 -497.972 c 4
 -281.109 -235.023 -121.395 -71.9356 45.6045 56 c 5
 42.9935 138.722 41.6406 219.296 41.6406 297.343 c 0
 41.6406 686.356 155.126 960 455 960 c 0
 687.783 960 808 837.383 808 621 c 0
EndSplineSet
Fore
SplineSet
487.683 242 m 1
 505.929 189.59 546.728 181.594 603.999 181.594 c 0
 811.159 181.594 952.958 366.59 1031 477 c 0
 1038.58 488 1046.84 493 1055.84 493 c 0
 1093.84 493 1135.07 402 1132.29 349 c 0
 1130.98 324 1120.09 307 1108.15 289 c 0
 954.83 54 786.415 27 585.415 27 c 0
 481.415 27 360.197 61 292.019 153 c 1
 265.872 51.8184 189.179 -297.918 156.142 -398 c 5
 143.679 -445 50.7959 -500 -8.2041 -500 c 4
 -41.2041 -500 -64.3125 -483 -61.9023 -437 c 4
 -61.6924 -433 -60.4834 -429 -60.2734 -425 c 4
 -17.4111 -155.438 94.0273 201.462 103.836 264 c 0
 146.715 567 273.312 960 658.312 960 c 0
 854.312 960 948.28 864 939.318 693 c 0
 927.736 472 741.98 324 487.683 242 c 1
325.242 329 m 1
 507.175 384.96 734.499 505.623 743.48 677 c 0
 746.258 730 711.563 774 624.563 774 c 0
 400.563 774 348.676 489.919 325.242 329 c 1
EndSplineSet
Substitution2: "'swash' ini-1" p.init
Substitution2: "finals" p.fina
EndChar

StartChar: U
Encoding: 55 85 29
Width: 1592
Flags: HW
HStem: -160 224<577.177 882.099>
VStem: 176 266<236.88 918.299> 346 311<1351.27 1574.93> 1328 288<1093.77 1684.45>
LayerCount: 2
Fore
SplineSet
472.292 578 m 0xd0
 451.224 176 552.354 64 734.354 64 c 0
 1215.35 64 1362.91 1124 1410.18 1568 c 0
 1421.89 1677 1480.56 1728 1593.56 1728 c 0
 1679.56 1728 1704.1 1681 1699.49 1593 c 0
 1665.26 940 1503.55 373 1162.52 48 c 0
 1044.59 -65 892.615 -160 691.615 -160 c 0
 286.615 -160 185.591 183 206.815 588 c 0xd0
 224.372 923 322.042 1222 423.145 1472 c 0
 456.547 1556 484.529 1632 585.529 1632 c 0
 673.529 1632 742.163 1625 737.551 1537 c 2
 737.132 1529 l 1xb0
 667.199 1225 491.683 948 472.292 578 c 0xd0
EndSplineSet
EndChar

StartChar: Q
Encoding: 51 81 30
Width: 1612
Flags: HW
HStem: -653 259<1048.87 1256.72> 1664 192<838.484 1166.08>
VStem: 96 287<331.569 947.18> 1344 288<722.471 1393.26>
LayerCount: 2
Fore
SplineSet
413.239 577 m 0
 399.246 310 514.354 64 769.354 64 c 0
 1198.35 64 1381.58 717 1403.33 1132 c 0
 1417.11 1395 1358.21 1664 1101.21 1664 c 0
 680.207 1664 436.246 1016 413.239 577 c 0
1093.27 1856 m 0
 1530.27 1856 1710.98 1507 1687.76 1064 c 0
 1658.1 498 1370.86 -79 862.768 -138 c 1
 938.156 -226 998.352 -394 1144.35 -394 c 0
 1258.35 -394 1351.33 -299 1410.79 -233 c 1
 1422.21 -225 1432.31 -223 1448.31 -223 c 0
 1511.31 -223 1532.77 -367 1532.77 -367 c 1
 1401.75 -539 1197.78 -653 1037.78 -653 c 0
 794.777 -653 746.674 -426 698.793 -252 c 2
 671.877 -155 l 1
 289.283 -90 106.481 200 128.912 628 c 0
 160.776 1236 535.269 1856 1093.27 1856 c 0
EndSplineSet
EndChar

StartChar: W
Encoding: 57 87 31
Width: 2239
Flags: HW
HStem: -96 232<451.391 676.467 1349.93 1533.34> 168 229<2060.46 2222.18>
VStem: 115 271<210.86 796.469> 1051 252<185.481 459> 1902 280<1212.68 1638.12>
LayerCount: 2
Fore
SplineSet
2067.77 549 m 0
 2063.89 475 2077.81 397 2149.81 397 c 0
 2230.81 397 2375.68 509 2443.13 575 c 0
 2466.29 597 2481.76 606 2492.76 606 c 0
 2509.76 606 2514.61 584 2513.03 554 c 0
 2509.79 492 2480.86 398 2480.86 398 c 0
 2408.61 317 2215.8 168 2078.8 168 c 0
 1984.8 168 1924.59 183 1912.04 268 c 1
 1805.61 88 1655.97 -96 1392.97 -96 c 0
 1129.97 -96 1071.64 184 1075.05 459 c 1
 979.647 165 812.707 -101 520.707 -101 c 0
 196.707 -101 122.651 146 139.213 462 c 0
 158.026 821 321.663 1272 396.048 1432 c 0
 441.132 1529 474.529 1632 603.529 1632 c 0
 663.529 1632 711.691 1616 709.123 1567 c 0
 708.756 1560 707.337 1552 704.918 1544 c 0
 661.266 1398 605.828 1237 559.596 1099 c 0
 527.67 1005 421.375 675 408.326 426 c 0
 399.626 260 443.813 130 556.812 130 c 0
 789.812 130 919.921 590 985.249 768 c 0
 1050.63 947 1109.27 1150 1166.17 1377 c 0
 1194.04 1489 1235.18 1568 1368.18 1568 c 0
 1443.18 1568 1495.13 1548 1491.3 1475 c 0
 1485.43 1363 1440.3 1227 1415.75 1102 c 0
 1378.59 908 1339.32 693 1328 477 c 0
 1320.29 330 1311.13 136 1441.13 136 c 0
 1765.13 136 1953 1393 1982.5 1536 c 0
 2005.26 1646 2042.21 1664 2157.21 1664 c 0
 2231.21 1664 2267.42 1630 2263.7 1559 c 0
 2253.54 1365 2166.36 961 2092.27 692 c 0
 2081.17 652 2070.39 599 2067.77 549 c 0
EndSplineSet
EndChar

StartChar: S
Encoding: 53 83 32
Width: 1558
Flags: HW
HStem: -128 213.284<536.563 1036.64> 1551 209<730.075 1194.41>
VStem: 114 255<219.555 525.447> 336 257<1192.18 1441.72> 1236 256<242.757 511.224> 1317 225<1174.43 1449.93>
LayerCount: 2
Fore
SplineSet
388.182 366 m 0xe8
 377.125 155.035 576.823 85.2842 788.931 85.2842 c 0
 1011.95 85.2842 1245.44 180.188 1255.18 366 c 0xe8
 1267.8 606.79 977.714 705.2 822.402 790 c 1
 643.768 891.097 389.17 1014.54 404.34 1304 c 0
 420.953 1621 752.237 1760 1080.24 1760 c 0
 1358.18 1760 1626.06 1603.93 1611.7 1330 c 0
 1605.17 1205.45 1505.48 1034 1383.19 1034 c 0
 1341.19 1034 1316.55 1060 1318.86 1104 c 0
 1323.38 1190.37 1381.99 1240.05 1386.75 1331 c 0
 1395.99 1507.21 1201.28 1551 1029.28 1551 c 0
 860.284 1551 670.825 1485 662.493 1326 c 0xd4
 651.12 1109 944.456 1020 1091.47 944 c 1
 1283.84 836.525 1528.79 701.911 1512.23 386 c 0
 1493.71 32.625 1133.29 -128 763.292 -128 c 0
 421.292 -128 115.311 25 133.129 365 c 0
 140.047 497 226.702 624 351.702 624 c 0
 396.702 624 425.393 599 422.929 552 c 0
 419.575 488 391.955 438 388.182 366 c 0xe8
EndSplineSet
EndChar

StartChar: w
Encoding: 89 119 33
Width: 1249
Flags: HW
HStem: 145.367 178.893<1088.17 1288.52> 941 18G<143.768 238.875 614.192 695.92 1047.1 1098.09>
VStem: 918.806 151.287<342.865 437.452>
LayerCount: 2
Fore
SplineSet
82.334 315.64 m 0
 83.4131 336.226 84.5186 358.787 85.7744 382.755 c 0
 97.6377 609.109 122.899 961 265.364 961 c 1
 289.134 959 l 1
 289.259 959 l 2
 336.107 959 376.074 942.092 374.13 905 c 2
 373.808 898.385 l 1
 272.994 313.726 l 1
 293.651 355.148 l 1
 370.155 513.655 426.957 669.439 507.062 811.633 c 0
 552.954 893.362 606.058 959 722.844 959 c 0
 769.514 959 810.413 942.018 808.525 906 c 0
 808.413 903.857 808.271 902 807.17 898.449 c 2
 706.562 353.74 l 1
 697.513 296 l 1
 982.408 890.796 l 2
 1001.79 931 1065.41 960 1129.41 960 c 0
 1167.39 960 1214.63 932.021 1212.11 883.744 c 0
 1211.84 878.624 1210.46 873.238 1207.82 867.597 c 0
 1163.51 742.04 1102.86 625.34 1093.34 443.588 c 0
 1089.82 376.43 1113.1 324.261 1188.4 324.261 c 0
 1260.47 324.261 1378.84 412.345 1444.76 459.512 c 0
 1466.19 474.845 1483.3 480.165 1495.28 480.165 c 0
 1513.73 480.165 1535.42 449.34 1533.51 412.98 c 0
 1532.93 401.903 1530.17 390.312 1524.45 378.922 c 1
 1425.34 271.713 1307.47 145.367 1138.48 145.367 c 0
 1005.8 145.367 935.062 255.322 941.732 437.452 c 1
 886.716 309.215 760.671 3.26953 664.865 3.26953 c 0
 553.712 3.26953 558.891 182.775 567.549 347.986 c 0
 572.495 442.367 579.925 602.8 579.925 602.8 c 1
 542.489 498.716 l 1
 485.164 318.388 400.2 134.79 274.213 38.4004 c 0
 246.279 17.0293 223.801 3 200.157 3 c 0
 89.2246 3 73.2842 142.97 82.334 315.64 c 0
EndSplineSet
Substitution2: "finals" w.fina
EndChar

StartChar: v
Encoding: 88 118 34
Width: 907
Flags: HW
HStem: 211 154<780.985 1030.64> 942 20G<199.5 284 701 756.5>
VStem: 107 267<618.312 916.248> 107 228<270.408 468.688>
LayerCount: 2
Fore
SplineSet
857.058 211 m 0xd0
 747.058 211 665.787 244 618.924 342 c 1
 557.896 227 467.136 98 371.153 22 c 0
 344 0 317.424 -11 294.424 -11 c 0
 131.424 -11 120.259 253 132.941 495 c 0xd0
 138.55 602 148.896 704 152.773 778 c 0
 157.962 877 202.416 962 297.416 962 c 0
 371.416 962 421.691 910 417.865 837 c 2
 417.289 826 l 1xe0
 348.679 261 l 1
 362.73 262 l 1
 658.591 889 l 1
 669.896 933 724.312 960 778.312 960 c 0
 835.312 960 909.054 936 906.8 893 c 0
 906.538 888 905.224 882 901.909 876 c 0
 858.088 784 782.908 647 776.671 528 c 0
 771.378 427 805.129 365 902.129 365 c 0
 975.129 365 1064.43 409 1117.16 442 c 0
 1126.48 448 1136.58 450 1144.58 450 c 0
 1171.58 450 1184.01 420 1182.28 387 c 0
 1180.5 353 1162.56 316 1130.57 297 c 0
 1067.63 260 945.058 211 857.058 211 c 0xd0
EndSplineSet
EndChar

StartChar: r
Encoding: 84 114 35
Width: 804
Flags: HW
HStem: 288 207<762.007 948.597> 940 20G<289.5 357 604 710.5>
VStem: 223 171<761.355 951.141> 543 206<506.531 630.302>
LayerCount: 2
Fore
SplineSet
235 0 m 0
 126 0 113.241 100 118.953 209 c 0
 131.479 448 189.104 708 269.748 892 c 0
 291.264 940 307.312 960 372.312 960 c 0
 442.312 960 443.211 939 439.542 869 c 2
 434.878 780 l 2
 433.044 745 432.21 710 431.428 676 c 1
 442.428 676 l 1
 501.035 783 576.312 960 732.312 960 c 0
 789.312 960 828.372 923 825.385 866 c 0
 822.765 816 785.424 695 780.654 604 c 0
 776.409 523 811.941 495 860.941 495 c 0
 921.308 495 1003.42 549 1047.71 586 c 0
 1061.24 596 1075.39 599 1086.39 599 c 0
 1109.39 599 1114.82 569 1112.99 534 c 0
 1109.87 474.6 1068.91 399 1068.91 399 c 5
 1000.99 353.132 918.266 288 813.094 288 c 0
 616.094 288 589.107 460 576.227 634 c 1
 560.227 634 l 1
 355.075 135 l 2
 331.035 77 308 0 235 0 c 0
EndSplineSet
EndChar

StartChar: F
Encoding: 40 70 36
Width: 1376
Flags: W
HStem: -142.264 257.264<185.364 445.656> 749 211<1073.31 1435.77> 751 191<659.138 802> 1594.05 225.691<1205.5 1922.5>
VStem: -72.4379 240.963<40.4677 299.032> 176.57 270.949<1147.88 1363.95>
DStem2: 820.368 942 1073.31 960 0.211578 0.977361<71.1095 648.397>
LayerCount: 2
Fore
SplineSet
802 751 m 1xbc
 537.484 751 168.525 386.386 168.525 209.301 c 0
 168.525 152.505 206.478 115 298 115 c 0
 618.923 115 728.769 478.429 802 751 c 1xbc
176.57 1210.1 m 0
 176.57 1723.48 794.068 1818 1287.28 1818 c 0
 1330.43 1818 1398.93 1819.74 1477.32 1819.74 c 0
 1710.82 1819.74 2032.04 1804.33 2032.04 1681.75 c 0
 2032.04 1617.61 1993.14 1558 1930.65 1558 c 0
 1757.24 1558 1558.6 1594.05 1364.38 1594.05 c 0
 1310.03 1594.05 1256.02 1591.23 1203.01 1584 c 1
 1168.36 1381.6 1086.82 1019 1073.31 960 c 1
 1394.31 960 l 2
 1443.26 960 1453.86 927.905 1453.86 883.755 c 0
 1453.86 820.066 1432.26 756 1384.25 756 c 0
 1270.56 756 1138.43 749 1022.25 749 c 1xdc
 899.582 147.01 530.637 -142.264 256.331 -142.264 c 0
 25.6968 -142.264 -72.4379 -33.8469 -72.4379 114.782 c 0
 -72.4379 410.116 315.035 864.224 820.368 942 c 1
 880.151 1160.85 913.337 1354.08 965.49 1574 c 1
 596.065 1534.65 458.478 1421.11 447.519 1212 c 0
 444.583 1156 395.535 1136 333.535 1136 c 0
 250.732 1136 176.57 1137.9 176.57 1210.1 c 0
EndSplineSet
EndChar

StartChar: at
Encoding: 34 64 37
Width: 2241
Flags: HW
HStem: -384 256<656.35 1304.62> 32 195<928.153 1125.9> 54 235<1427 1668.6> 1042 199<1230.43 1485.28> 1376 192<1089.94 1595.2>
VStem: 112 288<81.6462 545.009> 620 277<257.938 593.551> 1350 198<184.5 344.132> 1888 250<592.096 1090.71>
LayerCount: 2
Fore
SplineSet
875.875 -384 m 0xbf80
 440.875 -384 101.1 -208 123.268 215 c 0
 149.104 708 428.076 1070 714.13 1300 c 0
 893.677 1444 1122.18 1568 1426.18 1568 c 0
 1886.18 1568 2207.86 1333 2183.59 870 c 0
 2164.1 498 1921.43 199 1648.61 88 c 0
 1593.46 66 1536.83 54 1477.83 54 c 0xbf80
 1381.83 54 1357.02 134 1362.32 235 c 0
 1364.36 274 1372.14 308 1381.08 345 c 1
 1300.27 196 1162.68 32 951.677 32 c 0xdf80
 747.677 32 628.909 170 639.811 378 c 0
 660.668 776 965.177 1091 1264.99 1202 c 0
 1336.36 1228 1409.04 1241 1486.04 1241 c 0
 1519.04 1241 1554.78 1236 1553.26 1207 c 0
 1552.99 1202 1551.89 1200 1551.68 1196 c 2
 1551.47 1192 l 1
 1658.95 1144 1769.36 1209 1759.35 1018 c 0
 1747.46 791 1635.07 612 1583.85 417 c 0
 1576.23 386 1566.92 361 1565.82 340 c 0
 1564.4 313 1570.15 289 1595.15 289 c 0
 1799.15 289 1920.91 628 1931.6 832 c 0
 1950.37 1190 1768.11 1376 1416.11 1376 c 0
 985.113 1376 712.661 1043 558.096 746 c 0
 486.916 609 423.111 441 413.679 261 c 0
 397.327 -51 661.292 -128 985.292 -128 c 0
 1283.29 -128 1532.65 -83 1733.37 7 c 0
 1748.73 14 1762.89 17 1775.89 17 c 0
 1821.89 17 1837.53 -28 1835.07 -75 c 0
 1829.09 -189 1671.26 -224 1584.58 -256 c 0
 1380.71 -330 1138.88 -384 875.875 -384 c 0xbf80
917.072 383 m 0
 912.094 288 945.896 227 1038.9 227 c 0xdf80
 1217.9 227 1335.75 434 1385.29 578 c 2
 1539.93 1029 l 1
 1512.29 1036 1476.61 1042 1443.61 1042 c 0
 1182.61 1042 1007.79 721 942.833 512 c 0
 928.369 465 919.116 422 917.072 383 c 0
EndSplineSet
EndChar

StartChar: J
Encoding: 44 74 38
Width: 1362
Flags: HW
HStem: -760 233<197.124 430.917> 1772 215<663.211 891.219>
VStem: -104 256<-480.918 -89.9829> 216 254<1125.11 1519.27> 984 256<739.909 1570.22>
LayerCount: 2
Fore
SplineSet
888.866 1772 m 0
 694.866 1772 548.926 1506 538.34 1304 c 0
 524.818 1046 724.425 924 984.996 725 c 1
 1019.16 919 1042.8 1122 1054.44 1344 c 0
 1064.03 1527 1054.87 1772 888.866 1772 c 0
135.229 -320 m 0
 129.255 -434 165.381 -527 268.381 -527 c 0
 406.381 -527 517.142 -398 597.802 -290 c 1
 751.336 -89 864.328 178 945.47 486 c 1
 942.47 486 939.47 486 936.47 486 c 0
 556.47 486 154.516 48 135.229 -320 c 0
227.17 -760 m 0
 -35.8301 -760 -131.619 -527 -117.416 -256 c 0
 -89.2734 281 386.978 572 784.44 619 c 1
 576.777 759 266.573 965 283.082 1280 c 0
 300.796 1618 489.265 1875 742.877 1963 c 0
 788.715 1979 834.135 1987 879.135 1987 c 0
 1250.13 1987 1320.97 1545 1300.37 1152 c 0
 1289.16 938 1263.99 744 1224.45 562 c 1
 1340.52 487 1497.33 426 1594.19 328 c 0
 1602.77 320 1606.4 313 1606.04 306 c 0
 1604.04 268 1529.37 236 1489.37 236 c 1
 1372.53 239 1267.77 301 1169.92 361 c 1
 1050.96 -58 859.622 -427 558.459 -640 c 1
 466.104 -704 358.17 -760 227.17 -760 c 0
EndSplineSet
EndChar

StartChar: K
Encoding: 45 75 39
Width: 1880
Flags: W
HStem: -64.209 220.463<1487.7 1676.96> -32 224<94.0389 414.289> 1573.57 175.255<625.589 826.871>
VStem: 238.368 236.44<1095.77 1349.85> 829.565 276.214<1212.41 1569.9>
LayerCount: 2
Back
SplineSet
1124 800 m 5
 1206.64 585.927 1360.81 156.262 1584.42 156.262 c 4
 1710.33 156.262 1821.58 244.65 1899 306 c 4
 1920.83 323.301 1939.84 329.918 1955.4 329.918 c 4
 2008.24 329.918 2025.46 248.143 2025.46 188.868 c 4
 2025.46 159.474 2021.23 135.613 2015 130 c 4
 1884 11.9195 1724 -64 1514 -64 c 4
 1112 -64 978 506.602 900 734 c 5
 818 404.906 693.427 97.7473 428 -20 c 4
 360.427 -49.9764 289 -64 214 -64 c 4
 121 -64 -96 -49 -96 36 c 4
 -96 98 -31 196 31 196 c 4
 78 196 122 160 179 160 c 4
 491 160 594 599 653 864 c 4
 696 1056 727 1274 749 1485 c 5
 761 1568 l 5
 472 1568 260 1380 260 1097 c 4
 260 1043 197 1024 136 1024 c 4
 56 1024 -28 1040 -28 1111 c 6
 -28 1120 l 6
 -28 1563 453.214 1728 895 1728 c 4
 968 1728 1021 1702 1021 1632 c 4
 1021 1409 998.789 1195 962 992 c 5
 1362.37 1032 1573.91 1202 1604 1536 c 4
 1615.72 1666.47 1611 1696 1732 1696 c 4
 1833.42 1696 1863 1646.36 1863 1568.85 c 4
 1863 1553.89 1861.9 1537.89 1860 1521 c 4
 1800 988.292 1514.07 830 1124 800 c 5
EndSplineSet
Fore
SplineSet
1815.79 115.476 m 0xb8
 1815.79 -12.2656 1618.79 -64.209 1528.58 -64.209 c 0xb8
 1080.71 -64.209 1013.47 520.238 946.935 762 c 1
 847.423 387.52 693.583 -32 310.646 -32 c 4
 218.592 -32 5.81934 -17.3037 5.81934 65.4268 c 4
 5.81934 129.008 80.2781 228 141.271 228 c 4
 188.271 228 230.385 192 287.385 192 c 4x78
 482.95 192 625.651 484.305 711.493 809.252 c 1
 368.918 816.748 238.368 973.842 238.368 1157.49 c 0
 238.368 1424.99 515.322 1748.83 817.476 1748.83 c 0
 1006.61 1748.83 1105.78 1697.82 1105.78 1503.41 c 0
 1105.78 1320.74 1025.53 1081.71 1000.99 992 c 1
 1372.9 1210 1538.82 1331.83 1724.5 1536 c 0
 1811.53 1631.7 1840.89 1706.59 1915.14 1706.59 c 0
 1985.39 1706.59 2047.32 1662.79 2047.32 1595.35 c 0
 2047.32 1318.62 1671.91 1084.35 1146.07 860 c 1
 1290.9 552.771 1368.11 156.254 1590.93 156.254 c 0
 1591.49 156.254 1592.05 156.254 1592.61 156.254 c 0
 1658.7 156.254 1702.49 239.918 1752.69 239.918 c 0
 1800.74 239.918 1815.79 172.305 1815.79 115.476 c 0xb8
752.824 957.783 m 1
 803.643 1162.72 829.565 1365.95 829.565 1510.72 c 0
 829.565 1555.42 800.131 1573.57 756.065 1573.57 c 0
 581.479 1573.57 474.809 1412.32 474.809 1254.52 c 0
 474.809 1114.75 558.503 977.68 752.824 957.783 c 1
EndSplineSet
Substitution2: "finals" K.alt
EndChar

StartChar: acute
Encoding: 114 180 40
Width: 609
Flags: HW
HStem: 1088 622
VStem: 304 240<1542.73 1671.25>
LayerCount: 2
Fore
SplineSet
217.02 1088 m 0
 182.02 1088 160.645 1119 162.531 1155 c 0
 167.72 1254 253.746 1369 295.096 1452 c 0
 324.24 1512 357.595 1576 390.264 1646 c 0
 408.255 1684 441.617 1710 488.617 1710 c 0
 566.617 1710 630.578 1652 626.49 1574 c 0
 622.088 1490 528.895 1410 482.96 1354 c 0
 419.925 1277 349.837 1199 286.959 1125 c 0
 268.91 1105 248.02 1088 217.02 1088 c 0
EndSplineSet
EndChar

StartChar: A
Encoding: 35 65 41
Width: 1652
Flags: W
HStem: -64 224<530.301 814.039> 1536 192<1141.16 1488.35>
LayerCount: 2
Fore
SplineSet
451.898 456 m 4
 442.727 281 499.385 160 668.385 160 c 4
 970.385 160 1164.47 505 1242.04 745 c 6
 1490.5 1517 l 5
 1449.13 1529 1398.5 1536 1346.5 1536 c 4
 1066.5 1536 872.602 1309 743.64 1138 c 4
 612.521 964 466.415 733 451.898 456 c 4
1441.03 344 m 4
 1440.5 334 1439.98 324 1439.46 314 c 4
 1437.46 276 1438.47 238 1471.47 238 c 4
 1609.47 238 1754.13 365 1854.96 419 c 5
 1895.74 224 l 5
 1781.82 111 1590.32 -32 1378.32 -32 c 4
 1238.32 -32 1200.61 88 1208.37 236 c 4
 1211.36 293 1223.08 345 1234.91 399 c 5
 1114.38 179 911.646 -64 599.646 -64 c 4
 304.646 -64 147.809 149 163.584 450 c 4
 187.114 899 460.143 1243 718.516 1460 c 4
 885.905 1601 1102.56 1728 1391.56 1728 c 4
 1441.56 1728 1493.14 1720 1490.78 1675 c 4
 1490.52 1670 1489.21 1664 1489 1660 c 6
 1488.73 1655 l 5
 1579.8 1599 1687.94 1659 1713.61 1519 c 4
 1719.04 1489 1719.89 1448 1717.21 1397 c 4
 1699.76 1064 1548.72 777 1456.47 505 c 5
 1449.48 448 1444.12 403 1441.03 344 c 4
EndSplineSet
EndChar

StartChar: B
Encoding: 36 66 42
Width: 1576
Flags: W
HStem: -155.095 185.326<491.188 879.443> 891 126<1089.08 1245.99> 1654.12 161.55<624.806 1170.6>
VStem: 78.7227 297.218<147.437 730.989> 757.449 331.631<764.992 1096.62> 1203.63 222.16<317.424 635.614> 1432.99 249.76<1168.31 1444.53>
LayerCount: 2
Fore
SplineSet
78.7227 377.739 m 0
 78.7227 709.582 204.946 1478 654.79 1478 c 0
 703.79 1478 742.375 1451 772.493 1396 c 1
 490.612 1149.02 375.94 720.049 375.94 296 c 0
 375.94 109.26 510.002 30.2314 670.217 30.2314 c 0
 908.095 30.2314 1203.63 216.637 1203.63 489 c 0
 1203.63 841.285 757.449 642.567 757.449 930.808 c 0
 757.449 1005.05 783.164 1024 855.045 1024 c 0
 913.045 1024 952.679 1017 1009.68 1017 c 0
 1293.21 1017 1432.99 1148.97 1432.99 1306.36 c 0
 1432.99 1472.53 1248.23 1654.12 910.266 1654.12 c 0
 318.425 1654.12 230.326 1224 38.334 1224 c 0
 4.53307 1224 -31.1025 1250.45 -31.1025 1297.29 c 0
 -31.1025 1616.5 540.097 1815.67 948.48 1815.67 c 0
 1415.56 1815.67 1682.75 1549.34 1682.75 1305.65 c 0
 1682.75 1084.45 1490.25 899.116 1089.08 891 c 1
 1304.49 891 1425.79 721.987 1425.79 454 c 0
 1425.79 85.0332 1023.71 -155.095 658.896 -155.095 c 0
 355.964 -155.095 78.7227 2.32296 78.7227 377.739 c 0
EndSplineSet
EndChar

StartChar: C
Encoding: 37 67 43
Width: 1480
Flags: W
HStem: -174.986 238.986<567.9 898.094> 1568 224<992.119 1314.85>
VStem: 119.645 289.422<236.042 762.748> 1382.94 225.286<1217.34 1499.41>
LayerCount: 2
Fore
SplineSet
677.748 -174.986 m 0
 924.752 -174.986 1495.26 92.1565 1495.26 448.89 c 0
 1495.26 483.168 1456.22 505.489 1427.72 505.489 c 0
 1415.16 505.489 1401.87 502.316 1391.84 493 c 1
 1210.83 285.397 1039.34 64 753.354 64 c 0
 517.898 64 409.067 212.136 409.067 455.774 c 0
 409.067 891.913 727.362 1568 1170.18 1568 c 0
 1307.7 1568 1382.94 1493.2 1382.94 1362.78 c 0
 1382.94 1062.69 999.027 1074.47 999.027 888.049 c 0
 999.027 846.677 1031.78 815.056 1096.17 815.056 c 0
 1373.42 815.056 1608.22 1107.04 1608.22 1392.88 c 0
 1608.22 1630.62 1455.07 1792 1216.92 1792 c 0
 601.056 1792 119.645 1070.62 119.645 421.626 c 0
 119.645 -6.72232 374.256 -174.986 677.748 -174.986 c 0
EndSplineSet
EndChar

StartChar: parenleft
Encoding: 10 40 44
Width: 1377
Flags: HW
HStem: -378 187<905.924 1237.31>
VStem: 374 256<127.519 769.524>
LayerCount: 2
Fore
SplineSet
1247.22 -282 m 4
 1242.56 -371 1092.19 -378 1020.19 -378 c 4
 590.189 -378 371.274 -52 395.487 410 c 4
 426.46 1001 783.105 1643 1357.47 1898 c 4
 1388.15 1911 1413.47 1917 1435.47 1917 c 4
 1480.47 1917 1505.16 1892 1503.16 1854 c 4
 1500.54 1804 1445.4 1744 1345.73 1674 c 4
 918.061 1375 675.385 866 652.535 430 c 4
 635.398 103 733.61 -141 1023.99 -191 c 4
 1135.99 -210 1252.09 -189 1247.22 -282 c 4
EndSplineSet
EndChar

StartChar: parenright
Encoding: 11 41 45
Width: 1377
Flags: HW
HStem: -378 187<167.826 537.264>
VStem: 960 258<389.128 1075.67>
LayerCount: 2
Fore
SplineSet
638.466 1917 m 4
 589.466 1917 551.841 1886 549.273 1837 c 4
 546.862 1791 582.979 1736 651.73 1674 c 4
 909.572 1442 1016.86 1085 998.415 733 c 4
 973.73 262 764.239 -129 381.99 -191 c 4
 266.994 -210 132.2 -187 126.435 -297 c 4
 122.504 -372 257.189 -378 325.189 -378 c 4
 864.189 -378 1224.81 130 1258.3 769 c 4
 1283.2 1244 1105.78 1694 711.47 1898 c 4
 685.151 1911 660.466 1917 638.466 1917 c 4
EndSplineSet
EndChar

StartChar: G
Encoding: 41 71 46
Width: 1536
Flags: HW
HStem: -736 224<801.251 1059.61> -192 256<553.897 983.2> 420 224<1084.32 1303> 1541 189<952.846 1260.94>
VStem: 96 288<249.673 817.913> 1311 225<220.477 410.577 1170.29 1490.63>
LayerCount: 2
Fore
SplineSet
1249.75 644 m 0
 1473.75 644 1565.45 562 1553.87 341 c 0
 1529.87 -117 1390.91 -536 1073.94 -688 c 0
 1008.27 -720 933.428 -736 850.428 -736 c 0
 730.428 -736 538.21 -702 544.342 -585 c 0
 547.748 -520 595.889 -441 661.889 -441 c 0
 766.889 -441 820.167 -512 933.167 -512 c 0
 1113.17 -512 1225.24 -129 1270.31 25 c 1
 1120.45 -106 953.938 -192 674.938 -192 c 0
 304.938 -192 101.817 111 121.261 482 c 0
 148.041 993 416.064 1356 734.966 1564 c 0
 873.683 1654 1046.67 1730 1250.67 1730 c 0
 1500.67 1730 1617.28 1570 1603.97 1316 c 0
 1598.15 1205 1531.71 1063 1428.71 1063 c 0
 1367.71 1063 1334.12 1128 1337.37 1190 c 0
 1340.41 1248 1379.13 1281 1382.28 1341 c 0
 1388.25 1455 1342.76 1541 1238.76 1541 c 0
 1009.76 1541 833.795 1389 713.72 1254 c 0
 549.076 1070 426.397 809 408.736 472 c 0
 395.529 220 503.354 64 753.354 64 c 0
 981.354 64 1153.87 131 1302.84 226 c 1
 1313.57 259 1326.51 296 1328.5 334 c 0
 1332.12 403 1300.01 420 1232.01 420 c 0
 1152.01 420 1079 458 1083.04 535 c 0
 1087.13 613 1167.75 644 1249.75 644 c 0
EndSplineSet
EndChar

StartChar: H
Encoding: 42 72 47
Width: 1926
Flags: HW
HStem: -64 235<1430.69 1670.15> 705 192<231.185 463> 744 160<816.447 1247> 750 204<1578.87 1852.24> 959 20G<123.5 155> 1543.19 189.782<344.316 524.103>
VStem: 618.83 271.778<1017.77 1438.91> 1152 270<175.918 531.356>
LayerCount: 2
Back
SplineSet
640.692 1348.65 m 4
 640.692 1468.12 597.88 1564.54 465.047 1564.54 c 4
 375.288 1564.54 289.916 1508.18 289.916 1408.55 c 4
 289.916 1373.89 323.285 1355.98 323.285 1329.35 c 4
 323.285 1282.88 287.714 1262.43 243.34 1262.43 c 4
 169.782 1262.43 72.0348 1318.62 72.0348 1405.59 c 4
 72.0348 1584.13 290.471 1726.54 487.296 1726.54 c 4
 792.878 1726.54 890.988 1526.11 890.988 1306.88 c 4
 890.988 1165.93 853.57 1010.49 809 876 c 5
 958 886 1143 896 1300 904 c 5
 1370 1134 1455 1381 1543 1600 c 4
 1568 1662 1613 1725 1692 1725 c 4
 1757 1725 1799 1689 1799 1623 c 4
 1799 1472 1722 1351 1678 1226 c 4
 1643 1127 1607 1021 1575 919 c 5
 1654 924 1724 934 1794 934 c 4
 1858 934 1890 913 1890 851 c 4
 1890 741 1628 759 1525 750 c 5
 1463 532 1422 371 1422 275 c 4
 1422 207 1443 171 1491 171 c 4
 1741.69 171 1890.75 351.652 2025 488 c 4
 2037 500 2052 506 2068 506 c 4
 2104 506 2141 476 2141 420 c 4
 2141 378 2125.7 315.382 2060 249 c 4
 1927.12 114.732 1706.68 -64 1455 -64 c 4
 1282 -64 1152 41 1152 217 c 4
 1152 392.447 1207.06 577.182 1247 724 c 5
 1074 706 916 690 745 675 c 5
 683 490 622 304 553 131 c 4
 518 42 460 -63 374 -63 c 4
 304 -63 247 -19 247 51 c 4
 247 62 248 72 251 82 c 4
 306 282 374 471 443 655 c 5
 264 655 103 728 103 905 c 4
 103 934 113 949 134 949 c 4
 176 949 206 899 235 863 c 5
 301 866 360 867 430 867 c 6
 526 867 l 5
 559.166 962.943 640.692 1181.53 640.692 1348.65 c 4
EndSplineSet
Fore
SplineSet
467.664 1543.19 m 0xcf
 442.489 1543.19 321.557 1344.83 262.095 1344.83 c 0
 239.227 1344.83 225.451 1374.16 229.708 1455.4 c 0
 239.256 1637.57 388.719 1732.98 549.76 1732.98 c 0
 751.776 1732.98 973.39 1579.57 957.002 1266.87 c 0
 950.57 1144.15 900.838 1013.83 856.481 906 c 1
 1005.44 905.286 1190.41 904.571 1347.38 904 c 1xaf
 1429.43 1134 1527.38 1381 1626.85 1600 c 0
 1655.1 1662 1703.4 1725 1782.4 1725 c 0
 1847.4 1725 1887.52 1689 1884.06 1623 c 0
 1876.14 1472 1792.8 1351 1742.25 1226 c 0
 1702.06 1127 1660.51 1021 1623.16 919 c 1
 1706.38 930.667 1780.8 954 1854 954 c 0
 1911.33 954 1938.63 927.94 1934.6 851 c 0
 1928.83 741 1667.78 759 1564.31 750 c 1x9f
 1490.88 532 1441.44 371 1436.41 275 c 0
 1432.85 207 1451.96 171 1499.96 171 c 0
 1750.65 171 1909.18 351.652 2050.57 488 c 0
 2063.2 500 2078.52 506 2094.52 506 c 0
 2130.52 506 2165.95 476 2163.01 420 c 0
 2160.81 378 2142.23 315.382 2073.05 249 c 0
 1933.13 114.732 1703.33 -64 1451.65 -64 c 0
 1278.65 -64 1154.15 41 1163.37 217 c 0
 1172.93 399.368 1238.05 591.39 1285.99 744 c 1xaf
 1112.43 733.347 953.937 723.878 782.472 715 c 1
 691.223 526.599 598.502 339.148 501.438 161 c 0
 439.033 46.4658 348.366 -93 219.126 -93 c 0
 159.863 -93 86.1445 -54.3203 88.6758 -6.02539 c 0
 89.1338 2.72461 92.0957 11.791 98.1006 21 c 0
 226.712 192.795 379.71 401.259 499.947 705 c 1
 310.419 705 143.467 772.16 152.001 935 c 0
 153.521 964 164.308 979 185.308 979 c 0
 227.308 979 254.687 929 281.8 893 c 1
 347.957 896 407.01 897 477.01 897 c 2
 573.01 897 l 1
 629.447 986.153 677.347 1116.57 683.549 1234.91 c 0
 692.192 1399.83 640.909 1543.19 467.664 1543.19 c 0xcf
EndSplineSet
EndChar

StartChar: hyphen
Encoding: 15 45 48
Width: 768
Flags: HW
HStem: 512 192<76.8712 683.99>
VStem: 63 640<531.949 695.012>
LayerCount: 2
Fore
SplineSet
644.896 704 m 2
 696.896 704 738.742 682 735.912 628 c 0
 731.72 548 684.833 512 601.833 512 c 2
 186.833 512 l 2
 118.833 512 92.0859 555 95.5449 621 c 0
 98.6377 680 134.896 704 196.896 704 c 2
 644.896 704 l 2
EndSplineSet
EndChar

StartChar: s
Encoding: 85 115 49
Width: 763
Flags: HW
HStem: -19 170<314.221 444.262> 940 20G<497.5 584.5>
VStem: 458 220<217.183 489.568>
DStem2: 61 354 241 247 0.522487 0.852647<2.81438 314.784>
LayerCount: 2
Fore
SplineSet
253.944 247 m 5
 304.944 247 329.914 151 398.914 151 c 4
 449.914 151 469.215 214 473.355 293 c 4
 477.339 369 451.107 460 430.885 513 c 5
 253.944 247 l 5
414.004 -19 m 4
 259.004 -19 159.148 41 143.434 180 c 5
 126.224 176 108.171 175 89.1709 175 c 4
 30.1709 175 10.5859 202 12.3682 236 c 4
 14.5693 278 55.9277 323 79.5527 354 c 4
 193.361 503 318.109 689 430.28 864 c 4
 460.849 913 509.312 960 586.312 960 c 4
 683.312 960 711.792 931 709.748 892 c 4
 707.441 848 665.402 790 639.148 747 c 6
 594.271 673 l 5
 622.864 608 703.418 485 696.71 357 c 4
 694.246 310 679.73 262 646.32 216 c 5
 814.146 289 919.339 369 1022.48 448 c 4
 1031.79 454 1039.95 457 1046.95 457 c 4
 1073.95 457 1083.75 415 1081.18 366 c 4
 1078.19 309 1068.94 285 1044.84 264 c 4
 869.922 113 618.004 -19 414.004 -19 c 4
EndSplineSet
Substitution2: "Alt swash fin-1" s.fin2
Substitution2: "'swash' ini-1" s.init
Substitution2: "finals" s.fina
EndChar

StartChar: I
Encoding: 43 73 50
Width: 983
Flags: W
HStem: -32 189<80.8055 328.55 612.229 813.172> 1501 229<994.801 1259.38>
LayerCount: 2
Fore
SplineSet
736.773 1484 m 1
 615.092 1471 521.887 1448 428.476 1402 c 1
 420.476 1402 425.821 1504 427.341 1533 c 0
 436.198 1702 830.665 1730 1015.67 1730 c 2
 1030.67 1730 l 2
 1155.67 1730 1294.56 1728 1288.8 1618 c 0
 1283.19 1511 1187.66 1501 1073.66 1501 c 0
 1051.66 1501 1029.72 1502 1007.82 1504 c 1
 868.133 1052 754.759 606 612.229 157 c 1
 692.229 157 864.708 128 860.62 50 c 0
 859.153 22 833.738 -5 784.323 -32 c 1
 471.323 -32 l 2
 446.323 -32 328.271 -33 211.271 -33 c 0
 79.2705 -33 -51.6768 -32 -51.415 -27 c 0
 -50.9434 -18 -3.10938 17 5.51953 29 c 0
 28.249 62 13.3496 83 57.4502 104 c 0
 126.128 136 231.176 156 322.543 163 c 1
 450.864 608 568.338 1075 736.773 1484 c 1
EndSplineSet
EndChar

StartChar: Z
Encoding: 60 90 51
Width: 1265
Flags: HW
HStem: -30 243<621.82 1057.94> 1312 234<670.208 958> 1382 251<343.874 617.673>
LayerCount: 2
Fore
SplineSet
1026.76 1312 m 1xc0
 994.759 1312 961.654 1310 928.654 1310 c 0
 767.275 1310 656.144 1345 542.008 1374 c 0
 525.322 1380 510.428 1382 495.428 1382 c 0
 353.428 1382 360.016 1107 227.016 1107 c 0
 198.016 1107 193.588 1137 195.212 1168 c 0
 206.585 1385 315.582 1633 518.582 1633 c 0xa0
 694.703 1633 798.834 1550 976.075 1547 c 0
 1001.02 1546 1023.02 1546 1045.02 1546 c 2
 1107.02 1546 l 2
 1219.02 1546 1301.65 1558 1386.65 1558 c 0
 1445.65 1558 1463.35 1514 1460.2 1454 c 0
 1456.74 1388 1439.59 1366 1391.23 1340 c 1
 1054.07 1064 779.864 749 529.226 405 c 0
 508.548 373 494.447 352 485.924 342 c 1
 479.718 319 l 1
 566.718 319 665.163 213 772.163 213 c 0
 1010.04 213 1145.07 282.774 1294.92 342 c 0
 1311.4 351 1324.76 358 1339.76 358 c 0
 1402.76 358 1450.2 290 1446.9 227 c 0
 1445.69 204 1440.64 184 1426.01 172 c 0
 1274.83 76.2236 1037.48 -30 771.428 -30 c 0
 679.428 -30 592.101 21 508.935 56 c 0
 459.035 77 400.45 104 335.075 135 c 1
 280.717 90 216.673 51 136.673 51 c 0
 67.6729 51 17.6123 88 21.1758 156 c 0
 25.4727 238 88.4082 294 142.447 352 c 2
 1026.76 1312 l 1xc0
EndSplineSet
EndChar

StartChar: z
Encoding: 92 122 52
Width: 743
Flags: HW
HStem: -2 192<357.502 748.877> 729 195<718.709 819.139> 742 242<167.636 451.855>
LayerCount: 2
Fore
SplineSet
165.896 -2 m 0xc0
 89.8955 -2 51.6729 51 55.6562 127 c 0
 59.0625 192 126.058 211 156.154 251 c 2
 522.205 729 l 1xc0
 479.677 738 440.887 742 407.887 742 c 0
 320.887 742 267.947 705 190.947 705 c 0
 166.947 705 163.311 731 164.725 758 c 0
 171.119 880 200.569 984 316.569 984 c 0xa0
 441.569 984 512.796 912 638.796 912 c 0
 692.796 912 746.425 924 795.425 924 c 0
 856.425 924 875.8 893 872.551 831 c 0
 868.883 761 845.044 745 781.205 729 c 1
 673.4 561 504.068 402 373.364 255 c 1
 367.315 235 l 1
 433.315 235 515.957 190 595.957 190 c 0
 724.957 190 802.626 260 886.142 308 c 0
 910.875 322 936.242 329 962.242 329 c 0
 999.242 329 1022.62 298 1020.68 261 c 0
 1012.08 97 684.896 -2 523.896 -2 c 0
 434.896 -2 347.991 38 275.669 70 c 1
 247.411 46 205.896 -2 165.896 -2 c 0xc0
EndSplineSet
EndChar

StartChar: g
Encoding: 73 103 53
Width: 869
Flags: HW
HStem: -928 192<87.5409 240.159> -2 194<192 411.652> 768 190<457.516 583.204>
VStem: -110 196<-735.77 -584.734> 18 256<201.368 524.198>
LayerCount: 2
Fore
SplineSet
87.4277 -736 m 0xf0
 283.428 -736 380.146 -417 420.584 -256 c 1
 283.972 -344 140.373 -489 67.4062 -641 c 0
 56.2012 -664 50.1533 -684 49.3672 -699 c 0
 48.0566 -724 60.4277 -736 87.4277 -736 c 0xf0
290.98 324 m 0xe8
 287.626 260 298.062 192 362.062 192 c 0
 470.062 192 524.915 380 548.842 474 c 2
 625.249 768 l 1
 438.249 768 300.623 508 290.98 324 c 0xe8
65.3652 -928 m 0
 -70.6348 -928 -155.595 -870 -148.205 -729 c 0xf0
 -140.815 -588 -25.4219 -466 51.1895 -378 c 0
 173.579 -237 320.55 -104 468.629 12 c 1
 500.503 105 l 1
 441.883 55 360.896 -2 268.896 -2 c 0
 114.896 -2 24.4463 123 32.7266 281 c 0
 48.5537 583 254.708 834 470.635 928 c 0
 515.683 948 561.207 958 607.207 958 c 0
 680.207 958 663.224 882 747.224 882 c 0
 762.224 882 777.276 883 792.276 883 c 0
 849.276 883 862.494 849 859.402 790 c 0
 847.388 560.744 780.783 358.405 729.547 144 c 1
 868.582 221 964.924 342 1065 477 c 0
 1069.26 482 1074.42 485 1079.42 485 c 0
 1106.42 485 1141.12 422 1137.45 352 c 0
 1135.72 319 1124.94 285 1101.36 255 c 0
 993.394 122 834.472 9 685.912 -78 c 1
 610.941 -420.909 497.133 -779.792 223.938 -898 c 0
 175.89 -918 122.365 -928 65.3652 -928 c 0
EndSplineSet
Substitution2: "finals" g.fina
EndChar

StartChar: y
Encoding: 91 121 54
Width: 928
Flags: W
HStem: -928 192<97.0409 249.74> -2 194<237.896 460.079> 889 35G<356.925 413.925 827.139 893.639>
VStem: 235.604 236.048<743.474 882.643> 680.249 263.455<718.651 844.054>
DStem2: 466.584 -256 730.34 -108 0.207412 0.978254<-266.826 0 195.567 241.068>
LayerCount: 2
Back
SplineSet
172 -736 m 4xf2
 368 -736 448 -417 480 -256 c 5
 348 -344 212 -489 147 -641 c 4
 137 -664 132 -684 132 -699 c 4
 132 -724 145 -736 172 -736 c 4xf2
320 324 m 4xea
 320 260 334 192 398 192 c 4
 506 192 548 381 570 474 c 6
 640 768 l 6
 658 846 733 909 826 909 c 4
 866 909 899 893 899 853 c 4
 899 718 841 553 819 412 c 5
 802 313 785 207 768 94 c 5
 920 180 1021 316 1126 467 c 5
 1174 245 l 5
 1081 84 895 -31 736 -128 c 5
 679 -450 584 -787 317 -898 c 4
 270 -918 217 -928 160 -928 c 4
 24 -928 -64 -870 -64 -729 c 4xf2
 -64 -588 45 -466 117 -378 c 4
 232 -237 372 -104 514 12 c 5
 541 105 l 5
 485 55 407 -2 315 -2 c 4
 161 -2 64 123 64 281 c 4xea
 64 513 116 677 192 832 c 4
 217 881 275 924 342 924 c 4
 389 924 427 900 427 852 c 4xe6
 427 793 397 751 380 692 c 4
 350 584 320 454 320 324 c 4xea
EndSplineSet
Fore
SplineSet
133.428 -736 m 0
 329.428 -736 426.146 -417 466.584 -256 c 1
 329.972 -344 186.373 -489 113.406 -641 c 0
 102.201 -664 96.1533 -684 95.3672 -699 c 0
 94.0566 -724 106.428 -736 133.428 -736 c 0
336.98 324 m 0
 333.626 260 344.062 192 408.062 192 c 0
 516.062 192 567.968 381 594.842 474 c 2
 680.249 768 l 2
 702.337 846 780.639 909 873.639 909 c 0
 913.639 909 945.8 893 943.704 853 c 0
 936.629 718 870.981 553 840.592 412 c 0
 819.403 313 796.896 227 773.975 114 c 1
 874.167 194 1022.46 314 1127.33 407 c 0
 1134.64 413 1143.64 413 1151.64 413 c 0
 1198.64 413 1242.19 347 1238.88 284 c 0
 1236.79 244 1209.42 218 1163.7 185 c 0
 1030.66 89 830.956 -39 730.34 -108 c 1
 649.893 -460 517.365 -928 111.365 -928 c 0
 -24.6348 -928 -109.595 -870 -102.205 -729 c 0
 -94.8154 -588 20.5781 -466 97.1895 -378 c 0
 219.579 -237 364.978 -134 513.057 -18 c 1
 546.503 105 l 1
 487.883 55 406.896 -2 314.896 -2 c 0
 160.896 -2 70.4463 123 78.7266 281 c 0
 90.8848 513 151.48 677 235.604 832 c 0
 263.171 881 323.425 924 390.425 924 c 0
 437.425 924 474.167 900 471.651 852 c 0
 468.56 793 436.358 751 416.267 692 c 0
 380.606 584 343.793 454 336.98 324 c 0
EndSplineSet
Substitution2: "finals" y.fina
EndChar

StartChar: q
Encoding: 83 113 55
Width: 815
Flags: HW
HStem: -736 192<428.038 547.987> 6 186<727.061 862.355> 156 132<345.406 408.297> 768 192<380.932 567.935>
VStem: 57 224<349.967 666.375> 249 177<-541.987 -276.632> 601 160<-486.823 11.5415>
LayerCount: 2
Fore
SplineSet
434.49 -544 m 0x96
 554.49 -544 581.085 -380 587.584 -256 c 0
 592.771 -157 587.537 -47 570.729 33 c 1
 567.258 24 560.314 6 550.952 -20 c 2
 518.183 -111 l 2
 477.261 -224 406.661 -369 399.901 -498 c 0
 398.591 -523 410.49 -544 434.49 -544 c 0x96
545.249 768 m 0
 411.249 768 314.751 644 307.833 512 c 0
 301.544 392 342.565 297 456.094 288 c 1xba
 521.641 432 555.292 578 607.572 736 c 1
 594.306 750 572.249 768 545.249 768 c 0
687.416 256 m 0
 685.713 223.505 697.243 192 739.062 192 c 0
 870.228 192 1009.8 337.515 1091.75 396 c 0
 1121.35 417.121 1143.55 423.709 1157.35 423.709 c 0
 1174.23 423.709 1180.14 411.422 1179.15 392.488 c 0
 1176.03 332.926 1106.01 206.187 1091.06 192 c 0
 997.952 103.602 884.468 28 726.314 6 c 1
 738.336 -89 749.89 -212 744.229 -320 c 0
 731.966 -554 633.428 -736 402.428 -736 c 0
 284.428 -736 215.826 -633 222.167 -512 c 0xd6
 234.85 -270 349.589 -46 417.385 160 c 1
 402.28 158 387.176 156 371.176 156 c 0
 181.176 156 73.8232 321 83.833 512 c 0
 96.8828 761 307.312 960 555.312 960 c 0
 730.312 960 836.542 869 827.581 698 c 0
 819.981 553 738.383 408 694.622 279 c 0
 689.888 265 687.469 257 687.416 256 c 0
EndSplineSet
EndChar

StartChar: j
Encoding: 76 106 56
Width: 572
Flags: HW
HStem: -608 224<263.618 364.341> 940 20G<305.5 392.5> 1089 319<298.606 549.924>
VStem: 19 224<-371.654 334.088> 241 366<1145.59 1352.11> 403 192<-346.934 255.586>
LayerCount: 2
Fore
SplineSet
470.072 1089 m 0xe8
 363.072 1089 300.745 1140 306.038 1241 c 0
 311.488 1345 400.79 1408 510.79 1408 c 0
 608.79 1408 678.589 1366 673.453 1268 c 0
 667.531 1155 586.072 1089 470.072 1089 c 0xe8
286.875 -384 m 0
 378.875 -384 393.2 -187 399.437 -68 c 2
 401.323 -32 l 2
 410.704 147 363.67 299 328.426 447 c 1
 283.893 246 245.044 39 232.938 -192 c 0xf4
 229.479 -258 233.875 -384 286.875 -384 c 0
527.125 384 m 1
 565.993 267 601.708 128 593.323 -32 c 0
 580.273 -281 494.136 -608 243.136 -608 c 0
 0.135742 -608 5.47852 -258 19 0 c 0
 33.5693 278 124.025 592 212.975 820 c 0
 252.32 922 289.312 960 422.312 960 c 0
 463.312 960 486.844 932 484.905 895 c 0
 481.604 832 448.62 756 427.896 704 c 2
 363.51 544 l 1
 584.344 579 736.051 593.07 918.218 672 c 0
 926.712 675.68 934.155 677.267 940.545 677.267 c 0
 965.693 677.267 974.965 651.616 973.227 618.444 c 0
 963.182 426.778 705.768 386.462 527.125 384 c 1
EndSplineSet
EndChar

StartChar: eight
Encoding: 26 56 57
Width: 967
Flags: HW
HStem: -16.5 206.9<321.68 515.788> 1271.9 178.3<475.763 671.408>
VStem: 51.2002 238.8<216.69 481.142> 178.8 240.692<930.109 1219.5> 579.498 294.702<251.059 512.661> 704.654 247.646<1006.29 1242.02>
LayerCount: 2
Fore
SplineSet
307.211 328.4 m 0xe8
 303.42 256.062 341.609 190.4 409.688 190.4 c 0
 522.475 190.4 593.927 275.312 599.938 390 c 0
 605.143 489.332 561.942 551.551 520.345 605.804 c 1
 419.762 553.475 315.476 486.111 307.211 328.4 c 0xe8
556.735 872.381 m 1
 639.702 917.209 758.157 1020.9 763.618 1125.1 c 0
 768.777 1223.55 713.721 1271.9 643.389 1271.9 c 0
 552.165 1271.9 482.302 1198.49 476.15 1081.1 c 0xd4
 471.627 994.785 509.929 919.472 556.735 872.381 c 1
67.2002 305.306 m 0xe8
 80.5361 559.767 240.518 677.729 388.339 775.018 c 1
 294.855 839.361 228.159 941.829 235.532 1082.51 c 0
 248.617 1332.2 475.373 1450.2 700.088 1450.2 c 0
 861.414 1450.2 1024.73 1381.96 1014.76 1191.76 c 0xd4
 1001.24 933.824 839.102 820.72 663.897 734.742 c 1
 768.824 644.494 902.172 533.73 891.574 331.527 c 0
 879.705 105.05 681.182 -16.5 446.2 -16.5 c 0
 217.972 -16.5 55.1631 75.6084 67.2002 305.306 c 0xe8
EndSplineSet
EndChar

StartChar: nine
Encoding: 27 57 58
Width: 1209
Flags: HW
HStem: 495 178<346 644.333> 1234 187<530.819 764.412>
VStem: 96 295<735.616 1068.93> 843 284<773.822 1153.75>
LayerCount: 2
Fore
SplineSet
621.271 673 m 0
 813.271 673 884.297 788 893.573 965 c 0
 900.753 1102 859.671 1234 717.671 1234 c 0
 551.671 1234 445.399 1038 436.805 874 c 0
 430.201 748 491.271 673 621.271 673 c 0
465.941 495 m 0
 277.941 495 130.17 652 142.8 893 c 0
 159.204 1206 423.472 1421 732.472 1421 c 0
 1020.47 1421 1191.67 1234 1175.01 916 c 0
 1147.81 397 731.354 64 371.444 -106 c 0
 340.711 -120 315.135 -131 281.135 -131 c 0
 218.135 -131 175.916 -97 178.589 -46 c 0
 181.157 3 211.939 37 254.249 62 c 0
 484.114 193 655.443 371 784.654 604 c 1
 704.72 548 607.941 495 465.941 495 c 0
EndSplineSet
EndChar

StartChar: question
Encoding: 33 63 59
Width: 1292
Flags: HW
HStem: 0 353<450.763 687.2> 1399 203<656.276 871.203>
VStem: 394 352<58.8001 295.029> 917 244<1089.46 1351.15>
LayerCount: 2
Fore
SplineSet
595.5 353 m 0
 703.5 353 761.565 297 756.01 191 c 0
 749.983 76 677 0 558 0 c 0
 452 0 396.883 55 402.49 162 c 0
 408.517 277 478.5 353 595.5 353 c 0
866.957 1602 m 0
 1074.96 1602 1238.35 1476 1227.24 1264 c 0
 1209.9 933 995.441 848 820.952 686 c 0
 789.432 657 759.702 624 741.606 584 c 0
 720.091 536 689.47 486 633.47 486 c 0
 587.47 486 546.413 504 548.824 550 c 0
 564.756 854 830.058 917 946.487 1116 c 0
 968.426 1153 979.68 1196 982.248 1245 c 0
 987.436 1344 918.318 1399 820.318 1399 c 0
 699.318 1399 689.985 1240 575.985 1240 c 0
 512.985 1240 477.444 1306 480.799 1370 c 0
 488.24 1512 725.957 1602 866.957 1602 c 0
EndSplineSet
EndChar

StartChar: six
Encoding: 24 54 60
Width: 1166
Flags: HW
HStem: -31 187<444.616 678.116> 717 178<564.5 863.249>
VStem: 82 284.291<236.223 616.115> 818 294.882<320.887 654.462>
LayerCount: 2
Back
SplineSet
429 167 m 0
 552 167 625 308 625 432 c 0
 625 499 604 566 547 566 c 0
 446 566 468 398 394 398 c 0
 381 398 376 458 376 480 c 0
 376 623 491 717 633 717 c 0
 789 717 874 603 874 442 c 0
 874 189 683 0 425 0 c 0
 180 0 35 150 35 400 c 0
 35 806 360 1065 642 1197 c 0
 665 1207 686 1217 715 1217 c 0
 767 1217 809 1188 809 1140 c 0
 809 1097 783 1067 750 1047 c 0
 569 936 404 770 321 562 c 0
 294 495 281 428 281 361 c 0
 281 252 320 167 429 167 c 0
EndSplineSet
Fore
SplineSet
660.361 717 m 4
 468.638 717 397.824 601.697 388.564 425 c 4
 381.369 287.706 422.617 156 564.326 156 c 4
 730.494 156 836.444 351.931 845.042 516 c 4
 851.671 642.482 790.305 717 660.361 717 c 4
815.905 895 m 4
 1004.4 895 1151.57 738.158 1138.92 496.775 c 4
 1122.49 183.449 858.017 -31 549.051 -31 c 4
 261.221 -31 90.1826 156.127 106.841 474 c 4
 134.037 992.933 550.618 1326.63 910.584 1496.32 c 4
 940.855 1510.59 966.45 1521 1000.71 1521 c 4
 1063.82 1521 1105.94 1487.16 1103.26 1436 c 4
 1100.68 1386.89 1069.7 1352.38 1027.77 1327.8 c 4
 797.415 1196.73 626.083 1019.08 496.746 785.773 c 5
 576.731 841.472 674.005 895 815.905 895 c 4
EndSplineSet
EndChar

StartChar: eth
Encoding: 174 240 61
Width: 1089
Flags: HW
HStem: 0 192<374.292 647.247> 767 224<488.331 844.341> 1506 223<368.615 631.568>
VStem: 64 226<277.419 574.795> 872 254<961 1212.62>
DStem2: 743 1384 837 1216 0.917695 0.397285<-224.867 0 262.6 479.3>
LayerCount: 2
Fore
SplineSet
311.802 416 m 0
 303.94 266 398.062 192 552.062 192 c 0
 744.062 192 844.296 559 885.205 729 c 1
 836.463 753 780.197 767 701.197 767 c 0
 510.197 767 321.812 607 311.802 416 c 0
815.532 1384 m 1
 747.567 1461 647.926 1506 504.926 1506 c 0
 454.926 1506 428.123 1567 430.796 1618 c 0
 434.884 1696 500.613 1729 581.613 1729 c 0
 813.613 1729 955.849 1619 1048.72 1483 c 1
 1217.49 1555 l 2
 1231.81 1561 1249.12 1567 1269.12 1567 c 0
 1321.12 1567 1346.66 1520 1343.83 1466 c 0
 1341.1 1414 1301.64 1386 1253.59 1366 c 2
 1130.86 1314 l 1
 1165.57 1213 1183.28 1093 1176.21 958 c 0
 1153.88 532 988.438 161 683.782 34 c 0
 628.576 11 571 0 510 0 c 0
 252 0 72.0186 153 85.8018 416 c 0
 100.318 693 343.905 895 556.679 967 c 0
 603.517 983 650.937 991 696.937 991 c 0
 784.937 991 858.412 981 922.364 961 c 1
 922.73 968 l 2
 927.709 1063 919.954 1144 900.728 1216 c 1
 837.365 1190 775.95 1163 712.535 1136 c 0
 697.168 1129 682.011 1126 668.011 1126 c 0
 613.011 1126 572.998 1183 575.776 1236 c 0
 577.925 1277 608.973 1297 645.812 1313 c 2
 815.532 1384 l 1
EndSplineSet
EndChar

StartChar: T
Encoding: 54 84 62
Width: 1366
Flags: HW
HStem: 1551 207<446.253 761 976.962 1478.45>
VStem: -14 321<1266.93 1444.39>
LayerCount: 2
Fore
SplineSet
211.566 1232 m 0
 117.566 1232 52.9248 1277 57.2744 1360 c 0
 77.6611 1749 626.133 1758 1025.13 1758 c 0
 1343.24 1758 1636.59 1739.59 1923.73 1693 c 0
 1975.57 1684.59 2008.68 1654 2005.8 1599 c 0
 2002.76 1541 1948.67 1482 1890.09 1490 c 0
 1615.59 1525 1349.1 1539 1064.28 1551 c 1
 904.073 962.997 791.271 556.835 657.298 82 c 4
 637.177 15.6006 576.432 -74 494.122 -74 c 4
 417.122 -74 364.956 -39 369.097 40 c 4
 369.777 53 372.285 67.0625 377.298 82 c 4
 510.734 505.368 668.047 996.527 842.284 1551 c 1
 675.604 1538 387.394 1534 378.274 1360 c 0
 373.925 1277 303.566 1232 211.566 1232 c 0
EndSplineSet
EndChar

StartChar: L
Encoding: 46 76 63
Width: 1122
Flags: HW
HStem: -170 246<364 1009.06> 1744 218<883.25 1137.5>
VStem: 211 257<90.2969 266> 1033 251<1431.28 1741.73>
LayerCount: 2
Fore
SplineSet
1118.69 1635 m 0
 1121.67 1692 1113.4 1744 1066.4 1744 c 0
 1000.4 1744 936.363 1667 894.639 1615 c 0
 725.737 1407 574.246 1016 527.532 678 c 1
 719.438 867 946.579 1175 1067.21 1435 c 0
 1098.77 1503 1114.39 1553 1118.69 1635 c 0
-5.23926 129 m 0
 -59.2393 129 -90.3086 204 -87.374 260 c 0
 -83.0244 343 4.28613 368 62.2256 405 c 0
 123.27 444 194.784 492 254.985 534 c 1
 342.924 1048 526.547 1556 841.382 1820 c 0
 927.155 1892 1031.82 1962 1158.82 1962 c 0
 1321.82 1962 1379.7 1826 1370.89 1658 c 0
 1357.74 1407 1227.36 1209 1108.03 1050 c 0
 951.022 840 724.453 562 496.326 426 c 1
 487.984 305 480.211 233 474.813 130 c 0
 472.717 90 518.983 76 580.983 76 c 0
 670.983 76 792.031 96 858.398 103 c 2
 1185.29 139 l 2
 1194.39 141 1205.49 143 1216.49 143 c 0
 1281.49 143 1310.82 92 1307.47 28 c 0
 1304.11 -36 1261.75 -81 1205.23 -91 c 0
 980.135 -131 747.091 -170 448.091 -170 c 0
 262.091 -170 211.576 11 224.94 266 c 1
 165.739 224 115.01 191 73.6992 166 c 0
 32.3896 141 5.76074 129 -5.23926 129 c 0
EndSplineSet
EndChar

StartChar: x
Encoding: 90 120 64
Width: 1025
Flags: W
HStem: 0 242<202.878 316.76> 0 223<685.5 944.333> 876 20G<451.957 523.957 948.405 996.905>
LayerCount: 2
Fore
SplineSet
510.315 235 m 1x60
 445.281 164.505 336.457 0 224 0 c 0
 76 0 34.918 132 36.2549 272 c 1
 184.762 358 l 1
 190.823 321 203.683 242 246.683 242 c 0xa0
 307.181 242 386.61 381.1 423.535 430 c 1
 383.091 536 350.96 648 321.406 771 c 0
 320.616 775 319.773 778 319.931 781 c 0
 323.022 840 420.957 896 482.957 896 c 0
 564.957 896 589.943 724 616.223 653 c 1
 693.258 730 780.031 802 877.28 864 c 0
 904.171 881 930.905 895 965.905 895 c 0
 1027.91 895 1057.13 842 1053.88 780 c 0
 1051.36 732 1028.27 692 995.218 672 c 0
 887.759 606 790.409 523 702.85 436 c 1
 728.811 378 783.687 223 856.687 223 c 0
 980.31 223 1121.02 355.597 1186.22 424 c 0
 1212.79 451.872 1232.22 463.284 1245.98 463.284 c 0
 1269.29 463.284 1276.31 430.523 1274.17 389.552 c 0
 1271.03 329.741 1248.35 252.433 1228.26 234 c 0
 1116.01 130.983 940 0 736 0 c 0
 635 0 561.232 138 510.315 235 c 1x60
EndSplineSet
EndChar

StartChar: exclam
Encoding: 3 33 65
Width: 1011
Flags: HW
HStem: -2 355<349.763 578.792>
VStem: 293 345<56.8189 297.163> 475 120<496.38 532> 755 295.526<1644.59 1797.98>
LayerCount: 2
Fore
SplineSet
648.01 191 m 0xd0
 642.245 81 572.896 -2 456.896 -2 c 0
 350.896 -2 295.883 55 301.49 162 c 0
 307.517 277 377.5 353 494.5 353 c 0
 598.5 353 653.46 295 648.01 191 c 0xd0
1025.17 1862.01 m 0
 1103.13 1862.01 1145.98 1821.23 1142.87 1761.99 c 0
 1138.74 1683.06 1071.59 1579.88 1054.71 1540 c 2
 622.881 532 l 2
 611.892 507.2 579.38 492 546.784 492 c 0
 521.784 492 501.458 504.857 503.143 537 c 0xb0
 503.3 540 503.91 545.126 505.929 552 c 2
 844.303 1704 l 2
 869.44 1789.97 933.414 1862.01 1025.17 1862.01 c 0
EndSplineSet
EndChar

StartChar: dollar
Encoding: 6 36 66
Width: 1735
Flags: HW
HStem: 4 206<612.556 770 1033 1114.77> 598 180<537.506 716.424> 1523 205<1293 1381.58> 1531 212<881.891 1046>
VStem: 257 239<305.195 557.621> 496 271<1204.72 1435.72> 754 208<-214.266 -80.5856> 1297 240<362.911 632.619> 1457 240<1258.72 1458.44>
DStem2: 770 4 992 4 0.172308 0.985043<-116.967 0 262.026 786.974 1094.49 1551.72 1786.2 1966.46>
LayerCount: 2
Fore
SplineSet
1126.24 1531 m 1xd4
 990.503 1517 843.725 1464 836.388 1324 c 0
 829.784 1198 943.325 1132 1021.65 1081 c 1
 1056.51 1231 1093.64 1386 1126.24 1531 c 1xd4
1044.74 224 m 1
 1182.52 258 1314.87 341 1323.57 507 c 0xc1
 1329.86 627 1235.21 691 1162.83 741 c 1
 1044.74 224 l 1
967.704 853 m 1
 805.315 941 550.976 1049 563.815 1294 c 0
 579.171 1587 882.718 1731 1175.35 1743 c 1xd4
 1204.11 1872 l 1
 1217.57 1938 1275.98 1984 1353.98 1984 c 0
 1394.98 1984 1418.93 1945 1416.89 1906 c 0
 1415.37 1877 1408.8 1847 1403.38 1820 c 2
 1383.56 1728 l 1
 1567.62 1691 1780.33 1590 1769.01 1374 c 0
 1764.82 1294 1725.3 1227 1648.3 1227 c 0
 1569.3 1227 1524.76 1293 1529.01 1374 c 0xe480
 1533.67 1463 1427.93 1506 1338.82 1523 c 1
 1213.63 966 l 1
 1369.75 873 1576.52 754 1563.57 507 c 0
 1546.54 182 1293.62 31 992.21 4 c 1
 953.72 -158 l 1
 937.309 -204 907.208 -225 850.208 -225 c 0
 838.208 -225 827.261 -224 815.261 -224 c 0
 764.261 -224 745.248 -167 748.025 -114 c 0
 750.331 -70 760.061 -37 770.21 4 c 1
 506.362 26 263.971 133 278.854 417 c 0
 290.279 635 434.773 778 657.773 778 c 0
 722.773 778 771.939 743 768.638 680 c 0
 766.122 632 730.34 598 678.34 598 c 0
 574.34 598 523.724 529 518.012 420 c 0xeb
 510.15 270 662.635 222 818.006 210 c 1
 967.704 853 l 1
EndSplineSet
EndChar

StartChar: slash
Encoding: 17 47 67
Width: 1248
Flags: HW
HStem: -33 21G<305 386.5>
LayerCount: 2
Fore
SplineSet
339.271 -33 m 0
 267.271 -33 221.057 -18 224.883 55 c 0
 229.966 152 277.006 210 319.46 295 c 0
 546.568 755 784.934 1239 1016.88 1696 c 0
 1061.39 1782 1156.27 1856 1281.27 1856 c 0
 1337.27 1856 1343.07 1814 1340.24 1760 c 0
 1337.83 1714 1298.94 1659 1281.01 1622 c 0
 1024.64 1119 795.506 563 517.354 64 c 0
 482.104 2 430.271 -33 339.271 -33 c 0
EndSplineSet
EndChar

StartChar: bracketleft
Encoding: 61 91 68
Width: 927
Flags: HW
HStem: -192 224<459 775.5> 1443 224<672 1054.36>
DStem2: 228 258 459 32 0.145047 0.989425<-190.104 1118.43>
LayerCount: 2
Fore
SplineSet
342.938 -192 m 2
 235.938 -192 167.824 -156 173.223 -53 c 0
 179.092 59 216.704 147 241.521 258 c 0
 325.331 636 382.718 1025 466.157 1415 c 0
 497.913 1563 574.363 1667 759.363 1667 c 2
 1077.36 1667 l 2
 1136.36 1667 1172.8 1618 1169.81 1561 c 0
 1166.56 1499 1095.62 1443 1033.62 1443 c 2
 747.624 1443 l 1
 735.833 1218 650.154 957 604.258 730 c 0
 556.994 496 508.521 258 460.677 32 c 1
 746.677 32 l 2
 792.677 32 827.738 -5 825.327 -51 c 0
 821.711 -120 733.938 -192 660.938 -192 c 2
 342.938 -192 l 2
EndSplineSet
EndChar

StartChar: zero
Encoding: 18 48 69
Width: 1203
Flags: HW
HStem: -19 207.9<434.455 618.484> 1229.5 217.8<586.6 791.125>
VStem: 44 337.7<273.89 857.921> 852.5 317.9<610.92 1164.52>
LayerCount: 2
Fore
SplineSet
408.145 504.6 m 0
 401.919 385.8 405.899 188.9 524.7 188.9 c 0
 764.5 188.9 890.532 725.7 901.716 939.1 c 0
 907.942 1057.9 896.035 1229.5 761.835 1229.5 c 0
 523.136 1229.5 419.617 723.5 408.145 504.6 c 0
778.75 1447.3 m 0
 1103.25 1447.3 1233.8 1209.7 1217.66 901.7 c 0
 1194.77 465 934.004 -19 490.704 -19 c 0
 175.004 -19 57.1855 251.6 72.9238 551.9 c 0
 95.6953 986.4 338.75 1447.3 778.75 1447.3 c 0
EndSplineSet
EndChar

StartChar: OE
Encoding: 193 338 70
Width: 2306
Flags: HW
HStem: -192 224<588.805 940.152> -96 224<1563.4 2039.58> 736 192<1568 2141.78> 1557 213<1800.53 2226.5> 1664 192<853.351 1199.38>
VStem: 96 256<315.294 910.94>
DStem2: 1376 1280 1568 928 0.202606 0.97926<-305.799 105.318>
LayerCount: 2
Fore
SplineSet
382.554 583 m 0xac
 367.303 292 481.677 32 767.677 32 c 0
 986.677 32 1115.8 206 1202.45 352 c 1
 1443.08 1280 l 1
 1429.88 1486 1346.21 1664 1121.21 1664 c 0
 884.207 1664 724.201 1454 622.764 1293 c 0
 504.963 1106 397.28 864 382.554 583 c 0xac
1485.44 390 m 0
 1475.95 209 1571.71 128 1750.71 128 c 0
 2038.71 128 2303.26 253 2467.54 392 c 0
 2501.01 420 2527.48 448 2546 477 c 1
 2603.1 250 l 1
 2410.93 56 2108.97 -96 1744.97 -96 c 0x74
 1532.97 -96 1370.64 -26 1285.03 96 c 1
 1183.86 -60 975.938 -192 731.938 -192 c 0
 288.938 -192 105.8 187 129.174 633 c 0
 157.736 1178 423.739 1636 816.438 1802 c 0
 901.325 1838 993.269 1856 1092.27 1856 c 0xac
 1352.27 1856 1537.77 1713 1616.5 1536 c 1
 1721.68 1673 1866.76 1770 2077.76 1770 c 0
 2297.76 1770 2470.68 1673 2610.18 1568 c 1
 2504.11 1376 l 1
 2410.3 1475 2270.6 1557 2079.6 1557 c 0x34
 1877.6 1557 1740.15 1453 1699.08 1280 c 2
 1616.63 928 l 1
 2128.63 928 l 2
 2176.63 928 2204.33 884 2201.81 836 c 0
 2198.25 768 2142.57 736 2072.57 736 c 2
 1574.57 736 l 1
 1540.7 624 1491.83 512 1485.44 390 c 0
EndSplineSet
EndChar

StartChar: oe
Encoding: 194 339 71
Width: 1301
Flags: HW
HStem: 0 212<900.509 1185.49> 0 192<331.865 512.457> 768 190<397.077 568.799 920.937 1081.06>
VStem: 64 224<239.627 618.004> 608 239<471.081 684.779> 1091 184<572.291 765>
LayerCount: 2
Fore
SplineSet
1125.85 665 m 0x3c
 1128.26 711 1114.25 768 1074.25 768 c 0
 924.249 768 879.388 618 871.632 470 c 1
 970.632 470 1120.82 569 1125.85 665 c 0x3c
308.754 396 m 0
 303.041 287 334.062 192 443.062 192 c 0x7c
 561.062 192 630.273 425 636.877 551 c 0
 642.065 650 627.249 768 531.249 768 c 0
 396.249 768 316.195 538 308.754 396 c 0
1007.11 212 m 0xbc
 1200.11 212 1381.6 355 1489.85 455 c 1
 1611.82 321 l 1
 1461.07 173 1259 0 980 0 c 0xbc
 829 0 740.346 102 715.739 224 c 1
 658.236 119 545 0 394 0 c 0x7c
 163 0 74.7959 206 86.9023 437 c 0
 99.3232 674 255.438 867 428.106 937 c 0
 462.84 951 497.207 958 531.207 958 c 0
 659.207 958 728.595 870 776.249 768 c 1
 845.905 895 941.259 959 1062.26 959 c 0
 1216.26 959 1320.23 863 1312.16 709 c 0
 1300.47 486 1068.5 353 885.88 303 c 1
 910.364 255 936.11 212 1007.11 212 c 0xbc
EndSplineSet
EndChar

StartChar: fraction
Encoding: 223 8260 72
Width: 1248
Flags: HW
HStem: -33 21G<305 386.5>
LayerCount: 2
Fore
SplineSet
339.271 -33 m 0
 267.271 -33 221.057 -18 224.883 55 c 0
 229.966 152 277.006 210 319.46 295 c 0
 546.568 755 784.934 1239 1016.88 1696 c 0
 1061.39 1782 1156.27 1856 1281.27 1856 c 0
 1337.27 1856 1343.07 1814 1340.24 1760 c 0
 1337.83 1714 1298.94 1659 1281.01 1622 c 0
 1024.64 1119 795.506 563 517.354 64 c 0
 482.104 2 430.271 -33 339.271 -33 c 0
EndSplineSet
EndChar

StartChar: numbersign
Encoding: 5 35 73
Width: 1248
Flags: HW
HStem: 448 224<193.82 317 676 900 1241 1353.22> 960 224<379.5 545 894 1083 1413 1564.87>
VStem: 779 228<-8.22784 165.361>
DStem2: 317 447 387 51 0.406972 0.913441<-431.362 0 348.887 561.385 908.029 1282.65> 900 447 1007 55 0.334863 0.942267<-403.887 0 867.178 1242.53>
LayerCount: 2
Fore
SplineSet
850.312 960 m 1
 804.228 863 759.249 768 711.061 669 c 1
 863.061 669 l 2
 913.061 669 964.061 669 1015.11 670 c 1
 1034.58 717 1054.09 765 1073.66 814 c 2
 1133.31 960 l 1
 850.312 960 l 1
195.139 556 m 0
 200.484 658 307.218 672 413.218 672 c 2
 451.218 672 l 1
 595.312 960 l 1
 533.312 960 l 2
 460.312 960 401.094 994 404.972 1068 c 0
 410.736 1178 541.051 1184 653.051 1184 c 2
 706.051 1184 l 1
 860.088 1490 l 1
 893.861 1562 970.478 1631 1072.48 1631 c 0
 1121.48 1631 1127.54 1594 1125.02 1546 c 0
 1124.13 1529 1111.98 1507 1104.14 1491 c 0
 1095.2 1473 1097.2 1473 1088.25 1455 c 0
 1046.59 1366 1001.03 1279 956.051 1184 c 1
 1044.05 1184 1136.1 1185 1225.1 1185 c 1
 1292.86 1352 1335.69 1635 1553.69 1635 c 0
 1606.69 1635 1616.64 1596 1614.23 1550 c 0
 1609.88 1467 1555.9 1391 1526.02 1317 c 0
 1509.87 1276 1492.57 1232 1475.1 1185 c 1
 1601.1 1185 l 2
 1650.1 1185 1682.32 1170 1679.85 1123 c 0
 1673.04 993 1561.31 960 1425.31 960 c 2
 1389.31 960 l 1
 1353.28 864 1315.3 769 1276.27 673 c 1
 1363.27 673 l 1
 1408.06 669 1444.33 655 1441.92 609 c 0
 1435.21 481 1321.48 448 1187.48 448 c 2
 1184.48 448 l 1
 1128.56 316 1070.75 186 1009.88 55 c 0
 986.157 3 952.375 -31 883.375 -31 c 0
 817.375 -31 778.581 -8 782.145 60 c 0
 783.664 89 793.604 126 812.014 172 c 2
 923.426 447 l 1
 818.374 446 708.321 445 599.321 445 c 1
 531.403 313 462.538 182 389.673 51 c 0
 361.053 1 327.166 -35 255.166 -35 c 0
 196.166 -35 158.109 -17 161.254 43 c 0
 163.664 89 181.708 128 201.805 168 c 2
 340.426 447 l 1
 334.426 447 329.479 448 323.479 448 c 0
 250.479 448 191.261 482 195.139 556 c 0
EndSplineSet
EndChar

StartChar: percent
Encoding: 7 37 74
Width: 2208
Flags: HW
HStem: 64 192<1612.41 1782.77> 672 192<399.681 571.783> 928 192<1677.42 1854.75> 1536 192<462.762 660.542>
VStem: 94 256<916.048 1383.2> 706 244<1066.91 1490.13> 1312 256<298.256 766.791> 1900 246<422.72 885.994>
LayerCount: 2
Fore
SplineSet
1593.89 494 m 0
 1588.6 393 1603.42 256 1700.42 256 c 0
 1845.42 256 1926.62 508 1934.38 656 c 0
 1940.09 765 1934.63 928 1830.63 928 c 0
 1661.63 928 1603.17 671 1593.89 494 c 0
1866.7 1120 m 0
 2107.7 1120 2194.06 917 2181.32 674 c 0
 2166.86 398 2009.96 171 1808.72 90 c 0
 1765.83 73 1720.35 64 1672.35 64 c 0
 1436.35 64 1324.94 247 1337.26 482 c 0
 1354.76 816 1533.7 1120 1866.7 1120 c 0
672 0 m 0
 609 0 581.782 34 585.031 96 c 0
 590.639 203 635.102 250 681.399 332 c 0
 934.931 781 1200.61 1252 1460.88 1696 c 0
 1497.08 1757 1565.92 1792 1661.92 1792 c 0
 1696.92 1792 1705.45 1764 1703.67 1730 c 0
 1700.94 1678 1683.32 1628 1663.43 1592 c 0
 1398.12 1109 1146.66 566 869.031 96 c 0
 833.887 36 761 0 672 0 c 0
409.797 1141 m 0
 404.032 1031 415.28 864 518.28 864 c 0
 676.28 864 766.321 1151 774.864 1314 c 0
 780.681 1425 757.498 1536 648.498 1536 c 0
 485.498 1536 418.654 1310 409.797 1141 c 0
684.561 1728 m 0
 927.561 1728 1031.44 1554 1018.76 1312 c 0
 1003.61 1023 843.088 784 632.633 699 c 0
 587.689 681 540.218 672 490.218 672 c 0
 248.218 672 139.962 877 152.696 1120 c 0
 169.781 1446 358.561 1728 684.561 1728 c 0
EndSplineSet
EndChar

StartChar: bar
Encoding: 94 124 75
Width: 1248
Flags: HW
HStem: -32 1888<579 892>
VStem: 472 515
LayerCount: 2
Fore
SplineSet
581.746 -43 m 1
 571.746 -43 475.354 64 478.761 129 c 0
 491.548 373 577.331 636 627.962 877 c 0
 685.164 1148 747.101 1433 803.884 1696 c 0
 822.548 1785 889.269 1856 989.269 1856 c 0
 1049.27 1856 1081.18 1797 1078.14 1739 c 0
 1066.61 1519 992.078 1299 947.601 1080 c 0
 883.092 765 819.111 441 756.708 128 c 0
 740.254 43 669.323 -32 577.323 -32 c 1
 581.009 -38 581.852 -41 581.746 -43 c 1
581.746 -43 m 1
 581.694 -44 582.746 -43 581.746 -43 c 1
EndSplineSet
EndChar

StartChar: quotedbl
Encoding: 4 34 76
Width: 1184
Flags: HW
VStem: 192 236<1198.55 1825.37> 576 247<1364.68 1820.68>
LayerCount: 2
Fore
SplineSet
723.482 1135 m 4
 672.482 1135 645.684 1177 648.619 1233 c 4
 657.633 1405 657.704 1559 666.561 1728 c 0
 670.858 1810 748.269 1856 821.269 1856 c 0
 873.269 1856 918.645 1825 915.343 1762 c 0
 915.08 1757 914.818 1752 913.557 1747 c 0
 882.865 1543 854.956 1373 820.462 1230 c 4
 807.841 1180 770.482 1135 723.482 1135 c 4
369.482 1135 m 4
 318.482 1135 298.684 1177 294.619 1233 c 4
 286.479 1383 273.704 1559 282.561 1728 c 0
 286.858 1810 354.269 1856 417.269 1856 c 0
 479.269 1856 523.382 1820 519.557 1747 c 0
 510.647 1577 481.956 1373 456.462 1230 c 4
 446.841 1180 411.482 1135 369.482 1135 c 4
EndSplineSet
EndChar

StartChar: X
Encoding: 58 88 77
Width: 1536
Flags: HW
HStem: -64 223<1191.6 1371.93> 1412 298<1416.67 1582> 1472 256<325.355 509.849>
VStem: 1461 210<1314.26 1411.98>
LayerCount: 2
Fore
SplineSet
134.497 -105 m 0xd0
 56.4971 -105 -0.930664 -75 2.73828 -5 c 0
 6.51172 67 71.708 128 119.643 184 c 0
 322.012 420 541.061 669 743.324 903 c 1
 735.949 934 l 1
 716.588 1137 693.145 1472 467.145 1472 c 0
 404.145 1472 301.815 1294 273.195 1244 c 0
 261.147 1224 250.623 1214 241.623 1214 c 0
 194.623 1214 186.428 1382 189.258 1436 c 0
 198.586 1614 295.561 1728 470.561 1728 c 0xb0
 837.561 1728 934.891 1429 983.487 1116 c 1
 1115.18 1301 1270.83 1485 1445.01 1622 c 0
 1494 1660 1554.62 1710 1620.62 1710 c 0
 1722.62 1710 1752.6 1557 1746.99 1450 c 0
 1740.6 1328 1664.88 1257 1546.88 1257 c 0
 1527.88 1257 1528.55 1289 1530.39 1324 c 2
 1531.75 1350 l 2
 1533.48 1383 1533 1412 1517 1412 c 0
 1445 1412 1365.08 1299 1321.51 1250 c 0
 1226.9 1143 1133.4 1019 1047.22 901 c 1
 1087.47 715 1105.72 529 1142.34 350 c 0
 1161.31 254 1189.33 159 1303.33 159 c 0
 1437.33 159 1535.72 300 1616.8 416 c 1
 1627.33 426 1638.59 431 1651.59 431 c 0
 1704.59 431 1743.08 364 1740.25 310 c 0
 1739.15 289 1729.31 273 1715.47 257 c 0
 1604.02 134 1474.58 11 1311.69 -44 c 0
 1271.96 -58 1235.65 -64 1203.65 -64 c 0
 936.646 -64 901.434 180 857.016 401 c 0
 842.051 478 825.768 568 809.166 671 c 1
 591.286 368 l 2
 496.368 236 395.979 95 300.375 -31 c 0
 268.227 -72 203.497 -105 134.497 -105 c 0xd0
EndSplineSet
EndChar

StartChar: Euro
Encoding: 225 8364 78
Width: 1857
Flags: HW
HStem: -192 254<707.482 982.867> 512 192<-51.1288 97 413 876.99> 832 192<13.8712 153 521 941.99> 1568 224<911.738 1268.94>
VStem: 96 288<318.333 511.672> 1333 239<1208.53 1508.97>
LayerCount: 2
Fore
SplineSet
837.896 704 m 2
 889.896 704 931.742 682 928.912 628 c 0
 924.72 548 877.833 512 794.833 512 c 2
 411.833 512 l 1
 410.466 505 410.099 498 409.784 492 c 2
 408.736 472 l 2
 395.372 217 638.481 200 755.249 62 c 1
 1007.25 62 1220.8 187 1368.98 305 c 0
 1384.67 318 1403.82 321 1421.82 321 c 0
 1476.82 321 1518.52 277 1515.58 221 c 0
 1513.49 181 1489.02 153 1461.87 131 c 0
 1273.69 -25 1014.94 -192 689.938 -192 c 0
 286.938 -192 99.8262 73 121.261 482 c 2
 122.047 497 l 2
 122.309 502 122.57 507 123.833 512 c 1
 58.833 512 l 2
 -9.16699 512 -35.9141 555 -32.4551 621 c 0
 -29.3623 680 6.89551 704 68.8955 704 c 2
 157.896 704 l 1
 168.254 749 181.402 790 196.604 832 c 1
 140.604 832 l 2
 72.6035 832 45.8564 875 49.3154 941 c 0
 52.4082 1000 88.666 1024 150.666 1024 c 2
 276.666 1024 l 1
 433.384 1343 668.63 1653 1021.34 1762 c 0
 1085.39 1782 1149.92 1792 1216.92 1792 c 0
 1490.92 1792 1659.47 1669 1645.63 1405 c 0
 1638.45 1268 1585.33 1132 1518.45 1058 c 0
 1498.29 1036 1480.77 1026 1465.77 1026 c 0
 1412.77 1026 1324.03 1050 1326.75 1102 c 2
 1327.07 1108 l 2
 1331.89 1200 1400.19 1282 1405.85 1390 c 0
 1413.03 1527 1312.18 1568 1170.18 1568 c 0
 948.176 1568 796.113 1376 696.462 1230 c 0
 651.003 1164 610.438 1096 574.666 1024 c 1
 919.666 1024 l 2
 971.666 1024 1013.51 1002 1010.68 948 c 0
 1006.49 868 959.604 832 876.604 832 c 2
 491.604 832 l 1
 475.402 790 462.254 749 449.896 704 c 1
 837.896 704 l 2
EndSplineSet
EndChar

StartChar: equal
Encoding: 31 61 79
Width: 1707
Flags: W
HStem: 382 225<409.007 1587.13>
LayerCount: 2
Fore
SplineSet
503.02 382 m 2
 430.02 382 370.802 416 374.68 490 c 0
 380.444 600 510.759 606 622.759 606 c 2
 883.759 606 l 2
 996.759 606 1123.81 607 1239.81 607 c 2
 1570.81 607 l 2
 1619.81 607 1652.03 592 1649.56 545 c 0
 1642.75 415 1531.02 382 1395.02 382 c 2
 503.02 382 l 2
EndSplineSet
EndChar

StartChar: ampersand
Encoding: 8 38 80
Width: 1523
Flags: HW
HStem: 0 202<392.25 822.501> 1440 212<676.791 909.102>
VStem: 64 258<268.324 531.25> 353 277<1063.35 1389.09> 928 187<1178.24 1421.86> 1269 212<482.723 631.048>
LayerCount: 2
Fore
SplineSet
997.807 1332 m 0
 1002.1 1414 953.467 1440 869.467 1440 c 0
 755.467 1440 701.327 1361 695.824 1256 c 0
 691.632 1176 715.601 1080 763.041 993 c 1
 857.338 1075 989.422 1172 997.807 1332 c 0
341.968 381 m 0
 335.207 252 443.586 202 576.586 202 c 0
 685.586 202 779.844 226 852.207 252 c 1
 739.226 405 659.667 547 573.467 734 c 1
 474.589 660 350.51 544 341.968 381 c 0
1593.08 -132 m 0
 1591.14 -169 1497.53 -238 1357.53 -238 c 0
 1295.53 -238 1220.84 -232 1170.62 -179 c 0
 1023.74 -24 961.459 66 962.088 78 c 1
 864.782 34 729 0 558 0 c 0
 301 0 69.084 97 82.0811 345 c 0
 95.5498 602 334.935 762 515.913 857 c 1
 467.154 957 410.387 1095 418.091 1242 c 0
 430.196 1473 636.578 1652 868.578 1652 c 0
 1056.58 1652 1195.76 1541 1186.01 1355 c 0
 1173.28 1112 971.469 963 803.28 864 c 1
 874.581 698 991.941 495 1077.13 365 c 1
 1218.33 426 1294.94 495 1302.33 636 c 0
 1303.43 657 1325.96 667 1355.96 667 c 0
 1418.96 667 1513.75 625 1510.51 563 c 0
 1501.81 397 1354.04 287 1184.27 196 c 1
 1268.82 111 1324.04 58 1365.26 24 c 0
 1431.38 -31 1596.23 -72 1593.08 -132 c 0
EndSplineSet
EndChar

StartChar: colon
Encoding: 28 58 81
Width: 704
Flags: HW
HStem: 0 353<376.763 613.2> 672 353<436.763 673.2>
VStem: 320 352<58.8001 295.029> 380 352<730.8 967.029>
LayerCount: 2
Fore
SplineSet
521.5 353 m 0xe0
 629.5 353 687.565 297 682.01 191 c 0
 675.983 76 603 0 484 0 c 0
 378 0 322.883 55 328.49 162 c 0
 334.517 277 404.5 353 521.5 353 c 0xe0
616.718 1025 m 0
 724.718 1025 782.783 969 777.228 863 c 0
 771.201 748 698.218 672 579.218 672 c 0
 473.218 672 418.101 727 423.708 834 c 0xd0
 429.735 949 499.718 1025 616.718 1025 c 0
EndSplineSet
EndChar

StartChar: semicolon
Encoding: 29 59 82
Width: 768
Flags: HW
HStem: 672 353<436.763 673.2>
VStem: 287 384<-109 205> 380 352<730.8 967.029>
LayerCount: 2
Fore
SplineSet
616.718 1025 m 0xa0
 724.718 1025 782.783 969 777.228 863 c 0
 771.201 748 698.218 672 579.218 672 c 0
 473.218 672 418.101 727 423.708 834 c 0
 429.735 949 499.718 1025 616.718 1025 c 0xa0
357.99 -191 m 0
 310.99 -191 278.72 -158 281.287 -109 c 0
 287.524 10 353.708 128 389.421 237 c 0
 407.251 291 461.823 321 530.823 321 c 0
 608.823 321 685.779 282 681.743 205 c 0xc0
 678.494 143 636.346 102 607.145 60 c 0
 583.362 26 581.362 26 557.581 -8 c 0
 510.069 -75 459.99 -191 357.99 -191 c 0
EndSplineSet
EndChar

StartChar: comma
Encoding: 14 44 83
Width: 609
Flags: HW
HStem: -191 512<398.184 464.438>
VStem: 287 384<-109 205>
LayerCount: 2
Fore
SplineSet
357.99 -191 m 0
 310.99 -191 278.72 -158 281.287 -109 c 0
 287.524 10 353.708 128 389.421 237 c 0
 407.251 291 461.823 321 530.823 321 c 0
 608.823 321 685.779 282 681.743 205 c 0
 678.494 143 636.346 102 607.145 60 c 0
 583.362 26 581.362 26 557.581 -8 c 0
 510.069 -75 459.99 -191 357.99 -191 c 0
EndSplineSet
EndChar

StartChar: bullet
Encoding: 218 8226 84
Width: 1120
Flags: HW
HStem: 251 645<452.191 673.168>
VStem: 256 608<465.782 711.996>
LayerCount: 2
Fore
SplineSet
525.154 251 m 0
 355.154 251 275.286 368 284.51 544 c 0
 295.62 756 477.957 896 686.957 896 c 0
 833.957 896 907.079 822 899.218 672 c 0
 887.426 447 743.154 251 525.154 251 c 0
EndSplineSet
EndChar

StartChar: ring
Encoding: 204 730 85
Width: 737
Flags: HW
HStem: 1088 134<246.241 438.783> 1480 129<280.758 481.778>
VStem: 95 135<1236.69 1429.6> 493 145<1274.17 1469.13>
LayerCount: 2
Fore
SplineSet
565.795 1389 m 0
 568.624 1443 540.563 1480 483.563 1480 c 0
 384.563 1480 304.366 1419 299.388 1324 c 0
 296.243 1264 331.042 1222 391.042 1222 c 0
 486.042 1222 560.973 1297 565.795 1389 c 0
384.02 1088 m 0
 243.02 1088 156.789 1179 164.44 1325 c 0
 173.56 1499 342.324 1609 515.324 1609 c 0
 637.324 1609 718.026 1527 711.476 1402 c 0
 701.728 1216 565.02 1088 384.02 1088 c 0
EndSplineSet
EndChar

StartChar: plus
Encoding: 13 43 87
Width: 1503
Flags: HW
HStem: 416 192<338.588 673 865 1193.12> 935 20G<749.5 808>
VStem: 673 192<78.5875 416 608 933.123>
LayerCount: 2
Fore
SplineSet
771.145 60 m 0
 706.145 60 679.342 121 682.905 189 c 2
 694.802 416 l 1
 470.802 416 l 2
 402.802 416 343.374 446 346.78 511 c 0
 350.239 577 415.864 608 484.864 608 c 2
 704.864 608 l 1
 716.812 836 l 2
 720.271 902 767.05 955 832.05 955 c 0
 884.05 955 912.9 914 909.809 855 c 2
 896.864 608 l 1
 1146.86 608 l 2
 1205.86 608 1245.24 577 1242.51 525 c 0
 1239.11 460 1183.8 416 1117.8 416 c 2
 886.802 416 l 1
 875.114 193 l 2
 871.498 124 837.145 60 771.145 60 c 0
EndSplineSet
EndChar

StartChar: braceleft
Encoding: 93 123 88
Width: 1153
Flags: HW
HStem: -312 256<479.5 813.448> 632 288<176.442 313.969> 1568 256<810.449 1180.15>
VStem: 312 268<-43.9738 334.994> 365 262<142.289 585.96>
LayerCount: 2
Fore
SplineSet
559.532 1384 m 1xe8
 603.695 1597 734.592 1824 972.592 1824 c 0
 1132.59 1824 1279.23 1798 1368.56 1728 c 0
 1383.88 1715 1393.83 1695 1392.47 1669 c 0
 1388.91 1601 1331.5 1536 1263.5 1536 c 0
 1168.5 1536 1082.18 1568 982.176 1568 c 0
 780.176 1568 775.592 1118 710.73 968 c 0
 673.224 882 618.607 813 528.931 781 c 1
 630.568 755 661.694 662 654.985 534 c 0xe8
 646.811 378 592.264 234 584.507 86 c 0
 580.21 4 593.065 -56 672.065 -56 c 0
 775.065 -56 828.943 18 926.943 18 c 0
 986.943 18 1017.64 -26 1014.44 -87 c 0
 1005.64 -255 714.648 -312 553.648 -312 c 0
 372.648 -312 303.615 -160 313.205 23 c 0xf0
 320.909 170 380.617 298 388.007 439 c 0
 393.771 549 353.122 632 242.122 632 c 0
 187.122 632 167.638 680 170.52 735 c 0
 174.869 818 224.11 918 302.215 920 c 0
 476.425 924 540.561 1022 548.632 1176 c 2
 559.532 1384 l 1xe8
EndSplineSet
EndChar

StartChar: asterisk
Encoding: 12 42 89
Width: 1024
Flags: HW
HStem: 1110 250<117.377 256.555> 1326 250<773.734 907.254>
VStem: 331 217<885.135 1116.55> 473 221<1593.32 1800.75>
LayerCount: 2
Fore
SplineSet
696.592 1824 m 0x90
 746.592 1824 788.177 1797 785.451 1745 c 0x90
 784.771 1732 783.142 1720 778.513 1708 c 0
 742.691 1616 701.45 1516 660.891 1429 c 1
 744.145 1472 834.712 1521 917.07 1566 c 0
 928.385 1572 938.595 1576 955.595 1576 c 0
 1018.59 1576 1072.4 1515 1069.1 1452 c 0
 1063.7 1349 808.174 1339 711.493 1326 c 1
 792.554 1289 881.405 1248 960.309 1208 c 0
 989.522 1193 1012.32 1170 1010.38 1133 c 0
 1007.18 1072 938.561 1022 876.561 1022 c 0
 853.561 1022 833.98 1030 819.766 1045 c 0
 753.173 1110 679.841 1180 618.405 1248 c 1
 610.479 1154 603.133 1052 598.154 957 c 0
 595.01 897 530.28 864 469.28 864 c 0
 417.28 864 377.643 890 380.421 943 c 0x60
 386.028 1050 463.212 1168 503.771 1255 c 1
 422.413 1210 332.95 1163 249.696 1120 c 1
 238.33 1113 225.173 1110 211.173 1110 c 0
 148.173 1110 93.4219 1172 96.7236 1235 c 0
 102.227 1340 356.437 1344 452.274 1360 c 1
 371.214 1397 283.258 1436 205.406 1477 c 0
 169.402 1496 153.765 1522 155.284 1551 c 0
 158.534 1613 228.154 1663 290.154 1663 c 0
 313.154 1663 331.734 1655 345.949 1640 c 0
 411.49 1574 483.717 1502 548.31 1437 c 1
 553.289 1532 563.687 1635 568.718 1731 c 0
 571.967 1793 634.592 1824 696.592 1824 c 0x90
EndSplineSet
EndChar

StartChar: dagger
Encoding: 216 8224 90
Width: 1152
Flags: HW
HStem: 1055 161<138.77 433 694 1017.61>
DStem2: 385 854 506 368 0.216443 0.976295<-488.89 206.625 420.3 729.069>
LayerCount: 2
Fore
SplineSet
829.922 1525 m 0
 824.157 1415 786.336 1323 757.728 1216 c 1
 1002.73 1216 l 2
 1053.73 1216 1086.31 1189 1083.59 1137 c 0
 1080.13 1071 1039.29 1055 975.29 1055 c 2
 715.29 1055 l 1
 655.289 826 588.711 586 525.286 368 c 0
 503.251 291 455.364 255 365.364 255 c 0
 308.364 255 296.352 312 299.339 369 c 0
 307.724 529 384.581 698 429.756 854 c 0
 449.268 921 468.779 988 488.29 1055 c 1
 279.29 1055 l 2
 217.29 1055 184.076 1070 187.168 1129 c 0
 190.261 1188 238.728 1216 297.728 1216 c 2
 533.728 1216 l 1
 578.799 1370 584.167 1606 771.167 1606 c 0
 818.167 1606 832.385 1572 829.922 1525 c 0
EndSplineSet
EndChar

StartChar: daggerdbl
Encoding: 217 8225 91
Width: 1152
Flags: HW
HStem: 608 161<42.77 326 598 921.614> 1055 161<138.77 433 694 1017.61>
DStem2: 326 608 562 608 0.230466 0.97308<-239.341 0 219.353 459.627 676.444 985.022>
LayerCount: 2
Fore
SplineSet
829.922 1525 m 0
 824.157 1415 786.336 1323 757.728 1216 c 1
 1002.73 1216 l 2
 1053.73 1216 1086.31 1189 1083.59 1137 c 0
 1080.13 1071 1039.29 1055 975.29 1055 c 2
 715.29 1055 l 1
 690.364 961 664.176 862 638.302 769 c 1
 883.302 769 l 2
 934.302 769 966.887 742 964.161 690 c 0
 960.702 624 919.864 608 855.864 608 c 2
 593.864 608 l 1
 550.95 457 545.364 255 365.364 255 c 0
 308.364 255 296.352 312 299.339 369 c 0
 303.74 453 334.462 524 357.864 608 c 1
 159.864 608 l 2
 97.8643 608 64.6504 623 67.7422 682 c 0
 70.834 741 119.302 769 178.302 769 c 2
 404.302 769 l 1
 488.29 1055 l 1
 279.29 1055 l 2
 217.29 1055 184.076 1070 187.168 1129 c 0
 190.261 1188 238.728 1216 297.728 1216 c 2
 533.728 1216 l 1
 578.799 1370 584.167 1606 771.167 1606 c 0
 818.167 1606 832.385 1572 829.922 1525 c 0
EndSplineSet
EndChar

StartChar: perthousand
Encoding: 220 8240 92
Width: 3169
Flags: HW
HStem: 64 192<1612.41 1782.77 2540.41 2710.77> 672 192<399.681 571.783> 928 192<1677.42 1854.75 2605.42 2782.75> 1536 192<462.762 660.542>
VStem: 94 256<916.048 1383.2> 706 244<1066.91 1490.13> 1312 256<298.256 766.791> 1900 246<422.72 885.994> 2240 256<298.256 766.791> 2828 246<422.72 885.994>
LayerCount: 2
Fore
SplineSet
2521.89 494 m 0
 2516.6 393 2531.42 256 2628.42 256 c 0
 2773.42 256 2854.62 508 2862.38 656 c 0
 2868.09 765 2862.63 928 2758.63 928 c 0
 2589.63 928 2531.17 671 2521.89 494 c 0
2794.7 1120 m 0
 3035.7 1120 3122.06 917 3109.32 674 c 0
 3094.86 398 2937.96 171 2736.72 90 c 0
 2693.83 73 2648.35 64 2600.35 64 c 0
 2364.35 64 2252.95 247 2265.26 482 c 0
 2282.76 816 2461.7 1120 2794.7 1120 c 0
1593.89 494 m 0
 1588.6 393 1603.42 256 1700.42 256 c 0
 1845.42 256 1926.62 508 1934.38 656 c 0
 1940.09 765 1934.63 928 1830.63 928 c 0
 1661.63 928 1603.17 671 1593.89 494 c 0
1866.7 1120 m 0
 2107.7 1120 2194.06 917 2181.32 674 c 0
 2166.86 398 2009.96 171 1808.72 90 c 0
 1765.83 73 1720.35 64 1672.35 64 c 0
 1436.35 64 1324.94 247 1337.26 482 c 0
 1354.76 816 1533.7 1120 1866.7 1120 c 0
672 0 m 0
 609 0 581.782 34 585.031 96 c 0
 590.639 203 635.102 250 681.399 332 c 0
 934.931 781 1200.61 1252 1460.88 1696 c 0
 1497.08 1757 1565.92 1792 1661.92 1792 c 0
 1696.92 1792 1705.45 1764 1703.67 1730 c 0
 1700.94 1678 1683.32 1628 1663.43 1592 c 0
 1398.12 1109 1146.66 566 869.031 96 c 0
 833.887 36 761 0 672 0 c 0
409.797 1141 m 0
 404.032 1031 415.28 864 518.28 864 c 0
 676.28 864 766.321 1151 774.864 1314 c 0
 780.681 1425 757.498 1536 648.498 1536 c 0
 485.498 1536 418.654 1310 409.797 1141 c 0
684.561 1728 m 0
 927.561 1728 1031.44 1554 1018.76 1312 c 0
 1003.61 1023 843.088 784 632.633 699 c 0
 587.689 681 540.218 672 490.218 672 c 0
 248.218 672 139.962 877 152.696 1120 c 0
 169.781 1446 358.561 1728 684.561 1728 c 0
EndSplineSet
EndChar

StartChar: one
Encoding: 19 49 93
Width: 682
Flags: HW
HStem: 1115 327<199 515>
VStem: 144 505<1182 1346>
DStem2: 130 107 403 56 0.199263 0.979946<-36.3427 1137.54>
LayerCount: 2
Fore
SplineSet
590.572 1442 m 4
 656.572 1442 723.891 1429 719.541 1346 c 4
 719.069 1337 718.545 1327 715.969 1316 c 4
 629.427 890.887 509.26 475.635 405.935 56 c 4
 397.258 24 358 0 317 0 c 4
 234.844 0 121.419 8 124.721 71 c 4
 125.56 87 126.927 94 135.607 107 c 5
 220.092 414.44 341.451 838.417 438.833 1218 c 5
 411.575 1194 308.435 1115 257.435 1115 c 4
 222.435 1115 204.426 1153 205.946 1182 c 4
 207.938 1220 246.038 1241 260.929 1258 c 5
 342.969 1316 465.572 1442 590.572 1442 c 4
EndSplineSet
EndChar

StartChar: dotlessi
Encoding: 190 305 94
Width: 537
Flags: HW
HStem: 0 192<216.5 480.888> 213 203<533 736> 940 20G<374.5 438>
VStem: 96 256<193.631 525.941>
LayerCount: 2
Fore
SplineSet
367.198 290 m 0
 364.578 240 367.062 192 413.062 192 c 0
 544.062 192 676.447 352 757.802 416 c 1
 747.163 213 l 1
 642.342 121 466 0 282 0 c 0
 151 0 99.7207 71 106.534 201 c 0
 118.955 438 216.642 661 277.228 863 c 0
 296.635 928 385.312 960 464.312 960 c 0
 512.312 960 535.525 945 533.324 903 c 0
 522.424 695 378.938 514 367.198 290 c 0
EndSplineSet
EndChar

StartChar: backslash
Encoding: 62 92 95
Width: 1248
Flags: HW
DStem2: 489 1598 185 1622 0.406909 -0.913469<-266.392 0 1536.53 1675.24>
LayerCount: 2
Fore
SplineSet
246.347 1743 m 0
 250.12 1815 293.688 1864 364.688 1864 c 0
 505.688 1864 529.513 1708 572.748 1598 c 0
 755.64 1138 947.38 656 1130.32 197 c 1
 1147.86 150 1164.66 108 1161.88 55 c 0
 1158.58 -8 1111.96 -39 1050.96 -39 c 0
 963.956 -39 896.314 6 870.354 64 c 0
 640.82 569 472.225 1111 270.006 1622 c 0
 254.944 1659 243.936 1697 246.347 1743 c 0
EndSplineSet
EndChar

StartChar: quotedblbase
Encoding: 215 8222 96
Width: 1025
Flags: HW
HStem: -191 512<398.184 464.438 789.184 855.777>
VStem: 287 384<-109 205> 678 384<-109 205>
LayerCount: 2
Fore
SplineSet
357.99 -191 m 0
 310.99 -191 278.72 -158 281.287 -109 c 0
 287.524 10 353.708 128 389.421 237 c 0
 407.251 291 461.823 321 530.823 321 c 0
 608.823 321 685.779 282 681.743 205 c 0
 678.494 143 636.346 102 607.145 60 c 0
 583.362 26 581.362 26 557.581 -8 c 0
 510.069 -75 459.99 -191 357.99 -191 c 0
748.99 -191 m 0
 701.99 -191 669.72 -158 672.287 -109 c 0
 678.524 10 744.708 128 780.421 237 c 0
 798.251 291 852.823 321 921.823 321 c 0
 999.823 321 1076.78 282 1072.74 205 c 0
 1069.49 143 1026.35 102 997.145 60 c 2
 949.581 -8 l 2
 902.069 -75 850.99 -191 748.99 -191 c 0
EndSplineSet
EndChar

StartChar: ellipsis
Encoding: 219 8230 97
Width: 1567
Flags: HW
HStem: 0 353<376.763 613.2 792.763 1029.2 1208.76 1445.2>
VStem: 320 352<58.8001 295.029> 736 352<58.8001 295.029> 1152 352<58.8001 295.029>
CounterMasks: 1 70
LayerCount: 2
Fore
SplineSet
521.5 353 m 0
 629.5 353 687.565 297 682.01 191 c 0
 675.983 76 603 0 484 0 c 0
 378 0 322.883 55 328.49 162 c 0
 334.517 277 404.5 353 521.5 353 c 0
1353.5 353 m 0
 1461.5 353 1519.57 297 1514.01 191 c 0
 1507.98 76 1435 0 1316 0 c 0
 1210 0 1154.88 55 1160.49 162 c 0
 1166.52 277 1236.5 353 1353.5 353 c 0
937.5 353 m 0
 1045.5 353 1103.57 297 1098.01 191 c 0
 1091.98 76 1019 0 900 0 c 0
 794 0 738.883 55 744.49 162 c 0
 750.517 277 820.5 353 937.5 353 c 0
EndSplineSet
EndChar

StartChar: braceright
Encoding: 95 125 98
Width: 1248
Flags: HW
HStem: -342 256<254.426 519.027> 512 288<986.61 1153.32> 1488 256<416.993 847>
VStem: 702 253<830.566 1250.15> 748 268<1108.23 1475.14>
LayerCount: 2
Fore
SplineSet
1090.16 1415 m 0xe8
 1081.41 1248 1013.22 1111 1004.42 943 c 0
 998.865 837 1054.03 802 1159.93 800 c 0
 1213.87 799 1231.99 744 1229.06 688 c 0
 1224.76 606 1180.83 512 1099.83 512 c 0
 989.833 512 919.06 440 898.133 346 c 0
 836.459 66 789.729 -196 569.858 -308 c 0
 525.705 -330 480.076 -342 432.076 -342 c 0
 302.076 -342 48.8545 -289 55.458 -163 c 0
 59.5977 -84 119.267 -14 194.371 -12 c 1
 204.899 -21 335.493 -86 422.493 -86 c 0
 621.493 -86 628.657 356 696.256 501 c 0
 732.292 578 785.646 642 874.642 661 c 1
 779.528 697 743.088 784 750.006 916 c 0xf0
 757.919 1067 811.204 1206 818.75 1350 c 0
 823.048 1432 809.982 1488 729.982 1488 c 0
 626.982 1488 533.306 1456 435.306 1456 c 0
 381.306 1456 352.507 1498 355.337 1552 c 0
 364.036 1718 679.399 1744 848.399 1744 c 0
 1028.4 1744 1099.75 1598 1090.16 1415 c 0xe8
194.371 -12 m 0
 193.424 -11 193.424 -11 194.424 -11 c 2
 194.424 -11 196.371 -12 197.371 -12 c 1
 196.371 -12 195.371 -12 194.371 -12 c 0
EndSplineSet
EndChar

StartChar: bracketright
Encoding: 63 93 99
Width: 927
Flags: HW
HStem: -192 224<27.7646 416> 1443 224<296.25 629>
DStem2: 522 745 696 60 0.146677 0.989184<-602.417 706.145>
LayerCount: 2
Fore
SplineSet
822.363 1667 m 2
 929.363 1667 997.478 1631 992.079 1528 c 0
 986.209 1416 948.65 1329 923.833 1218 c 0
 838.022 840 782.584 450 699.145 60 c 0
 667.388 -88 590.938 -192 405.938 -192 c 2
 97.9375 -192 l 2
 36.9375 -192 -7.28516 -139 -4.19238 -80 c 0
 -1.15332 -22 62.6768 32 120.677 32 c 2
 417.677 32 l 1
 429.469 257 515.147 518 561.044 745 c 0
 608.308 979 656.78 1217 704.624 1443 c 1
 444.624 1443 l 2
 390.624 1443 342.088 1490 344.918 1544 c 0
 348.22 1607 410.363 1667 476.363 1667 c 2
 822.363 1667 l 2
EndSplineSet
EndChar

StartChar: circumflex
Encoding: 201 710 100
Width: 864
Flags: HW
HStem: 1020 676<575.114 629.545>
VStem: 503 259<1132.49 1383.46>
LayerCount: 2
Fore
SplineSet
688.456 1020 m 4
 566.863 1020 590.207 1414.16 583.289 1532 c 5
 512.423 1401 444.282 1282.34 376.374 1152 c 4
 336.435 1075.34 304.666 1024 195.666 1024 c 4
 160.666 1024 138.181 1072 140.435 1115 c 4
 141.116 1128 145.99 1140.17 154.426 1153 c 6
 370.668 1482 l 5
 430.699 1578 471.884 1696 625.884 1696 c 4
 745.884 1696 758.649 1559.64 777.781 1446 c 4
 795.489 1340.83 827.568 1251.11 821.378 1133 c 4
 817.867 1066 766.456 1020 688.456 1020 c 4
EndSplineSet
EndChar

StartChar: caron
Encoding: 202 711 105
Width: 864
Flags: HW
HStem: 1019 676<255 378>
VStem: 557 229<1490.03 1643.96>
LayerCount: 2
Fore
SplineSet
191.909 1582 m 0
 195.525 1651 241.831 1695 311.831 1695 c 0
 466.831 1695 449.973 1297 471.998 1183 c 1
 527.864 1314 579.31 1437 638.913 1563 c 0
 674.949 1640 705.621 1691 806.621 1691 c 0
 846.621 1691 872.105 1643 869.853 1600 c 0
 869.224 1588 867.542 1575 860.861 1562 c 2
 679.619 1233 l 2
 625.535 1136 587.403 1019 447.403 1019 c 0
 308.403 1019 295.583 1156 268.506 1269 c 0
 245.642 1367 220.781 1446 195.075 1547 c 0
 191.599 1557 191.228 1569 191.909 1582 c 0
EndSplineSet
EndChar

StartChar: cedilla
Encoding: 118 184 106
Width: 1184
Flags: HW
HStem: -511 607<473 640>
VStem: 362 324<-392 61>
LayerCount: 2
Fore
SplineSet
645.031 96 m 0
 670.031 96 690.507 86 689.197 61 c 0
 680.812 -99 643.365 -222 617.133 -360 c 0
 601.836 -442 537.22 -511 446.22 -511 c 0
 376.22 -511 337.683 -464 341.456 -392 c 0
 347.745 -272 430.829 -175 488.23 -91 c 0
 516.38 -50 548.738 -5 578.411 46 c 0
 590.512 67 615.031 96 645.031 96 c 0
EndSplineSet
EndChar

StartChar: fi
Encoding: 228 64257 107
Width: 1260
Flags: HW
HStem: -604 225<319.733 417.416> 0 192<939.5 1203.89> 213 203<1256 1459> 397 190<535.612 794.641> 940 20G<1097.5 1161> 1089 319<1069.61 1320.92> 1631 225<604.169 737.969>
VStem: 68 225<-367.051 438.111> 457 209<-318.57 212.442> 747 182<1389.7 1695.88> 819 256<193.631 451.16> 955 254<806.656 921.816> 1012 366<1145.59 1352.11>
LayerCount: 2
Fore
SplineSet
1241.07 1089 m 0xcf88
 1134.07 1089 1071.75 1140 1077.04 1241 c 0
 1082.49 1345 1171.79 1408 1281.79 1408 c 0
 1379.79 1408 1449.59 1366 1444.45 1268 c 0
 1438.53 1155 1357.07 1089 1241.07 1089 c 0xcf88
827.132 1529 m 0xcfc0
 829.962 1583 821.478 1631 776.478 1631 c 0
 706.478 1631 683.276 1589 658.341 1533 c 0
 549.868 1295 492.648 1100 441.765 816 c 1
 557.089 1013 692.728 1216 790.314 1418 c 0
 813.882 1467 825.821 1504 827.132 1529 c 0xcfc0
334.138 -379 m 0
 438.138 -379 448.248 -167 454.013 -57 c 0
 462.607 107 436.723 300 382.749 415 c 0
 374.692 433 366.164 442 358.164 442 c 0
 331.164 442 299.765 110 297.092 59 c 0
 295.729 33 292.738 -5 290.537 -47 c 0
 283.2 -187 280.138 -379 334.138 -379 c 0
1090.2 290 m 0xdfa0
 1087.58 240 1090.06 192 1136.06 192 c 0
 1267.06 192 1399.45 352 1480.8 416 c 1
 1470.16 213 l 1
 1365.34 121 1189 0 1005 0 c 0
 874 0 822.721 71 829.534 201 c 0xefa0
 833.988 286 856.705 376 877.846 455 c 1
 781.063 421 672.911 399 555.806 397 c 1
 611.831 283 673.441 142 664.48 -29 c 0
 652.007 -267 539.346 -604 301.346 -604 c 0
 67.3457 -604 53.5352 -276 66.0088 -38 c 0
 93.8896 494 220.186 1053 399.201 1454 c 0
 475.163 1625 594.269 1856 814.269 1856 c 0
 947.269 1856 1021.34 1762 1014.11 1624 c 0
 1004.57 1442 913.135 1281 839.954 1144 c 0
 736.893 952 610.987 763 476.602 603 c 1
 473.764 587 l 1
 495.34 598 502.602 603 525.602 603 c 0
 555.602 603 562.764 587 590.764 587 c 0
 739.764 587 858.174 633 948.371 694 c 1
 1000.23 863 l 2
 1020.58 927 1108.31 960 1187.31 960 c 0
 1235.31 960 1258.53 945 1256.32 903 c 0xdfd0
 1245.42 695 1101.94 514 1090.2 290 c 0xdfa0
EndSplineSet
EndChar

StartChar: fl
Encoding: 229 64258 108
Width: 1257
Flags: HW
HStem: -604 225<319.733 416.988> 0 244<988 1252.99> 397 189.62<535 792.291> 1435.59 254.407<1229.7 1427.5> 1631 225<604.169 737.969>
VStem: 68 225<-367.051 438.111> 457 209<-315.523 211.999> 747 182<1389.7 1695.88> 1320.14 193.864<1224.32 1522>
LayerCount: 2
Fore
SplineSet
827.132 1529 m 0xef80
 829.962 1583 821.478 1631 776.478 1631 c 0
 706.478 1631 683.276 1589 658.341 1533 c 0
 549.868 1295 492.648 1100 441.765 816 c 1
 557.089 1013 692.728 1216 790.314 1418 c 0
 813.882 1467 825.821 1504 827.132 1529 c 0xef80
334.138 -379 m 0
 436.176 -379 447.833 -174.925 453.681 -63.333 c 2
 454.013 -57 l 2
 462.607 107 436.723 300 382.749 415 c 0
 374.692 433 366.164 442 358.164 442 c 0
 331.164 442 299.765 110 297.092 59 c 0
 295.729 33 292.738 -5 290.537 -47 c 0
 283.2 -187 280.138 -379 334.138 -379 c 0
1392.71 1384.8 m 0
 1394.29 1414.97 1385.9 1435.59 1359.23 1435.59 c 0xf780
 1244.05 1435.59 1117.61 917.567 1090.57 755 c 1
 1099.61 768.48 1384.56 1229.21 1392.71 1384.8 c 0
1153.79 244 m 0
 1234.79 244 1311.98 305 1366.82 340 c 0
 1410.29 368 1455.96 400 1503.9 437 c 1
 1574.9 227 l 1
 1445.18 137 1315.62 50 1147.52 10 c 0
 1121.21 4 1097 0 1074 0 c 0
 902 0 857.831 283 849.374 446 c 1
 758.854 417 662.068 402 555.806 397 c 1
 611.831 283 673.441 142 664.48 -29 c 0
 652.007 -267 539.346 -604 301.346 -604 c 0
 67.3457 -604 53.5352 -276 66.0088 -38 c 0
 93.8896 494 220.186 1053 399.201 1454 c 0
 475.163 1625 594.269 1856 814.269 1856 c 0xef80
 947.269 1856 1021.34 1762 1014.11 1624 c 0
 1004.57 1442 913.135 1281 839.954 1144 c 0
 736.893 952 610.987 763 476.602 603 c 1
 473.764 587 l 1
 481.626 586.749 490.153 586.62 499.235 586.62 c 0
 598.54 586.62 764.187 602.061 853.646 642 c 1
 890.781 970.169 1110.71 1690 1458.57 1690 c 0
 1573.57 1690 1596.8 1580 1590.72 1464 c 0
 1571.5 1097.08 1286.98 737.993 1096.56 545 c 1
 1091.53 448.917 1100.06 244 1153.79 244 c 0
EndSplineSet
LCarets2: 1 0 
Ligature2: "'liga' Ligatures lookup 0 subtable" f l
EndChar

StartChar: oslash
Encoding: 182 248 109
Width: 873
Flags: HW
VStem: 64 194<249.493 595.97> 224 136<-171.476 -62.4621> 638 162<345.339 716.861>
DStem2: 254 33 394 0 0.26786 0.963458<-147.147 12.6917 211.813 751.737 988.44 1190.4>
LayerCount: 2
Fore
SplineSet
460.167 194 m 1x20
 578.32 216 659.487 410 666.877 551 c 0
 670.493 620 658.689 681 630.682 719 c 1
 576.72 548 520.496 372 460.167 194 c 1x20
498.987 763 m 1
 376.153 728 286.877 551 278.754 396 c 0xa0
 275.189 328 290.308 273 323.421 237 c 1
 498.987 763 l 1
702.683 948 m 1
 915.377 904 1050.41 752 1158.76 606 c 1
 1132.37 465 l 1
 1052.4 580 905.638 680 789.83 760 c 1
 781.254 749 l 1
 810.795 683 831.183 595 826.361 503 c 0
 812.893 246 648 0 394 0 c 1
 354.34 -108 l 1
 338.349 -146 318.566 -180 269.566 -180 c 0
 227.566 -180 215.72 -158 218.025 -114 c 0x60
 220.96 -58 235.795 -23 255.729 33 c 1
 134.136 98 77.1016 250 86.9023 437 c 0
 102.362 732 282.578 946 564.259 959 c 1
 594.238 1054 621.728 1216 737.728 1216 c 0
 767.728 1216 765.579 1175 764.007 1145 c 0
 762.277 1112 745.182 1072 734.661 1043 c 2
 702.683 948 l 1
EndSplineSet
EndChar

StartChar: Oslash
Encoding: 150 216 110
Width: 1719
Flags: HW
HStem: -192 224<799 998.001> 1663 193<906.717 1065.34>
VStem: 155 256<310.221 900.219> 521 173<-415.491 -279.048> 1435 256<747.127 1395.75>
DStem2: 557 -142 735 -188 0.271186 0.962527<-200.992 6.9329 241.896 1875.39 2072.14 2331.49>
LayerCount: 2
Fore
SplineSet
626.77 91 m 1
 882.809 855 l 2
 972.802 1122 1065.42 1401 1153.15 1663 c 1
 780.635 1634 562.269 1150 477.66 814 c 0
 457.415 733 445.38 656 441.554 583 c 0
 429.657 356 495.591 183 626.77 91 c 1
1324.21 1626 m 1
 1153.6 1099 976.243 558 800.729 33 c 1
 804.677 32 809.677 32 813.677 32 c 2
 826.677 32 l 2
 1276.68 32 1472.52 716 1495.37 1152 c 0
 1506.64 1367 1457.13 1548 1324.21 1626 c 1
1384.02 1813 m 1
 1638.46 1707 1766.36 1438 1747.23 1073 c 0
 1718.41 523 1446.15 41 1056.87 -136 c 0
 973.881 -174 885.938 -192 790.938 -192 c 0
 767.938 -192 745.99 -191 725.147 -188 c 1
 676.811 -328 l 1
 656.085 -380 630.889 -441 567.889 -441 c 0
 508.889 -441 499.723 -406 502.972 -344 c 0
 506.692 -273 525.994 -210 549.559 -142 c 1
 295.585 -27 168.521 258 188.174 633 c 0
 216.736 1178 481.739 1636 874.438 1802 c 0
 959.325 1838 1052.27 1856 1151.27 1856 c 0
 1173.27 1856 1195.22 1855 1216.11 1853 c 1
 1246.93 1945 l 2
 1270.65 2016 1319.58 2110 1407.58 2110 c 0
 1443.58 2110 1447.01 2080 1445.12 2044 c 2
 1444.33 2029 l 2
 1440.67 1959 1406.05 1871 1384.02 1813 c 1
EndSplineSet
EndChar

StartChar: grave
Encoding: 66 96 111
Width: 609
Flags: HW
HStem: 1088 622
VStem: 64 442
LayerCount: 2
Fore
SplineSet
146.49 1574 m 0
 150.578 1652 220.617 1710 298.617 1710 c 0
 345.617 1710 376.202 1683 390.264 1646 c 0
 449.14 1491 497.96 1354 559.047 1203 c 0
 565.312 1189 567.475 1173 566.531 1155 c 0
 564.645 1119 540.02 1088 505.02 1088 c 0
 437.02 1088 398.684 1177 365.938 1220 c 0
 303.235 1302 235.951 1392 178.406 1477 c 0
 155.24 1512 144.918 1544 146.49 1574 c 0
EndSplineSet
EndChar

StartChar: thorn
Encoding: 188 254 112
Width: 1023
Flags: HW
HStem: 0 192<310.207 589.328> 732 228<529.187 749.321>
VStem: 691 224<388.815 709.858>
LayerCount: 2
Fore
SplineSet
722.812 607 m 0
 727.267 692 686.362 732 599.362 732 c 0
 376.362 732 347.588 431 318.792 225 c 1
 372.9 208 436.062 192 505.062 192 c 0
 656.062 192 714.584 450 722.812 607 c 0
448.809 1561 m 0
 521.809 1561 653.563 1480 649.79 1408 c 0
 648.899 1391 560.847 1390 558.113 1376 c 2
 433.188 805 l 1
 513.699 872 602.312 960 716.312 960 c 0
 879.312 960 957.607 813 949.013 649 c 0
 940.732 491 902.177 385 834.094 288 c 1
 947.447 352 1052.33 407 1145.99 496 c 1
 1214.35 331 l 1
 1079.21 214 930.441 142 728.031 96 c 1
 682.777 53 609.258 24 547 0 c 1
 522 0 l 2
 429 0 341.258 24 270.62 50 c 1
 111.77 -615 l 1
 98.2539 -663 73.6816 -693 16.6816 -693 c 0
 4.68164 -693 -5.2666 -692 -16.2666 -692 c 0
 -75.2666 -692 -98.7021 -624 -95.5059 -563 c 0
 -74.6992 -166 56.1143 193 139.349 560 c 0
 155.069 631 173.419 714 195.397 809 c 0
 231.73 968 282.007 1145 324.759 1312 c 2
 365.145 1472 l 2
 377.712 1521 401.809 1561 448.809 1561 c 0
EndSplineSet
EndChar

StartChar: periodcentered
Encoding: 117 183 113
Width: 704
Flags: HW
HStem: 0 353<376.763 613.2>
VStem: 320 352<58.8001 295.029>
LayerCount: 2
Fore
SplineSet
521.5 353 m 0
 629.5 353 687.565 297 682.01 191 c 0
 675.983 76 603 0 484 0 c 0
 378 0 322.883 55 328.49 162 c 0
 334.517 277 404.5 353 521.5 353 c 0
EndSplineSet
EndChar

StartChar: dieresis
Encoding: 104 168 116
Width: 1025
Flags: HW
HStem: 1132 322<173.518 383.692 640.859 851.089>
VStem: 128 303<1179.1 1408.1> 595 303<1179.52 1408.1>
LayerCount: 2
Fore
SplineSet
362.201 1454 m 0
 456.201 1454 504.423 1401 499.444 1306 c 0
 494.151 1205 432.325 1132 328.325 1132 c 0
 235.325 1132 189.946 1182 195.082 1280 c 0
 200.428 1382 259.201 1454 362.201 1454 c 0
829.201 1454 m 0
 924.201 1454 971.423 1401 966.444 1306 c 0
 961.099 1204 900.325 1132 795.325 1132 c 0
 704.325 1132 656.998 1183 662.082 1280 c 0
 667.428 1382 726.201 1454 829.201 1454 c 0
EndSplineSet
EndChar

StartChar: V
Encoding: 56 86 118
Width: 1236
Flags: HW
HStem: -33 21G<299.5 416.5> 123 188<982.687 1243.07>
VStem: 121 262<1061.6 1569.78> 180 247<262.265 647.398> 788 110<298 529>
DStem2: 427 260 922 608 0.461911 0.886926<440.872 1509.01>
LayerCount: 2
Fore
SplineSet
400.271 -33 m 0xd8
 195.271 -33 188.699 166 199.024 363 c 0xd8
 201.12 403 204.164 442 206.155 480 c 0
 222.297 788 179.33 1113 196.258 1436 c 0
 201.918 1544 242.8 1599 345.8 1599 c 0
 441.8 1599 459.918 1544 458.938 1449 c 2xe8
 440.626 260 l 1
 1157.14 1510 l 1
 1180.7 1578 1254.42 1630 1341.42 1630 c 0
 1395.42 1630 1415.49 1574 1412.45 1516 c 0
 1405.22 1378 1308.72 1235 1248.91 1124 c 0
 1155.89 952 1052.51 773 953.864 608 c 0
 938.449 581 926.72 548 924.728 510 c 0
 917.548 373 1029.3 311 1171.3 311 c 0
 1236.3 311 1295.08 364 1337.6 393 c 1
 1370.85 417 1405.27 444 1440.89 475 c 1
 1407.04 268 l 1
 1319.53 201 1205.45 123 1079.45 123 c 0
 908.446 123 799.163 213 808.072 383 c 0
 809.12 403 812.273 425 817.479 448 c 1
 732.15 270 645.616 69 490.476 -10 c 0
 459.638 -26 429.271 -33 400.271 -33 c 0xd8
EndSplineSet
EndChar

StartChar: less
Encoding: 30 60 119
Width: 1184
Flags: HW
VStem: 58 981<205 626>
LayerCount: 2
Fore
SplineSet
1049.74 205 m 0
 1047.02 153 998.604 126 942.604 126 c 0
 777.604 126 641.001 229 507.412 275 c 0
 317.818 340 78.334 388 90.8076 626 c 0
 99.8213 798 317.341 827 440.119 880 c 0
 626.312 960 840.29 1055 1038.59 1118 c 0
 1053.85 1123 1067.96 1125 1082.96 1125 c 0
 1162.96 1125 1188.5 1040 1184.42 962 c 0
 1181.53 907 1146.38 885 1101.7 872 c 1
 286.126 613 l 1
 928.548 373 l 2
 987.396 351 1054.04 287 1049.74 205 c 0
EndSplineSet
EndChar

StartChar: greater
Encoding: 32 62 120
Width: 1184
Flags: HW
VStem: 138 996<626 922>
LayerCount: 2
Fore
SplineSet
186.32 922 m 0
 190.408 1000 224.862 1085 304.862 1085 c 0
 425.862 1085 560.355 999 660.154 957 c 0
 736.478 925 814.905 895 881.228 863 c 0
 993.346 808 1175.46 791 1166.81 626 c 0
 1151.82 340 816.67 299 601.006 210 c 0
 503.909 170 391.556 106 271.556 106 c 0
 215.556 106 169.918 132 172.695 185 c 0
 176.626 260 218.452 333 271.5 353 c 2
 970.126 613 l 1
 259.604 832 l 2
 216.337 846 183.438 867 186.32 922 c 0
EndSplineSet
EndChar

StartChar: guilsinglleft
Encoding: 221 8249 121
Width: 1089
Flags: HW
DStem2: 282 778 320 544 0.916876 0.399172<-53.8524 592.557>
LayerCount: 2
Fore
SplineSet
922.28 158 m 0
 919.607 107 859.826 73 805.826 73 c 0
 785.826 73 765.088 78 742.56 87 c 0
 525.909 170 361.045 268 188.177 385 c 0
 142.749 415 105.579 469 109.3 540 c 0
 115.956 667 227.729 739 322.773 778 c 2
 831.779 988 l 2
 848.146 995 865.355 999 885.355 999 c 0
 947.355 999 995.207 958 991.957 896 c 0
 988.761 835 939.717 796 886.512 773 c 2
 348.51 544 l 1
 805.403 313 l 1
 860.251 291 926.315 235 922.28 158 c 0
EndSplineSet
EndChar

StartChar: guilsinglright
Encoding: 222 8250 122
Width: 1089
Flags: HW
VStem: 175 864<570 896>
DStem2: 340 988 274 773 0.916876 -0.399172<-52.1266 595.704> 331 313 382 87 0.897089 0.44185<-116.863 522.802>
LayerCount: 2
Fore
SplineSet
221.957 896 m 0
 225.207 958 277.355 999 339.355 999 c 0
 359.355 999 376.146 995 391.779 988 c 2
 878.773 778 l 1
 975.781 740 1074.53 678 1068.87 570 c 0
 1062.69 452 995.858 398 914.447 352 c 1
 750.73 262 571.647 165 386.56 87 c 0
 363.088 78 341.826 73 321.826 73 c 0
 267.826 73 211.607 107 214.28 158 c 0
 218.368 236 292.041 287 347.403 313 c 2
 828.51 544 l 1
 314.511 773 l 1
 263.769 797 218.761 835 221.957 896 c 0
EndSplineSet
EndChar

StartChar: asciicircum
Encoding: 64 94 123
Width: 1089
Flags: HW
DStem2: 186 832 318 603 0.446526 0.89477<-226.916 432.984> 785 1189 578 1124 0.392998 -0.919539<-17.5585 614.135>
LayerCount: 2
Fore
SplineSet
220.78 511 m 1
 223.623 508 224.466 505 224.413 504 c 0
 224.361 503 224.413 504 223.413 504 c 0
 212.413 504 122.872 570 125.545 621 c 0
 129.79 702 193.249 768 229.604 832 c 0
 285.739 930 347.347 1037 403.325 1132 c 0
 459.356 1228 517.436 1344 637.436 1344 c 0
 757.436 1344 808.715 1273 847.312 1189 c 0
 919.032 1031 990.019 859 1048.64 680 c 0
 1055.59 660 1056.54 640 1055.6 622 c 0
 1052.66 566 1013.62 508 959.623 508 c 0
 884.623 508 838.764 587 817.646 642 c 2
 636.906 1124 l 1
 349.602 603 l 1
 320.034 554 280.78 511 220.78 511 c 1
EndSplineSet
EndChar

StartChar: cent
Encoding: 98 162 124
Width: 896
Flags: HW
VStem: 64 256<248.728 626.988> 423 129<-196.759 -9.04> 515 130<956 1119.9>
DStem2: 444 195 586 202 0.0790873 0.996868<18.2085 556.979 765.389 873.782>
LayerCount: 2
Fore
SplineSet
530.306 750 m 1x80
 411.843 703 349.925 571 341.697 414 c 0
 336.037 306 365.215 214 454.22 195 c 1
 478.758 377 504.82 569 530.306 750 c 1x80
429 0 m 1
 196.157 3 73.3809 179 85.6445 413 c 0
 100.528 697 302.635 928 559.102 956 c 1
 568.613 1023 l 1
 574.443 1077 606.482 1135 663.482 1135 c 0
 691.482 1135 701.915 1086 700.395 1057 c 0xa0
 698.823 1027 692.359 980 687.997 954 c 1
 811.054 936 931.385 866 924.205 729 c 0
 919.855 646 881.51 544 800.51 544 c 0
 674.51 544 776.834 741 664.092 765 c 1
 642.554 583 623.648 394 596.586 202 c 1
 665.635 222 748.202 271 801.089 307 c 0
 809.403 313 818.456 314 825.456 314 c 0
 868.456 314 897.73 262 895.425 218 c 0
 894.01 191 880.172 175 862.438 161 c 0
 783.136 98 683.677 32 568.262 5 c 1
 545.188 -130 l 1
 535.248 -167 521.571 -199 479.571 -199 c 0
 471.571 -199 465.623 -198 458.623 -198 c 0
 422.623 -198 416.239 -129 418.336 -89 c 0xc0
 420.17 -54 424.903 -40 429 0 c 1
EndSplineSet
EndChar

StartChar: yen
Encoding: 101 165 125
Width: 1793
Flags: HW
HStem: 1 186<462.146 634.186> 385 160<460.902 683 1007 1358.08> 641 160<461.462 743 1148 1389.01> 1472 219<374.148 550.603>
LayerCount: 2
Fore
SplineSet
1267.56 545 m 2
 1323.56 545 1404.09 536 1401.21 481 c 0
 1396.81 397 1303.18 385 1211.18 385 c 2
 965.177 385 l 1
 891.748 186 813.053 1 557.053 1 c 0
 484.053 1 415.887 36 419.66 108 c 0
 422.07 154 450.163 213 495.163 213 c 0
 544.163 213 567.8 187 609.8 187 c 0
 642.8 187 685.452 333 703.177 385 c 1
 609.177 385 l 2
 534.177 385 469.226 405 472.894 475 c 0
 476.091 536 549.562 545 617.562 545 c 2
 753.562 545 l 1
 782.594 641 l 1
 627.594 641 l 2
 550.594 641 482.589 660 486.311 731 c 0
 489.56 793 566.979 801 635.979 801 c 2
 784.979 801 l 1
 755.352 1018 736.969 1316 611.781 1446 c 0
 594.673 1463 577.145 1472 557.145 1472 c 0
 459.145 1472 348.117 1357 270.029 1279 c 1
 225.497 1307 194.855 1352 151.371 1400 c 1
 253.293 1513 372.9 1620 522.626 1672 c 0
 559.307 1685 592.621 1691 621.621 1691 c 0
 840.621 1691 900.218 1378 936.155 1186 c 0
 954.967 1087 971.412 981 985.542 869 c 1
 1164.22 1111 1335.48 1364 1507.01 1603 c 0
 1531.79 1637 1584.84 1657 1641.84 1657 c 0
 1702.84 1657 1745.48 1631 1742.28 1570 c 0
 1737.09 1471 1665.58 1404 1609.81 1332 c 0
 1476.79 1160 1327.36 980 1189.98 801 c 1
 1307.98 801 l 2
 1364.98 801 1449.56 793 1446.62 737 c 0
 1442.17 652 1342.59 641 1249.59 641 c 2
 1075.59 641 l 1
 1035.56 545 l 1
 1267.56 545 l 2
EndSplineSet
EndChar

StartChar: Y
Encoding: 59 89 126
Width: 1461
Flags: HW
HStem: -163 164<371.482 527.611> 1426.54 214.93<98.874 325.987>
VStem: -100.685 162.564<1227.06 1393.82>
LayerCount: 2
Back
SplineSet
1403 1602 m 4
 1472 1602 1515 1561 1515 1491 c 4
 1515 1404 1464 1332 1424 1251 c 4
 1317 1035 1186 809 1056 605 c 5
 996 506 l 5
 876 342 770 191 628 68 c 4
 560 9 492 -35 374 -35 c 4
 270 -35 117 62 117 162 c 4
 117 183 126 200 148 200 c 4
 217 200 267 159 350 159 c 4
 476 159 680 454 774 645 c 5
 688 860 516 1161 458 1252 c 4
 412 1324 358 1410 280 1410 c 4
 222 1410 194 1385 194 1330 c 4
 194 1307 199 1278 209 1243 c 4
 211 1238 212 1235 212 1231 c 4
 212 1215 196 1207 174 1207 c 5
 174 1207 7 1265 7 1378 c 4
 7 1539 155 1596 323 1596 c 4
 568 1596 698 1345 788 1148 c 5
 835 1059 880 965 924 864 c 5
 1048 1089 1163 1326 1281 1548 c 4
 1299 1581 1352 1602 1403 1602 c 4
EndSplineSet
Fore
SplineSet
78.1562 1151.21 m 0
 71.7715 1151.21 -35.7979 1238.12 -29.752 1353.49 c 0
 -22.2168 1497.27 151.742 1641.47 316.807 1641.47 c 0
 748.073 1641.47 879.521 1360.33 965.173 1110 c 2
 1065.76 816 l 1
 1210.34 1076.2 1344.78 1350.99 1484.22 1607 c 0
 1502.59 1640.72 1558.05 1661 1609.05 1661 c 0
 1678.05 1661 1718.9 1620 1715.23 1550 c 0
 1710.67 1463 1652.85 1392.46 1611.65 1310 c 0
 1372.25 830.699 1082.76 269.1 713.855 -60 c 0
 644.908 -121.508 572.457 -163 454.457 -163 c 0
 334.271 -163 162.541 -66 167.782 34 c 0
 170.851 92.5527 219.959 132.101 279.434 132.101 c 0
 349.326 132.101 367.045 1 439.053 1 c 0
 568.024 1 795.795 362.77 904.287 597 c 1
 796.504 842.152 576.846 1426.54 254.302 1426.54 c 0
 182.281 1426.54 132.353 1344.7 129.876 1297.45 c 0
 129.397 1288.32 131.049 1280.44 130.412 1268.29 c 0
 128.03 1222.84 111.395 1151.21 78.1562 1151.21 c 0
EndSplineSet
EndChar

StartChar: underscore
Encoding: 65 95 127
Width: 1248
Flags: HW
HStem: 0 225<24.9241 1209.87>
LayerCount: 2
Fore
SplineSet
128 0 m 2
 55 0 -4.21777 34 -0.339844 108 c 0
 5.4248 218 135.739 224 247.739 224 c 2
 507.739 224 l 2
 620.739 224 748.792 225 864.792 225 c 2
 1195.79 225 l 2
 1244.79 225 1277.01 210 1274.54 163 c 0
 1267.73 33 1156 0 1020 0 c 2
 128 0 l 2
EndSplineSet
EndChar

StartChar: copyright
Encoding: 105 169 128
Width: 1792
Flags: HW
HStem: 32 160<575.471 1070.54> 323 173<777.906 1023.47> 986 172<814.795 938.819> 1278 162<704.336 1195.86>
VStem: 107 185<447.686 879.792> 518 221<532.246 887.909> 939 187<824.921 981.834> 1441 185<578.877 1041.7>
LayerCount: 2
Fore
SplineSet
1143.76 587 m 0
 1181.76 587 1199.99 534 1197.94 495 c 0
 1196.63 470 1185.69 452 1169.06 440 c 0
 1088.07 383 979.928 323 846.928 323 c 0
 621.928 323 543.261 482 552.589 660 c 0
 560.869 818 637.831 989 742.391 1076 c 0
 796.749 1121 866.688 1158 958.688 1158 c 0
 1085.69 1158 1182.81 1084 1176.26 959 c 0
 1171.8 874 1123.09 784 1039.09 784 c 0
 988.088 784 975.397 809 977.966 858 c 0
 979.171 881 987.268 921 988.421 943 c 0
 989.573 965 987.674 986 967.674 986 c 0
 831.674 986 781.607 813 774.48 677 c 0
 769.292 578 800.994 496 901.994 496 c 0
 985.994 496 1068.72 548 1125.5 582 c 1
 1132.66 585 1138.76 587 1143.76 587 c 0
325.855 646 m 0
 309.924 342 536.062 192 848.062 192 c 0
 1215.06 192 1465.74 472 1484.66 833 c 0
 1500.01 1126 1319.98 1278 1019.98 1278 c 0
 638.978 1278 345.456 1020 325.855 646 c 0
1064.47 1440 m 0
 1454.47 1440 1690.15 1224 1669.92 838 c 0
 1648.85 436 1386.54 163 1071.46 66 c 0
 998.306 44 919.677 32 835.677 32 c 0
 418.677 32 120.154 251 141.432 657 c 0
 167.06 1146 573.467 1440 1064.47 1440 c 0
EndSplineSet
EndChar

StartChar: registered
Encoding: 109 174 129
Width: 1760
Flags: HW
HStem: 38 164<579.658 1088.39> 371 116<418.352 535.265> 387 145<912 1164.7> 800 116<845 878.514> 920 20G<597.5 615.5> 1143 136<887.888 1083.24> 1394 163<740.907 1252.63>
VStem: 71 179<504.264 925.936> 1103 179<966.736 1119.33> 1489 193<652.303 1152.15>
LayerCount: 2
Fore
SplineSet
1157.71 1044 m 0x9fc0
 1161.28 1112 1097.9 1143 1017.9 1143 c 2
 956.902 1143 l 1
 937.023 1069 915.937 991 893.163 919 c 1
 908.058 917 922.006 916 937.006 916 c 0
 1031.01 916 1153.15 957 1157.71 1044 c 0x9fc0
848.926 800 m 1
 795.488 639 726.443 371 536.443 371 c 0
 494.443 371 449.758 377 424.754 396 c 1
 449.204 500 l 1
 459.784 492 475.522 487 493.522 487 c 0xdfc0
 599.522 487 655.201 748 676.761 835 c 1
 650.599 851 623.333 865 625.062 898 c 0
 626.006 916 637.264 940 656.264 940 c 0
 673.264 940 693.844 932 710.844 932 c 1
 741.456 1020 794.4 1267 899.4 1267 c 0
 959.4 1267 1020.03 1279 1082.03 1279 c 0
 1234.03 1279 1344.99 1202 1337.24 1054 c 0
 1329.06 898 1174.82 817 1020.4 809 c 1
 1096.62 775 1095.53 697 1093.97 591 c 0
 1093.51 563 1094.88 532 1120.88 532 c 0
 1188.88 532 1251.87 589 1289.86 627 c 1
 1322.94 514 l 1
 1250.42 466 1144.28 387 1024.28 387 c 0xbfc0
 840.282 387 986.926 800 878.926 800 c 2
 848.926 800 l 1
287.314 712 m 0
 269.653 375 514.586 202 860.586 202 c 0
 1262.59 202 1516.99 534 1537.74 930 c 0
 1553.04 1222 1395.06 1394 1099.06 1394 c 0
 703.057 1394 420.998 1183 318.856 875 c 0
 300.975 820 290.145 766 287.314 712 c 0
1082.6 1557 m 0
 1497.6 1557 1751.7 1330 1730.27 921 c 0
 1707.52 487 1438.54 182 1101.88 74 c 0
 1025.62 50 943.991 38 856.991 38 c 0
 399.991 38 86.251 291 109.572 736 c 0
 136.771 1255 561.599 1557 1082.6 1557 c 0
EndSplineSet
EndChar

StartChar: quotedblright
Encoding: 214 8221 130
Width: 1184
Flags: HW
HStem: 1185 671<230.852 324.121 614.852 708.121>
VStem: 192 296<1527.42 1815.67> 576 296<1527.42 1815.67>
LayerCount: 2
Fore
SplineSet
686.104 1185 m 0
 635.104 1185 608.305 1227 611.239 1283 c 0
 619.362 1438 658.595 1576 666.561 1728 c 0
 670.858 1810 758.269 1856 841.269 1856 c 0
 914.269 1856 967.382 1820 963.557 1747 c 0
 955.485 1593 856.895 1410 803.082 1280 c 0
 783.514 1231 743.104 1185 686.104 1185 c 0
302.104 1185 m 0
 251.104 1185 224.305 1227 227.239 1283 c 0
 235.362 1438 274.595 1576 282.561 1728 c 0
 286.858 1810 374.269 1856 457.269 1856 c 0
 530.269 1856 583.382 1820 579.557 1747 c 0
 571.485 1593 472.895 1410 419.082 1280 c 0
 399.514 1231 359.104 1185 302.104 1185 c 0
EndSplineSet
EndChar

StartChar: quotedblleft
Encoding: 213 8220 131
Width: 1184
Flags: HW
HStem: 1184 671<323.879 417.303 707.879 801.303>
VStem: 160 296<1223.9 1512.24> 544 296<1223.9 1512.24>
LayerCount: 2
Fore
SplineSet
505.217 1855 m 0
 556.217 1855 583.016 1813 580.08 1757 c 0
 571.957 1602 532.673 1463 524.759 1312 c 0
 520.409 1229 434.051 1184 350.051 1184 c 0
 277.051 1184 223.885 1219 227.764 1293 c 0
 235.834 1447 334.372 1629 388.237 1760 c 0
 407.806 1809 448.217 1855 505.217 1855 c 0
889.217 1855 m 0
 940.217 1855 967.016 1813 964.08 1757 c 0
 955.957 1602 916.673 1463 908.759 1312 c 0
 904.409 1229 818.051 1184 734.051 1184 c 0
 661.051 1184 607.885 1219 611.764 1293 c 0
 619.834 1447 718.372 1629 772.237 1760 c 0
 791.806 1809 832.217 1855 889.217 1855 c 0
EndSplineSet
EndChar

StartChar: quoteleft
Encoding: 210 8216 132
Width: 704
Flags: HW
HStem: 1184 671<331.39 382.403>
VStem: 170 298.817
LayerCount: 2
Fore
SplineSet
505.217 1855 m 0
 539.955 1855 564.218 1820.36 561.687 1772.05 c 0
 561.43 1767.16 560.9 1762.14 560.08 1757 c 2
 484.759 1312 l 2
 470.462 1230 414.051 1184 350.051 1184 c 0
 282.754 1184 233.885 1219 237.764 1293 c 0
 245.834 1447 344.372 1629 398.237 1760 c 1
 416.288 1809 453.306 1855 505.217 1855 c 0
EndSplineSet
EndChar

StartChar: quoteright
Encoding: 211 8217 133
Width: 640
Flags: HW
HStem: 1185 671<286.452 338.402>
VStem: 252 252.076<1595.61 1820.68>
LayerCount: 2
Fore
SplineSet
332.104 1185 m 4
 302.73 1185 283.506 1220.67 286.096 1270.09 c 4
 286.316 1274.3 286.694 1278.6 287.239 1283 c 6
 342.561 1728 l 6
 352.858 1810 419.09 1856 487.269 1856 c 4
 539.67 1856 599.372 1818.36 595.977 1753.56 c 4
 595.38 1742.19 592.843 1729.98 587.984 1717 c 6
 418.034 1260 l 5
 404.752 1221.32 373.835 1185 332.104 1185 c 4
EndSplineSet
EndChar

StartChar: mu
Encoding: 115 181 134
Width: 962
Flags: HW
HStem: 10 213<687.5 948.969> 60 165<345.172 475.433> 939 20G<280 356.5 740.5 791.5>
VStem: 32 306<-168 333.497> 32 261<-184.677 60.4067> 181 254<659.208 934.25> 644 232<828.438 943.459>
LayerCount: 2
Fore
SplineSet
815.259 959 m 0x72
 868.259 959 925.315 941 922.905 895 c 0
 913.104 708 819.828 531 810.447 352 c 2
 809.138 327 l 2
 806.412 275 806.687 223 856.687 223 c 0
 999.687 223 1168.39 370 1237.79 454 c 1
 1235.7 414 1234.92 380 1232.92 342 c 0
 1230.98 305 1230.31 273 1228.26 234 c 1
 1121.97 133 935.524 10 745.524 10 c 0xb2
 630.524 10 604.185 118 588.268 215 c 1
 535.494 143 455.145 60 353.145 60 c 0
 333.145 60 314.354 64 296.773 72 c 1x6a
 273.017 -76 272.584 -256 114.584 -256 c 0
 38.584 -256 21.0996 -208 25.292 -128 c 0x72
 42.7432 205 139.981 553 225.127 842 c 0
 251.844 932 274.259 959 386.259 959 c 0
 427.259 959 484.84 951 483.215 920 c 2
 483.058 917 l 1x66
 442.415 733 397.934 533 360.29 349 c 0
 356.242 329 354.718 319 354.666 318 c 0
 352.359 274 364.792 225 407.792 225 c 0
 494.792 225 546.718 319 565.648 394 c 2
 691.271 902 l 2
 701.211 939 766.259 959 815.259 959 c 0x72
EndSplineSet
EndChar

StartChar: degree
Encoding: 110 176 135
Width: 737
Flags: HW
HStem: 1055 148<235.085 442.62> 1489 143<276.151 494.778>
VStem: 64 151<1223.68 1428.29> 509 163<1268.15 1476.03>
LayerCount: 2
Fore
SplineSet
581.742 1388 m 0
 584.834 1447 552.035 1489 491.035 1489 c 0
 381.035 1489 289.576 1423 283.969 1316 c 0
 280.457 1249 319.047 1203 387.047 1203 c 0
 492.047 1203 576.344 1285 581.742 1388 c 0
379.29 1055 m 0
 223.29 1055 124.531 1155 133.021 1317 c 0
 143.188 1511 334.529 1632 525.529 1632 c 0
 661.529 1632 752.812 1542 745.528 1403 c 0
 734.732 1197 580.29 1055 379.29 1055 c 0
EndSplineSet
EndChar

StartChar: guillemotleft
Encoding: 107 171 153
Width: 1440
Flags: HW
LayerCount: 2
Fore
SplineSet
1398.28 158 m 0
 1395.61 107 1335.83 73 1281.83 73 c 0
 1261.83 73 1238.93 75 1218.56 87 c 0
 1070.07 173 977.255 272 864.177 385 c 0
 825.221 424 792.475 467 795.934 533 c 0
 805.21 710 1045.4 809 1154.33 884 c 0
 1215.58 927 1275.36 999 1361.36 999 c 0
 1423.36 999 1471.21 958 1467.96 896 c 0
 1464.92 838 1408.19 805 1362.51 773 c 2
 1024.51 544 l 1
 1281.4 313 l 1
 1322.36 274 1402.58 240 1398.28 158 c 0
822.28 158 m 0
 819.607 107 759.826 73 705.826 73 c 0
 685.826 73 662.931 75 642.56 87 c 0
 494.066 173 401.255 272 288.177 385 c 0
 249.221 424 216.475 467 219.934 533 c 0
 229.21 710 469.397 809 578.328 884 c 0
 639.582 927 699.355 999 785.355 999 c 0
 847.355 999 895.207 958 891.957 896 c 0
 888.918 838 832.188 805 786.512 773 c 2
 448.51 544 l 1
 705.403 313 l 1
 746.359 274 826.578 240 822.28 158 c 0
EndSplineSet
EndChar

StartChar: guillemotright
Encoding: 121 187 154
Width: 1440
Flags: HW
DStem2: 505 884 291 773 0.818287 -0.574809<-227.45 284.443> 1081 884 867 773 0.818287 -0.574809<-227.45 284.443>
LayerCount: 2
Fore
SplineSet
238.957 896 m 0
 242.207 958 294.355 999 356.355 999 c 0
 437.355 999 498.425 924 551.328 884 c 0
 598.494 849 649.24 806 695.773 778 c 0
 773.311 731 879.274 654 872.934 533 c 0
 867.588 431 774.601 374 716.666 318 c 0
 624.001 229 526.07 154 403.56 87 c 0
 381.931 75 358.826 73 338.826 73 c 0
 284.826 73 228.607 107 231.28 158 c 0
 235.735 243 317.359 274 364.403 313 c 2
 645.51 544 l 1
 331.511 773 l 2
 289.188 805 235.918 838 238.957 896 c 0
814.957 896 m 0
 818.207 958 870.355 999 932.355 999 c 0
 1013.36 999 1074.42 924 1127.33 884 c 0
 1174.49 849 1225.24 806 1271.77 778 c 0
 1349.31 731 1455.27 654 1448.93 533 c 0
 1443.59 431 1350.6 374 1292.67 318 c 0
 1200 229 1102.07 154 979.56 87 c 0
 957.931 75 934.826 73 914.826 73 c 0
 860.826 73 804.607 107 807.28 158 c 0
 811.735 243 893.359 274 940.403 313 c 2
 1221.51 544 l 1
 907.512 773 l 2
 865.188 805 811.918 838 814.957 896 c 0
EndSplineSet
EndChar

StartChar: sterling
Encoding: 99 163 155
Width: 1505
Flags: HW
HStem: -29 244<936 1284.78> -2 274<1097.56 1490.59> 768 224<544.564 748 1024 1393.06> 1470 244<1183.44 1485.04>
VStem: 634 302<215 379.203> 768 256<992 1276.94> 1502 210<1286.27 1447.7>
DStem2: 666 292 939 244 0.147823 0.989014<-36.1659 482.892>
LayerCount: 2
Fore
SplineSet
1315.99 992 m 2xb6
 1403.99 992 1472.21 958 1467.49 868 c 0
 1463.25 787 1389.25 768 1303.25 768 c 2
 1052.25 768 l 1
 1024.08 593 985.592 412 951.787 244 c 0
 947.844 226 946.32 216 947.268 215 c 1xba
 1143.27 215 1267.25 272 1447.25 272 c 0
 1517.25 272 1601.58 240 1597.91 170 c 0
 1589.16 3 1345.89 17 1190.9 -2 c 0x7a
 1085.21 -15 955.48 -29 840.48 -29 c 0
 715.48 -29 634.786 15 641.075 135 c 0xba
 643.957 190 665.05 249 681.303 292 c 1
 705.321 445 764.969 610 788.249 768 c 1
 672.249 768 l 2
 605.249 768 567.765 816 571.066 879 c 0
 575.207 958 624.988 992 707.988 992 c 2
 819.988 992 l 1
 841.371 1400 1033.83 1714 1432.83 1714 c 0
 1652.83 1714 1796.9 1620 1785.27 1398 c 0
 1781.34 1323 1744.35 1266 1672.35 1266 c 0
 1617.35 1266 1570.18 1301 1573.06 1356 c 0
 1578.25 1455 1519.04 1470 1421.04 1470 c 0
 1167.04 1470 1089.56 1251 1075.99 992 c 1
 1315.99 992 l 2xb6
EndSplineSet
EndChar

StartChar: trademark
Encoding: 226 8482 156
Width: 2302
Flags: HW
HStem: 400 140<1846 2022.03> 1078 188<1248.89 1403.52 1688.71 1827.81>
VStem: 116 205<898.061 1054.25> 367 183<421.271 668.89> 762 224<401.099 564.337> 1352 149<866.344 1076.85> 1748 162<541.969 764.08> 1834 158<773.599 1075.06>
LayerCount: 2
Fore
SplineSet
1402.42 962 m 0xfd
 1405.25 1016 1406.5 1078 1362.5 1078 c 0
 1267.5 1078 1163.82 798 1126.73 720 c 0
 1087.28 635 1049.09 536 1009.74 453 c 0
 989.487 410 947.915 380 892.915 380 c 0
 828.915 380 784.326 426 787.837 493 c 0
 799.314 712 929.49 868 953.391 1076 c 1
 897.967 1087 832.067 1108 772.382 1114 c 1
 698.481 906 638.318 693 576.466 505 c 0
 560.95 457 519.439 390 463.439 390 c 0
 414.439 390 389.063 421 391.841 474 c 0
 400.488 639 495.346 808 557.315 941 c 0
 585.513 1002 611.5 1059 636.382 1114 c 1
 527.753 1102 378.281 1093 372.045 974 c 0
 368.9 914 317.119 880 250.119 880 c 0
 192.119 880 164.215 920 167.045 974 c 0
 181.248 1245 490.349 1266 766.349 1266 c 0
 870.349 1266 960.457 1249 1041.83 1218 c 0
 1042.78 1217 1043.78 1217 1045.78 1217 c 0
 1050.83 1218 1055.88 1219 1058.88 1219 c 0
 1102.88 1219 1136.95 1182 1134.64 1138 c 0
 1134.27 1131 1131.96 1125 1130.64 1119 c 0
 1075.42 962 1018.08 803 963.327 655 c 1
 980.908 647 l 1
 1064.38 866 1149.12 1090 1307.83 1218 c 0
 1341.25 1245 1375.35 1266 1422.35 1266 c 0
 1526.35 1266 1562.11 1166 1556.03 1050 c 2
 1555.08 1032 l 2
 1554.77 1026 1554.46 1020 1553.14 1014 c 2
 1537.28 864 l 1
 1593.67 1024 1687.35 1266 1880.35 1266 c 0
 2008.35 1266 2053.95 1182 2047.34 1056 c 0xfd
 2039.43 905 1994.62 756 1956.44 638 c 0
 1945.76 606 1940.66 585 1940.08 574 c 0
 1938.88 551 1946.3 540 1961.3 540 c 0
 2043.3 540 2144.43 676 2177.21 729 c 1
 2188.21 729 2208.13 613 2214.66 585 c 1
 2139.42 485 2049.96 400 1913.96 400 c 0
 1819.96 400 1773.05 478 1778.13 575 c 0xfe
 1785.47 715 1877.81 836 1886.04 993 c 0
 1888.5 1040 1878.5 1078 1833.5 1078 c 0
 1643.5 1078 1538.65 604 1487.85 455 c 0
 1471.38 408 1424.92 380 1363.92 380 c 0
 1314.92 380 1292.06 421 1294.53 468 c 2
 1294.95 476 l 2
 1302.81 626 1393.4 790 1402.42 962 c 0xfd
EndSplineSet
EndChar

StartChar: brokenbar
Encoding: 102 166 157
Width: 1025
Flags: HW
HStem: 943 21G<575 655>
VStem: 481 254<981.581 1364.17> 575 233<1492.49 1821.06>
DStem2: 400 608 623 338 0.145148 0.98941<-593.88 10.1102 414.08 1124.52>
LayerCount: 2
Fore
SplineSet
406.615 -160 m 0x80
 331.615 -160 304.017 -76 308.053 1 c 0
 319.425 218 389.806 397 431.864 608 c 0
 445.689 681 491.254 749 572.254 749 c 0
 655.254 749 689.166 671 684.658 585 c 0
 680.151 499 651.911 399 640.714 338 c 2
 615.167 194 l 2
 598.188 99 583.625 31 562.646 -64 c 0
 549.396 -126 519.51 -162 450.51 -162 c 0
 435.51 -162 420.615 -160 406.615 -160 c 0x80
664.421 943 m 0
 584.421 943 534.194 1015 538.491 1097 c 2
 539.173 1110 l 2xc0
 539.382 1114 540.696 1120 541.959 1125 c 0
 576.493 1326 612.708 1540 665.561 1728 c 0
 682.862 1791 724.164 1854 788.164 1854 c 0
 873.164 1854 900.08 1757 895.416 1668 c 2
 894.264 1646 l 2xa0
 885.092 1471 823.349 1266 792.02 1088 c 0xc0
 779.142 1014 744.421 943 664.421 943 c 0
EndSplineSet
EndChar

StartChar: germandbls
Encoding: 157 223 162
Width: 1281
Flags: HW
HStem: 3 208<464.671 876.51> 846 115<824 918.058> 1404 194<651.604 1000.26>
VStem: 64 266<-131.386 537.928> 600 224<732 956> 1037 224<347.835 628.998> 1069 224<1090.16 1342.5>
LayerCount: 2
Fore
SplineSet
338.333 159 m 0xfa
 334.56 87 333.311 25 329.956 -39 c 0
 325.868 -117 259.72 -158 182.72 -158 c 0
 118.72 -158 57.2393 -129 60.4365 -68 c 0
 95.916 609 194.223 1359 693.651 1558 c 0
 761.066 1585 834.748 1598 917.748 1598 c 0
 1159.75 1598 1370.2 1473 1357.99 1240 c 0xfa
 1344.46 982 1130.65 852 868.337 846 c 1
 1123.34 846 1297.84 703 1284.79 454 c 0
 1269.44 161 988.157 3 685.157 3 c 0
 595.157 3 515.362 26 444.726 52 c 1
 480.264 234 l 1
 528.478 219 584.058 211 644.058 211 c 0
 852.058 211 1051.78 282 1062.63 489 c 0xfc
 1074.94 724 865.323 674 707.096 746 c 0
 668.987 763 641.402 790 644.232 844 c 0
 648.792 931 666.364 961 753.364 961 c 0
 946.364 961 1123.66 1043 1133.57 1232 c 0
 1140.01 1355 1033.58 1404 909.58 1404 c 0
 410.58 1404 364.065 650 338.333 159 c 0xfa
EndSplineSet
EndChar

StartChar: asciitilde
Encoding: 96 126 163
Width: 864
Flags: HW
HStem: 1295 418 1378 21G<206 276.5>
DStem2: 608 1568 410 1541 0.710581 -0.703615<-117.866 139.713>
LayerCount: 2
Fore
SplineSet
301.218 1378 m 0x40
 255.218 1378 219.633 1405 222.044 1451 c 0
 228.07 1566 363.774 1713 481.774 1713 c 0
 588.774 1713 634.215 1626 690.176 1568 c 2
 786.882 1467 l 1
 838.712 1521 877.425 1630 976.425 1630 c 0
 1022.42 1630 1058.01 1603 1055.6 1557 c 0
 1049.57 1442 913.868 1295 795.868 1295 c 0x80
 688.868 1295 643.428 1382 587.467 1440 c 2
 490.761 1541 l 1
 443.878 1486 396.218 1378 301.218 1378 c 0x40
EndSplineSet
EndChar

StartChar: tilde
Encoding: 206 732 165
Width: 960
Flags: HW
HStem: 1055 368
DStem2: 506 1324 328 1251 0.787112 -0.61681<-92.6799 153.459>
LayerCount: 2
Fore
SplineSet
204.02 1088 m 0
 158.02 1088 122.435 1115 124.846 1161 c 0
 130.872 1276 266.576 1423 384.576 1423 c 0
 474.576 1423 518.852 1371 575.388 1324 c 0
 606.078 1299 644.349 1266 692.305 1227 c 1
 744.135 1281 782.847 1390 881.847 1390 c 0
 927.847 1390 963.432 1363 961.021 1317 c 0
 954.994 1202 819.29 1055 701.29 1055 c 0
 611.29 1055 567.016 1107 510.479 1154 c 0
 479.789 1179 441.519 1212 393.562 1251 c 1
 346.68 1196 299.02 1088 204.02 1088 c 0
EndSplineSet
EndChar

StartChar: exclamdown
Encoding: 97 161 189
Width: 1184
Flags: HW
HStem: 1501 355<717.208 946.237>
VStem: 246 80<-10 93> 658 345<1556.84 1797.18> 705 130<1239.85 1385.21>
LayerCount: 2
Fore
SplineSet
745.154 1663 m 0xe0
 750.919 1773 820.269 1856 936.269 1856 c 0
 1042.27 1856 1097.28 1799 1091.67 1692 c 0
 1085.65 1577 1015.66 1501 898.664 1501 c 0
 794.664 1501 739.704 1559 745.154 1663 c 0xe0
861.951 1392 m 0
 886.951 1392 907.428 1382 906.117 1357 c 0
 905.96 1354 904.698 1349 903.331 1342 c 0
 837.22 901 673.671 528 548.861 150 c 0
 515.673 51 443.896 -2 320.896 -2 c 1
 323.686 -6 325.528 -9 325.476 -10 c 0
 325.424 -11 325.371 -12 324.371 -12 c 0
 314.371 -12 248.358 45 250.874 93 c 0
 257.372 217 302.771 320 344.221 424 c 0
 470.939 743 622.509 1021 775.331 1342 c 1xd0
 783.008 1374 824.951 1392 861.951 1392 c 0
EndSplineSet
EndChar

StartChar: section
Encoding: 103 167 191
Width: 1440
Flags: HW
HStem: -117 179<500.722 837.798> 1312 179<690.113 1000>
VStem: 224 211<122.501 356.056> 332 223<708.262 889.297> 396 251<1104.76 1269.81> 892 252<113.852 324.885> 1006 222<520.973 713.511> 1068 188<1023.84 1249.55>
LayerCount: 2
Fore
SplineSet
981.938 514 m 1xd2
 1010.3 540 1036.19 576 1038.75 625 c 0
 1044.42 733 876.717 796 797.812 836 c 0
 752.966 858 709.276 883 666.586 908 c 1
 631.066 879 599.075 841 596.245 787 c 0
 590.428 676 821.864 608 895.768 568 c 0
 925.929 552 953.934 533 981.938 514 c 1xd2
899.759 1312 m 0
 807.759 1312 713.558 1270 709.104 1185 c 0
 703.652 1081 918.984 1011 988.888 971 c 0
 1109.32 903 1270.55 812 1260.75 625 c 0xca
 1254.57 507 1188.59 431 1112.71 376 c 1
 1140.29 330 1158.36 274 1154.48 200 c 0
 1142.9 -21 898.868 -117 674.868 -117 c 0
 437.868 -117 223.371 -12 235.687 223 c 0
 240.613 317 302.383 408 391.383 408 c 0
 432.383 408 473.754 396 471.71 357 c 0
 469.509 315 449.465 276 446.739 224 c 0xe4
 440.398 103 567.249 62 690.249 62 c 0
 791.249 62 897.765 110 903.006 210 c 0
 912.334 388 648.055 459 536.671 528 c 0
 454.344 579 366.117 651 372.982 782 c 0xd4
 378.695 891 452.416 962 533.984 1011 c 1
 492.395 1057 454.33 1113 458.732 1197 c 0
 469.737 1407 716.14 1491 938.14 1491 c 0
 1142.14 1491 1327.01 1355 1316.32 1151 c 0xc9
 1312.08 1070 1273.36 999 1196.36 999 c 0xc4
 1149.36 999 1112.03 1031 1114.6 1080 c 0
 1115.75 1102 1127.01 1126 1128.16 1148 c 0xc1
 1134.09 1261 1014.76 1312 899.759 1312 c 0
EndSplineSet
EndChar

StartChar: currency
Encoding: 100 164 192
Width: 1472
Flags: HW
HStem: 452 193<556.779 840.867> 1348 192<651.478 947.145>
VStem: 248 224<734.167 1140.66> 1016 225<873.004 1276.14>
LayerCount: 2
Fore
SplineSet
519.22 901 m 0
 511.306 750 580.803 645 729.803 645 c 0
 953.803 645 1063.17 900 1074.96 1125 c 0
 1081.51 1250 1019.65 1348 894.646 1348 c 0
 653.646 1348 532.007 1145 519.22 901 c 0
924.466 505 m 1
 858.789 473 782.688 452 689.688 452 c 0
 580.688 452 499.418 485 438.038 535 c 1
 369.522 487 293.535 430 216.701 395 c 0
 196.229 386 178.968 381 165.968 381 c 0
 120.968 381 86.4834 429 88.8408 474 c 0
 91.3564 522 132.771 549 172.187 576 c 2
 329.689 681 l 1
 302.096 746 290.975 820 295.22 901 c 0
 303.758 1083 373.776 1236 467.384 1343 c 1
 376.891 1429 l 2
 350.253 1455 320.563 1480 322.712 1521 c 0
 325.228 1569 381.058 1623 429.058 1623 c 0
 455.058 1623 484.271 1608 515.752 1579 c 2
 630.196 1473 l 1
 706.346 1514 798.708 1540 910.708 1540 c 0
 1019.71 1540 1104.14 1510 1165.62 1462 c 1
 1225.72 1502 1315.22 1588 1397.22 1588 c 0
 1443.22 1588 1477.76 1541 1475.35 1495 c 0
 1472.83 1447 1431.42 1420 1392.06 1394 c 2
 1272.92 1315 l 1
 1294.93 1258 1303.58 1194 1299.91 1124 c 0
 1288.74 911 1202.04 745 1093.02 630 c 1
 1187.35 541 l 2
 1223.52 506 1240.95 476 1240.64 451 c 1
 1238.07 402 1183.19 347 1135.19 347 c 0
 1049.19 347 972.107 460 924.466 505 c 1
EndSplineSet
EndChar

StartChar: paragraph
Encoding: 116 182 193
Width: 1308
Flags: HW
VStem: 465 247<10.2716 280.065> 910 251<44.8101 301.994>
DStem2: 471 114 788 466 0.1809 0.983501<-33.0789 821.035>
LayerCount: 2
Fore
SplineSet
1011 0 m 0
 954 0 911.887 36 914.979 95 c 0
 915.556 106 917.132 117 920.656 127 c 1
 979.439 390 1024.27 673 1087.79 931 c 1
 1036.48 925 969.268 921 917.9 914 c 1
 883.039 764 847.283 616 812.422 466 c 0
 780.295 330 751.853 188 714.883 55 c 0
 702.576 11 646.581 -8 588.581 -8 c 0
 525.581 -8 465.943 18 469.245 81 c 0
 469.77 91 472.346 102 476.975 114 c 1
 519.544 392 583.437 638 643.529 926 c 1
 376.529 926 150.504 1040 163.868 1295 c 0
 180.691 1616 628.347 1743 951.347 1743 c 2
 953.347 1743 l 2
 1191.35 1743 1502.35 1743 1490.61 1519 c 0
 1485.73 1426 1445.39 1324 1421.83 1218 c 0
 1342.12 861 1277.32 464 1167.6 126 c 0
 1146.09 59 1093 0 1011 0 c 0
EndSplineSet
EndChar

StartChar: AE
Encoding: 132 198 195
Width: 2304
Flags: HW
HStem: -96 224<1544.35 2017.58> -64 224<508.142 768.015> 800 192<1543.49 2085.59> 1426 192<1148.15 1397.96> 1504 192<1768.2 2173.41>
VStem: 128 288<256.038 717.038> 1213 230<225.293 462>
LayerCount: 2
Fore
SplineSet
439.898 456 m 0x76
 430.727 281 487.385 160 656.385 160 c 0
 980.385 160 1212.07 650 1294.96 896 c 2
 1474.73 1426 l 1
 1197.73 1426 972.768 1274 811.378 1133 c 0
 637.412 981 455.83 760 439.898 456 c 0x76
1463.44 390 m 0
 1453.95 209 1549.71 128 1728.71 128 c 0
 2016.71 128 2281.26 253 2445.54 392 c 0
 2479.01 420 2505.48 448 2524 477 c 1
 2581.1 250 l 1
 2388.93 56 2086.97 -96 1722.97 -96 c 0xae
 1434.97 -96 1215.15 41 1230.24 329 c 0
 1231.13 346 1233.13 365 1236.12 384 c 1
 1122.01 210 950.62 50 752.48 -29 c 0
 693.274 -52 638.646 -64 587.646 -64 c 0
 292.646 -64 135.809 149 151.584 450 c 0
 169.35 789 360.871 1047 546.514 1231 c 0
 751.101 1433 1038.8 1618 1420.8 1618 c 0x76
 1515.8 1618 1613.86 1581 1608.88 1486 c 0
 1608.41 1477 1606.93 1468 1604.41 1458 c 1
 1687.28 1589 1799.88 1696 1997.88 1696 c 0
 2231.88 1696 2402.22 1588 2587.39 1534 c 1
 2605.76 1522 2614.56 1499 2612.99 1469 c 0
 2610.1 1414 2573.75 1331 2520.75 1331 c 0
 2485.75 1331 2451.8 1370 2412.85 1390 c 0
 2306.73 1445 2160.82 1504 2003.82 1504 c 0x2e
 1751.82 1504 1599.05 1203 1586.31 960 c 1
 1747.04 974 1900.99 992 2067.99 992 c 0
 2121.99 992 2156.1 956 2153.48 906 c 0
 2149.97 839 2094.93 800 2025.93 800 c 0
 1873.93 800 1697.25 768 1544.25 768 c 1
 1501.8 664 1470.99 534 1463.44 390 c 0
EndSplineSet
EndChar

StartChar: ae
Encoding: 164 230 197
Width: 1269
Flags: HW
HStem: 0 210.28<237.5 468.734> 0 192<871.442 1150.46> 771 188<518.814 630.189 907.615 1062.66>
VStem: 64 256<215.697 529.905> 1072 178<574.743 764.749>
LayerCount: 2
Fore
SplineSet
336.98 324 m 0xb8
 334.376 274.312 343.991 210.28 394.082 210.28 c 0
 497.724 210.28 572.241 390.282 594.842 474 c 2
 671.249 768 l 1
 484.249 768 346.623 508 336.98 324 c 0xb8
861.198 290 m 1
 876.106 231 907.062 192 981.062 192 c 0
 1169.06 192 1328.45 333 1430.54 430 c 0
 1441.01 439 1453.16 442 1465.16 442 c 0
 1509.16 442 1554.39 389 1551.87 341 c 0
 1550.93 323 1541.09 307 1525.25 291 c 0
 1390.18 156 1206 0 955 0 c 0x78
 810.508 0 710.261 80.4521 657.752 210.305 c 1
 607.353 108.796 466.98 0 315 0 c 0
 160 0 70.9053 131.754 79.7744 301 c 0
 95.8135 607.041 346.428 958 653.207 958 c 0
 722.4 958 708.082 909.242 791.067 842.414 c 1
 859.912 915.385 942.374 959 1037.26 959 c 0
 1191.26 959 1295.23 863 1287.16 709 c 0
 1275.47 486 1043.82 340 861.198 290 c 1
1107.53 678 m 0
 1110.31 731 1087.41 771 1039.41 771 c 0
 910.406 771 853.029 573 845.902 437 c 1
 927.632 470 1101.24 558 1107.53 678 c 0
EndSplineSet
EndChar

StartChar: quotesinglbase
Encoding: 212 8218 198
Width: 609
Flags: HW
HStem: -191 512<398.184 464.438>
VStem: 287 384<-109 205>
LayerCount: 2
Fore
SplineSet
357.99 -191 m 0
 310.99 -191 278.72 -158 281.287 -109 c 0
 287.524 10 353.708 128 389.421 237 c 0
 407.251 291 461.823 321 530.823 321 c 0
 608.823 321 685.779 282 681.743 205 c 0
 678.494 143 636.346 102 607.145 60 c 0
 583.362 26 581.362 26 557.581 -8 c 0
 510.069 -75 459.99 -191 357.99 -191 c 0
EndSplineSet
EndChar

StartChar: logicalnot
Encoding: 108 172 200
Width: 1216
Flags: HW
HStem: 220 548<837.634 988.57> 576 192<191.779 836>
VStem: 822 213<447.022 576>
LayerCount: 2
Fore
SplineSet
980.249 768 m 2xa0
 1036.25 768 1073.83 741 1071.21 691 c 2
 1070.9 685 l 1
 1033.5 353 l 2
 1025.99 286 990.529 220 922.529 220 c 0xa0
 862.529 220 836.308 273 839.609 336 c 0
 839.871 341 841.028 344 841.29 349 c 2
 866.187 576 l 1
 323.187 576 l 2
 258.187 576 201.654 604 204.903 666 c 0
 208.468 734 277.249 768 349.249 768 c 2x60
 980.249 768 l 2xa0
EndSplineSet
EndChar

StartChar: minus
Encoding: 227 8722 201
Width: 1216
Flags: HW
HStem: 576 192<213.779 1007.46>
LayerCount: 2
Fore
SplineSet
1060.21 691 m 0
 1056.39 618 1018.19 576 947.187 576 c 2
 345.187 576 l 2
 280.187 576 223.654 604 226.903 666 c 0
 230.468 734 299.249 768 371.249 768 c 2
 969.249 768 l 2
 1025.25 768 1062.83 741 1060.21 691 c 0
EndSplineSet
EndChar

StartChar: hungarumlaut
Encoding: 207 733 202
Width: 1024
Flags: HW
HStem: 1088 622<457 477>
VStem: 304 240<1542.73 1671.25>
LayerCount: 2
Fore
SplineSet
217.02 1088 m 0
 182.02 1088 160.645 1119 162.531 1155 c 0
 167.72 1254 253.746 1369 295.096 1452 c 0
 324.24 1512 357.595 1576 390.264 1646 c 0
 408.255 1684 441.617 1710 488.617 1710 c 0
 566.617 1710 630.578 1652 626.49 1574 c 0
 622.088 1490 528.895 1410 482.96 1354 c 0
 419.925 1277 349.837 1199 286.959 1125 c 0
 268.91 1105 248.02 1088 217.02 1088 c 0
549.02 1088 m 0
 514.02 1088 492.645 1119 494.531 1155 c 0
 498.724 1235 570.759 1312 608.008 1374 c 0
 663.882 1467 712.918 1544 772.264 1646 c 0
 795.307 1685 836.617 1710 890.617 1710 c 0
 962.617 1710 1012.37 1648 1008.49 1574 c 0
 1006.92 1544 995.083 1509 966.406 1477 c 0
 858.064 1356 729.143 1243 618.959 1125 c 0
 594.648 1100 572.02 1088 549.02 1088 c 0
EndSplineSet
EndChar

StartChar: multiply
Encoding: 149 215 203
Width: 1280
Flags: HW
VStem: 352 672<206 295 723 812>
DStem2: 518 822 396 673 0.697865 -0.71623<-64.5609 249.248 437.671 759.92> 557 512 534 218 0.697865 0.71623<-326.399 0 188.423 498.082>
LayerCount: 2
Fore
SplineSet
1037.21 252 m 0
 1034.69 204 996.805 168 948.805 168 c 0
 905.805 168 875.853 188 852.32 216 c 2
 711.229 386 l 1
 545.425 218 l 1
 518.062 192 487.909 170 444.909 170 c 0
 396.909 170 362.796 206 365.312 254 c 0
 367.565 297 393.295 330 420.657 356 c 2
 583.833 512 l 1
 431.271 673 l 2
 410.424 695 396.786 721 398.777 759 c 0
 401.555 812 436.966 858 488.966 858 c 0
 513.966 858 538.39 847 561.079 822 c 2
 724.437 638 l 1
 901.184 824 l 1
 921.18 843 945.07 860 977.07 860 c 0
 1029.07 860 1059.61 813 1056.88 761 c 0
 1054.89 723 1038.53 697 1015.38 675 c 2
 853.833 512 l 1
 992.553 354 l 1
 1017.19 328 1039.46 295 1037.21 252 c 0
EndSplineSet
EndChar

StartChar: florin
Encoding: 200 402 204
Width: 1314
Flags: HW
HStem: -128 224<166.365 333.622> 864 192<278.797 536 801 1150.8> 1613 224<980.585 1192.22>
VStem: 566 235<1056 1282.37>
LayerCount: 2
Fore
SplineSet
318.312 960 m 0
 322.818 1046 384.657 1062 465.657 1062 c 0
 513.657 1062 568.343 1056 621.343 1056 c 1
 692.681 1425 801.273 1837 1219.27 1837 c 0
 1327.27 1837 1471.07 1795 1465.36 1686 c 0
 1461.95 1621 1413.81 1542 1347.81 1542 c 0
 1279.81 1542 1246.53 1613 1173.53 1613 c 0
 962.534 1613 901.824 1256 856.343 1056 c 1
 1123.34 1056 l 2
 1184.34 1056 1217.56 1022 1214.31 960 c 0
 1211.22 901 1169.28 864 1113.28 864 c 2
 816.28 864 l 1
 714.47 486 658.292 -128 207.292 -128 c 0
 109.292 -128 5.91211 -78 11.2051 23 c 0
 14.6123 88 62.752 167 128.752 167 c 0
 171.752 167 185.031 96 233.031 96 c 0
 433.031 96 484.54 411 525.921 590 c 0
 544.009 668 562.83 760 581.28 864 c 1
 409.28 864 l 2
 342.28 864 314.853 894 318.312 960 c 0
EndSplineSet
EndChar

StartChar: three
Encoding: 21 51 206
Width: 1129
Flags: HW
HStem: -18.2884 185.431<322.461 626.322> 750.7 162.7<343.613 621.005> 1258.96 205.14<421.979 695.948>
VStem: -1.09961 272.781<211.836 431.98> 731.5 332.2<1010.41 1223.98> 756.776 330.908<294.339 639.089>
LayerCount: 2
Fore
SplineSet
326.268 392.168 m 0xf4
 324.21 352.9 287.922 309.89 285.789 269.197 c 0
 282.789 211.948 395.417 167.142 487.731 167.142 c 0
 655.899 167.142 772.229 294.849 780.676 456.036 c 0xf4
 788.604 607.33 725.344 750.7 549.442 750.7 c 0
 518.384 750.7 480.353 754.7 441.853 754.7 c 0
 398.952 754.7 366.087 778.264 367.871 812.3 c 0
 370.491 862.294 408.369 913.4 491.97 913.4 c 0
 649.438 913.4 784.049 1002.7 790.129 1118.7 c 0
 793.605 1185.04 767.27 1258.96 637.888 1258.96 c 0
 506.871 1258.96 405.252 1148.4 352.785 1148.4 c 0
 304.385 1148.4 273.341 1206.7 275.474 1247.4 c 0
 282.045 1372.8 516.73 1464.1 745.53 1464.1 c 0
 922.63 1464.1 1136.11 1381.6 1124.75 1164.9 c 0xf8
 1115.47 987.833 1012.04 891.833 861.979 844.9 c 1
 1028.14 752.524 1121.04 636.47 1111.35 451.722 c 0
 1095.34 146.171 850.008 -18.2881 499.495 -18.2881 c 0
 208.658 -18.2881 6.12695 137.898 15.7334 321.2 c 0
 21.8652 438.196 86.0088 531.302 175.205 531.302 c 0
 281.24 531.302 330.052 464.377 326.268 392.168 c 0xf4
EndSplineSet
EndChar

StartChar: ordfeminine
Encoding: 106 170 207
Width: 928
Flags: HW
HStem: 799 198<703.197 836.358> 802 167<214 427.323> 1467 165<439.242 553.54>
VStem: 64 221<973.27 1274.86>
LayerCount: 2
Fore
SplineSet
341.81 1084 m 0x70
 338.823 1027 347.783 969 403.783 969 c 0
 498.783 969 543.221 1130 564.57 1213 c 2
 630.882 1467 l 1
 472.882 1467 349.985 1240 341.81 1084 c 0x70
757.811 1084 m 0
 755.557 1041 754.251 997 791.251 997 c 0
 859.251 997 918.762 1064 954.753 1102 c 0
 985.378 1133 1015.21 1168 1046.26 1207 c 1
 1077.25 1016 l 1
 1011.79 931 894.874 799 753.874 799 c 0xb0
 662.874 799 626.542 869 600.421 943 c 1
 541.066 879 440.031 802 323.031 802 c 0
 189.031 802 111.691 910 118.871 1047 c 0
 132.55 1308 308.922 1525 496.167 1606 c 0
 535.058 1623 575.529 1632 615.529 1632 c 0
 675.529 1632 662.123 1567 724.123 1567 c 2
 732.123 1567 l 2
 804.123 1567 838.07 1566 833.931 1487 c 0
 826.541 1346 765.356 1228 757.811 1084 c 0
EndSplineSet
EndChar

StartChar: ordmasculine
Encoding: 120 186 208
Width: 799
Flags: HW
HStem: 801 166<292.255 453.535> 1465 166<351.488 505.751>
VStem: 70 188<1000.39 1346.49> 534 189<1064.98 1440.58>
LayerCount: 2
Fore
SplineSet
317.902 1143 m 0
 312.924 1048 339.679 967 433.679 967 c 0
 535.679 967 595.212 1168 600.925 1277 c 0
 605.432 1363 592.777 1465 509.777 1465 c 0
 393.777 1465 324.296 1265 317.902 1143 c 0
131.789 1179 m 0
 144.681 1425 324.478 1631 568.478 1631 c 0
 739.478 1631 800.249 1474 791.183 1301 c 0
 778.395 1057 639.979 801 396.979 801 c 0
 196.979 801 121.359 980 131.789 1179 c 0
EndSplineSet
EndChar

StartChar: Lslash
Encoding: 191 321 209
Width: 992
Flags: HW
HStem: -50 251<388 677.583> 795 240<8.05664 185.751> 1654 218<783.25 1037.5>
VStem: 933 251<1338.12 1651.73>
DStem2: 232 1035 46 798 0.976851 0.213921<-259.043 -87.2631 266.938 368.186 896.58 1228.27>
LayerCount: 2
Fore
SplineSet
1013.97 1545 m 0
 1016.96 1602 1008.68 1654 961.683 1654 c 0
 894.683 1654 832.647 1577 789.922 1525 c 0
 693.737 1407 611.981 1259 550.177 1091 c 1
 652.33 1113 754.482 1135 857.636 1157 c 1
 896.78 1217 932.082 1280 962.488 1345 c 0
 994.052 1413 1009.67 1463 1013.97 1545 c 0
-85.2393 129 m 0
 -139.239 129 -170.309 204 -167.374 260 c 0
 -163.024 343 -75.7139 368 -17.7744 405 c 0
 43.2695 444 114.784 492 174.985 534 c 1
 186.55 602 l 1
 198.585 679 213.568 755 231.394 828 c 1
 182.869 818 135.346 808 87.8213 798 c 0
 77.7168 796 68.6641 795 60.6641 795 c 0
 0.664062 795 -30.4014 851 -27.4141 908 c 0
 -22.1729 1008 190.142 1014 286.242 1035 c 0
 288.242 1035 289.295 1036 291.295 1036 c 1
 389.336 1323 537.913 1563 736.665 1730 c 0
 822.438 1802 927.107 1872 1054.11 1872 c 0
 1217.11 1872 1274.98 1736 1266.18 1568 c 0
 1259.52 1441 1222.6 1328 1172.25 1226 c 1
 1272.41 1248 1371.51 1269 1468.66 1291 c 0
 1477.82 1294 1488.87 1295 1500.87 1295 c 0
 1556.87 1295 1579.93 1258 1576.84 1199 c 0
 1570.29 1074 1342.02 1069 1228.71 1044 c 0
 1163.98 1030 1100.25 1016 1034.51 1002 c 1
 1023.78 988 1013.04 974 1003.31 960 c 0
 846.306 750 644.453 562 416.326 426 c 1
 410.553 354 404.299 311 401.102 250 c 2
 400.525 239 l 2
 398.586 202 443.534 201 484.534 201 c 2
 492.534 201 l 2
 522.534 201 562.9 208 614.687 223 c 2
 954.718 319 l 2
 963.823 321 974.928 323 985.928 323 c 0
 1050.93 323 1080.25 272 1076.9 208 c 0
 1073.55 144 1031.14 98 974.664 89 c 1
 799.101 21 606.38 -50 374.38 -50 c 0
 188.38 -50 135.245 81 144.94 266 c 1
 85.7393 224 35.0098 191 -6.30078 166 c 0
 -47.6104 141 -74.2393 129 -85.2393 129 c 0
486.224 882 m 1
 469.765 816 457.201 748 447.532 678 c 1
 525.568 755 605.865 837 681.478 925 c 1
 616.743 911 550.957 896 486.224 882 c 1
EndSplineSet
EndChar

StartChar: lslash
Encoding: 192 322 210
Width: 575
Flags: HW
HStem: 0 244<256 529.99> 1641 279<562.58 784.5>
VStem: 94 258<254.549 1027.6> 683 188<1407.84 1752>
DStem2: 194 1269 22 1034 0.977597 0.210487<-244.27 -92.8717 232.785 319.202 654.288 801.594>
LayerCount: 2
Fore
SplineSet
766.485 1593 m 0
 767.9 1620 759.001 1641 738.001 1641 c 0
 632.001 1641 550.35 1495 490.969 1316 c 1
 559.755 1331 629.488 1345 699.274 1360 c 1
 724.681 1425 762.66 1520 766.485 1593 c 0
376.16 461 m 0
 372.806 397 374.787 244 430.787 244 c 0
 511.787 244 588.984 305 643.818 340 c 0
 687.286 368 732.963 400 780.902 437 c 1
 851.896 227 l 1
 722.18 137 592.62 50 424.524 10 c 0
 398.21 4 374 0 351 0 c 0
 161 0 110.771 320 121.199 519 c 0
 130.843 703 157.538 888 199.553 1060 c 1
 158.08 1051 116.609 1042 76.1895 1034 c 0
 66.085 1032 57.0322 1031 49.0322 1031 c 0
 -10.9678 1031 -42.0332 1087 -39.0459 1144 c 0
 -34.1719 1237 153.614 1252 260.506 1269 c 1
 325.463 1459 411.11 1624 515.608 1748 c 0
 590.273 1837 687.623 1920 827.623 1920 c 0
 942.623 1920 965.858 1810 959.779 1694 c 0
 954.485 1593 935.402 1496 907.633 1405 c 1
 946.052 1413 984.523 1422 1021.94 1430 c 1
 1031.1 1433 1042.15 1434 1054.15 1434 c 0
 1110.15 1434 1133.21 1397 1130.12 1338 c 0
 1124.83 1237 1013.67 1234 921.623 1214 c 0
 889.256 1207 856.89 1200 824.522 1193 c 1
 758.238 1054 675.739 930 599.026 821 c 0
 534.205 729 466.751 644 399.61 565 c 0
 383.614 546 378.099 498 376.16 461 c 0
435.173 1110 m 1
 403.573 965 385.236 825 380.782 740 c 1
 459.385 866 537.513 1002 607.06 1146 c 1
 549.431 1134 492.802 1122 435.173 1110 c 1
EndSplineSet
EndChar

StartChar: ogonek
Encoding: 205 731 213
Width: 537
Flags: HW
HStem: -448 160<237.5 453.732>
VStem: 128 206<-341.5 -140.906> 224 190<-122.635 16.4511>
LayerCount: 2
Fore
SplineSet
368.906 -288 m 0xc0
 432.906 -288 464.575 -218 519.575 -218 c 0
 547.575 -218 559.584 -256 558.012 -286 c 0
 556.491 -315 545.129 -341 525.553 -352 c 0
 456.403 -393 366.521 -448 264.521 -448 c 0
 163.521 -448 107.509 -391 112.697 -292 c 0xc0
 117.676 -197 190.497 -105 222.323 -32 c 0
 243.891 17 289.677 32 353.677 32 c 0
 391.677 32 414.996 19 413.214 -15 c 0xa0
 409.912 -78 325.824 -156 321.632 -236 c 0
 319.902 -269 333.906 -288 368.906 -288 c 0xc0
EndSplineSet
EndChar

StartChar: onesuperior
Encoding: 119 185 215
Width: 704
Flags: HW
VStem: 55 553<1406.85 1503.1>
LayerCount: 2
Fore
SplineSet
283.926 800 m 0
 284.607 813 288.184 824 290.865 837 c 1
 289.865 837 l 1
 338.771 1026 389.095 1223 438.686 1406 c 1
 223.751 1350 l 1
 222.751 1350 l 1
 216.698 1349 211.594 1347 206.594 1347 c 0
 160.594 1347 128.057 1394 130.467 1440 c 0
 134.397 1515 236.765 1522 310.708 1540 c 0
 369.441 1554 475.853 1600 569.853 1600 c 0
 635.853 1600 689.913 1563 686.454 1497 c 0
 681.108 1395 643.078 1299 613.579 1175 c 0
 587.972 1068 552.896 704 397.896 704 c 0
 328.896 704 280.311 731 283.926 800 c 0
EndSplineSet
EndChar

StartChar: onequarter
Encoding: 122 188 216
Width: 1759
Flags: HW
HStem: 229 154<1546.3 1702.09> 237 105<1225.39 1305> 908 20G<1272 1319>
VStem: 1273 210<36.7439 231.818> 1305 198<60.8154 234>
LayerCount: 2
Fore
SplineSet
1566.43 -30 m 0xb0
 1566.01 -38 1561.96 -39 1551.96 -39 c 0
 1499.96 -39 1442.64 -45 1391.64 -45 c 0
 1311.64 -45 1271.79 -23 1276.04 58 c 0xb0
 1279.18 118 1299.54 182 1317.42 237 c 1
 1176.42 237 1089.65 165 960.647 165 c 0
 937.647 165 930.538 182 931.743 205 c 0
 934.05 249 973.146 289 991.032 325 c 0
 1074.84 493 1119.22 672 1176.86 875 c 0
 1190.32 922 1289.63 928 1351.63 928 c 0
 1383.63 928 1465.53 926 1464.11 899 c 0
 1452.9 685 1327.94 514 1240.03 344 c 1
 1279.98 343 1305.92 342 1341.92 342 c 2
 1353.92 342 l 1x68
 1397.95 457 1422.65 642 1574.65 642 c 0
 1621.65 642 1648.17 633 1646.08 593 c 0
 1641.83 512 1590.59 431 1562.97 362 c 1
 1612.44 371 1662.07 383 1710.07 383 c 0
 1728.07 383 1731.18 366 1730.19 347 c 0
 1727.57 297 1712 229 1669 229 c 0
 1618 229 1567.16 232 1515.26 234 c 1xa8
 1502.12 193 1494.28 158 1489.66 127 c 1
 1488.76 110 l 2
 1485.73 52 1569.05 20 1566.43 -30 c 0xb0
283.926 800 m 0
 284.607 813 288.184 824 290.865 837 c 1
 289.865 837 l 1
 338.771 1026 389.095 1223 438.686 1406 c 1
 223.751 1350 l 1
 222.751 1350 l 1
 216.698 1349 211.594 1347 206.594 1347 c 0
 160.594 1347 128.057 1394 130.467 1440 c 0
 134.397 1515 236.765 1522 310.708 1540 c 0
 369.441 1554 475.853 1600 569.853 1600 c 0
 635.853 1600 689.913 1563 686.454 1497 c 0
 681.108 1395 643.078 1299 613.579 1175 c 0
 587.972 1068 552.896 704 397.896 704 c 0
 328.896 704 280.311 731 283.926 800 c 0
500.106 231 m 0
 449.106 231 414.098 269 416.928 323 c 0
 420.648 394 459.431 428 493.365 484 c 0
 678.297 788 869.33 1113 1065.79 1408 c 0
 1089.68 1444 1144.14 1472 1200.14 1472 c 0
 1246.14 1472 1277.99 1450 1275.48 1402 c 0
 1273.22 1359 1253.28 1322 1231.5 1288 c 0
 1024.57 965 824.493 620 605.408 294 c 0
 582.626 260 547.106 231 500.106 231 c 0
EndSplineSet
EndChar

StartChar: onehalf
Encoding: 123 189 217
Width: 1729
Flags: HW
HStem: 1 187<1454.65 1645.09> 1 165<1004.57 1149.05> 230 138<1004.37 1148.92> 756 171<1139.14 1330.83>
VStem: 833 170<168.827 226.818> 874 245<619.609 732.576> 1366 264<414.135 725.712>
DStem2: 416 484 539 294 0.513731 0.857951<-169.704 1163.46>
LayerCount: 2
Fore
SplineSet
1013.74 205 m 0x7a
 1012.59 183 1044.7 166 1067.7 166 c 0
 1092.7 166 1124.38 179 1160.74 205 c 1
 1139.32 216 1115.05 230 1087.05 230 c 0
 1055.05 230 1014.9 227 1013.74 205 c 0x7a
1755.89 246 m 0
 1749.5 124 1691.05 1 1561.05 1 c 0xb6
 1469.05 1 1389.83 54 1328.93 94 c 1
 1259.41 46 1175.05 1 1072.05 1 c 0
 954.053 1 836.512 67 842.485 181 c 0x7a
 848.146 289 924.286 368 1035.29 368 c 0
 1136.29 368 1206.98 343 1273.35 312 c 1
 1327.81 378 1390.95 476 1396.55 583 c 0
 1401.74 682 1374.62 756 1280.62 756 c 0
 1217.62 756 1156.84 722 1153.59 660 c 0
 1151.44 619 1240.34 617 1238.76 587 c 0
 1236.35 541 1052.2 519 998.199 519 c 1
 992.671 528 985.724 529 973.724 529 c 1
 935.349 560 905.444 600 908.746 663 c 0
 917.551 831 1132.58 927 1308.58 927 c 0
 1517.58 927 1672.55 812 1661.34 598 c 0
 1653.27 444 1546.93 304 1464.16 213 c 1
 1503.32 197 1546.85 188 1601.85 188 c 0xb6
 1644.85 188 1670.31 273 1705.31 273 c 0
 1736.31 273 1757.31 273 1755.89 246 c 0
287.385 866 m 0
 288.066 879 291.643 890 294.324 903 c 1
 293.324 903 l 1
 342.229 1092 392.554 1289 442.145 1472 c 1
 227.209 1416 l 1
 226.209 1416 l 1
 220.157 1415 215.052 1413 210.052 1413 c 0
 164.052 1413 131.516 1460 133.926 1506 c 0
 137.856 1581 240.224 1588 314.167 1606 c 0
 372.9 1620 479.312 1666 573.312 1666 c 0
 639.312 1666 693.372 1629 689.913 1563 c 0
 684.567 1461 646.537 1365 617.038 1241 c 0
 591.431 1134 556.354 770 401.354 770 c 0
 332.354 770 283.769 797 287.385 866 c 0
449.106 231 m 0
 398.106 231 363.098 269 365.928 323 c 0
 369.648 394 407.431 428 441.365 484 c 0
 626.297 788 818.33 1113 1014.79 1408 c 0
 1038.68 1444 1093.14 1472 1149.14 1472 c 0
 1195.14 1472 1226.99 1450 1224.48 1402 c 0
 1222.22 1359 1202.28 1322 1180.5 1288 c 0
 973.573 965 773.493 620 554.408 294 c 0
 531.626 260 496.106 231 449.106 231 c 0
EndSplineSet
EndChar

StartChar: threequarters
Encoding: 124 190 218
Width: 1793
Flags: HW
HStem: 264 173<1560.48 1726.75> 273 118<1213.35 1300> 850 133<195.552 355.188> 1267 110<155.319 303.868> 1568 125<202.091 402.5>
VStem: 35 155<987.271 1105.61> 101 101<1456.33 1563.76> 332 261<1406.02 1564.8> 383 254<1008.76 1217.92> 1265 227<51.2592 267.073> 1300 214<74.2351 269> 1411 224<498.962 697.019>
DStem2: 466 484 589 294 0.513731 0.857951<-169.704 1163.46>
LayerCount: 2
Fore
SplineSet
1582.53 -28 m 0xb840
 1582.06 -37 1578.01 -38 1567.01 -38 c 0
 1511.01 -38 1448.64 -45 1393.64 -45 c 0
 1304.64 -45 1264.06 -18 1268.72 71 c 0xb840
 1272.34 140 1295.01 210 1314.31 273 c 1x7820
 1160.31 273 1068.06 192 929.062 192 c 0
 905.062 192 896.11 212 897.421 237 c 0
 900.041 287 935.557 335 962.496 372 c 1
 1046.61 565 1101.04 764 1163.99 992 c 0
 1178.71 1044 1284.13 1052 1353.13 1052 c 0
 1389.13 1052 1476.03 1050 1474.4 1019 c 0
 1461.83 779 1326.76 587 1230.65 394 c 1
 1273.54 392 1302.49 391 1341.49 391 c 2
 1354.49 391 l 1
 1383.74 472 1418.09 555 1444.17 633 c 0
 1463.21 691 1523.26 730 1593.26 730 c 0
 1644.26 730 1672.63 718 1670.32 674 c 0x7810
 1665.55 583 1609.84 493 1579.7 414 c 1
 1633.17 423 1686.9 437 1738.9 437 c 0
 1757.9 437 1761.91 418 1760.81 397 c 0
 1757.87 341 1740.84 264 1693.84 264 c 0
 1638.84 264 1583.99 267 1528.1 269 c 1xb820
 1517.11 231 1504.96 190 1499.81 149 c 1
 1498.81 130 l 2
 1495.41 65 1585.47 28 1582.53 -28 c 0xb840
337.325 1132 m 0
 336.067 1108 248.225 1111 245.709 1063 c 0
 243.089 1013 267.517 983 313.517 983 c 0
 377.517 983 436.98 1030 440.334 1094 c 0x3c80
 446.99 1221 379.771 1255 265.4 1267 c 0
 239.506 1269 217.925 1277 219.13 1300 c 0
 221.122 1338 238.165 1377 276.166 1377 c 0
 344.166 1377 406.733 1426 410.192 1492 c 0
 412.394 1534 394.176 1568 352.176 1568 c 0
 320.176 1568 283.337 1552 281.765 1522 c 0
 280.56 1499 318.088 1490 317.145 1472 c 0
 316.253 1455 249.415 1439 230.415 1439 c 0
 187.415 1439 178.825 1485 181.236 1531 c 0
 187.473 1650 308.727 1693 428.727 1693 c 0
 553.727 1693 678.635 1634 672.188 1511 c 0x3b
 666.843 1409 581.379 1362 493.122 1338 c 1
 614.759 1312 701.462 1230 693.862 1085 c 0
 686.106 937 514.547 850 360.547 850 c 0
 194.547 850 82.7959 912 91.2861 1074 c 0x3c80
 95.0068 1145 137.894 1181 207.894 1181 c 0
 244.894 1181 339.003 1164 337.325 1132 c 0
499.106 231 m 0
 448.106 231 413.098 269 415.928 323 c 0
 419.648 394 457.431 428 491.365 484 c 0
 676.297 788 868.33 1113 1064.79 1408 c 0
 1088.68 1444 1143.14 1472 1199.14 1472 c 0
 1245.14 1472 1276.99 1450 1274.48 1402 c 0
 1272.22 1359 1252.28 1322 1230.5 1288 c 0
 1023.57 965 823.493 620 604.408 294 c 0
 581.626 260 546.106 231 499.106 231 c 0
EndSplineSet
EndChar

StartChar: threesuperior
Encoding: 113 179 219
Width: 768
Flags: HW
HStem: 724 133<226.552 386.188> 1141 110<186.319 334.868> 1442 125<233.091 433.5>
VStem: 66 155<861.271 979.607> 132 101<1330.33 1437.76> 363 261<1280.02 1438.8> 414 254<882.757 1091.92>
LayerCount: 2
Fore
SplineSet
361.723 1006 m 0xf2
 360.465 982 272.622 985 270.106 937 c 0
 267.485 887 291.913 857 337.913 857 c 0
 401.913 857 461.377 904 464.73 968 c 0xf2
 471.387 1095 404.168 1129 289.797 1141 c 0
 263.902 1143 242.321 1151 243.526 1174 c 0
 245.519 1212 262.562 1251 300.562 1251 c 0
 368.562 1251 431.13 1300 434.589 1366 c 0
 436.79 1408 418.572 1442 376.572 1442 c 0
 344.572 1442 307.733 1426 306.161 1396 c 0
 304.956 1373 342.484 1364 341.541 1346 c 0
 340.65 1329 273.812 1313 254.812 1313 c 0
 211.812 1313 203.223 1359 205.633 1405 c 0
 211.869 1524 333.123 1567 453.123 1567 c 0
 578.123 1567 703.031 1508 696.585 1385 c 0xec
 691.239 1283 605.776 1236 517.519 1212 c 1
 639.155 1186 725.858 1104 718.259 959 c 0
 710.503 811 538.943 724 384.943 724 c 0
 218.943 724 107.192 786 115.683 948 c 0
 119.403 1019 162.29 1055 232.29 1055 c 0
 269.29 1055 363.399 1038 361.723 1006 c 0xf2
EndSplineSet
EndChar

StartChar: questiondown
Encoding: 125 191 220
Width: 1292
Flags: HW
HStem: 0 192<668.269 899.736> 1249 353<867.8 1104.24>
VStem: 394 244<224.981 510.221> 809 352<1306.97 1543.2>
LayerCount: 2
Fore
SplineSet
1043.46 1249 m 0
 935.457 1249 877.393 1305 882.947 1411 c 0
 888.975 1526 961.957 1602 1080.96 1602 c 0
 1186.96 1602 1242.08 1547 1236.47 1440 c 0
 1230.44 1325 1160.46 1249 1043.46 1249 c 0
772 0 m 0
 564 0 400.604 126 411.714 338 c 0
 429.009 668 643.516 754 818.006 916 c 0
 849.525 945 879.202 977 897.352 1018 c 0
 918.867 1066 949.487 1116 1005.49 1116 c 0
 1051.49 1116 1092.54 1098 1090.13 1052 c 0
 1073.21 729 779.109 689 679.003 458 c 0
 666.431 428 658.648 394 656.71 357 c 0
 651.416 256 683.062 192 781.062 192 c 0
 874.062 192 952.521 258 997.352 312 c 0
 1013.4 332 1036.19 347 1066.19 347 c 0
 1125.19 347 1161.3 292 1158.16 232 c 0
 1150.66 89 913 0 772 0 c 0
EndSplineSet
EndChar

StartChar: Eth
Encoding: 142 208 221
Width: 1272
Flags: HW
HStem: -60 188<393.838 689.337> 800 192<44.2344 174 494 808.596> 1504 224<715.891 1001.75>
VStem: 96 288<71 616.466> 174 276<548.176 800> 219 275<992 1136.14> 1184 224<780.187 1290.74>
LayerCount: 2
Fore
SplineSet
397.521 258 m 0xf2
 392.856 169 397.708 128 486.708 128 c 0
 884.708 128 1116.99 534 1205.12 861 c 0
 1224.9 933 1236.51 1002 1240.02 1069 c 0
 1252.13 1300 1141.82 1504 917.821 1504 c 0
 702.821 1504 602.265 1169 545.988 992 c 1xe6
 797.988 992 l 2
 844.988 992 883.993 973 881.529 926 c 0
 877.075 841 823.926 800 735.926 800 c 2
 491.926 800 l 1xea
 450.069 631 407.321 445 397.521 258 c 0xf2
78.6426 890 m 0
 82.207 958 117.988 992 189.988 992 c 2
 270.988 992 l 1xe6
 348.671 1234 451.825 1485 613.582 1633 c 0
 693.407 1706 767.561 1728 901.561 1728 c 0
 1304.56 1728 1482.94 1430 1461.88 1028 c 0
 1435.3 521 1147.6 126 770.267 -14 c 0
 688.694 -44 601.855 -60 508.855 -60 c 0
 372.855 -60 254.004 -19 163.258 24 c 0
 132.044 39 98.5684 49 100.874 93 c 0xf2
 114.238 348 160.554 583 215.926 800 c 1xea
 160.926 800 l 2
 102.926 800 75.708 834 78.6426 890 c 0
EndSplineSet
EndChar

StartChar: two
Encoding: 20 50 222
Width: 1101
Flags: HW
HStem: 1 228<730.865 966.857> 1 180<185.44 366.788> 334 186<175.232 422.396> 1135 198<380.804 638.024>
VStem: -4 174<195.614 329.113> 82 238<828.92 1078.08> 710 259<640.888 1061.45>
LayerCount: 2
Fore
SplineSet
277.485 181 m 0x7a
 326.485 181 389.582 221 440.198 290 c 1
 421.774 301 324.504 334 257.504 334 c 0
 210.504 334 185.88 303 184.098 269 c 0
 181.896 227 213.485 181 277.485 181 c 0x7a
1041.58 221 m 0
 1036.29 120 988.053 1 856.053 1 c 0xb6
 744.053 1 662.983 76 596.865 131 c 1
 514.406 65 417.053 1 295.053 1 c 0
 136.053 1 1.97461 114 10.4648 276 c 0x7a
 18.0117 420 117.252 520 263.252 520 c 0
 397.252 520 489.894 475 571.116 422 c 1
 657.78 511 747.733 720 756.695 891 c 0
 763.718 1025 717.482 1135 570.482 1135 c 0
 465.482 1135 375.972 1068 370.73 968 c 0
 366.748 892 414.957 896 412.022 840 c 0
 409.507 792 341.148 747 281.148 747 c 0
 165.148 747 125.604 832 132.312 960 c 0
 144.208 1187 385.859 1333 605.859 1333 c 0
 856.859 1333 1030.42 1172 1015.91 895 c 0
 1003.01 649 857.116 422 739.465 276 c 1
 786.997 248 837.001 229 907.001 229 c 0xb6
 954.001 229 973.884 284 1009.88 284 c 0
 1036.88 284 1043.47 257 1041.58 221 c 0
EndSplineSet
EndChar

StartChar: seven
Encoding: 25 55 223
Width: 926
Flags: HW
HStem: 1159 220<284.568 659.88> 1159 174<324.062 667>
VStem: 107 293<-28.625 142.385>
LayerCount: 2
Fore
SplineSet
395.74 1159 m 2xa0
 322.378 1159 343.971 1024.08 267.192 1024.08 c 0
 224.943 1024.08 202.745 1082.76 206.531 1155 c 0
 212.73 1273.3 263.449 1379 344.271 1379 c 0xa0
 536.639 1379 643.286 1333 856.859 1333 c 2
 887.859 1333 l 2
 939.859 1333 977.384 1343 1014.38 1343 c 0
 1064.38 1343 1078.34 1304 1075.61 1252 c 0
 1071.92 1181.48 1015.75 1159.05 972.273 1131 c 1
 746.82 799.953 561.646 445.854 401.362 26 c 0
 377.26 -37.1367 308.065 -56 228.065 -56 c 0
 165.065 -56 106.057 -18 109.568 49 c 2
 109.935 56 l 2
 117.01 191 209.609 336 271.007 439 c 1
 405.182 688.16 564.969 926.328 727.74 1159 c 1x60
 395.74 1159 l 2xa0
EndSplineSet
EndChar

StartChar: Thorn
Encoding: 156 222 224
Width: 1216
Flags: HW
HStem: -355 234<410.496 535.199> 393 235<913 1122.69> 1143 240<613.217 723 993 1111.7>
VStem: 94 268<6.71167 802.219> 1291 235<730.113 985.503>
DStem2: 723 1143 913 628 0.0896553 0.995973<-488.717 0 258.628 562.078>
LayerCount: 2
Fore
SplineSet
945.912 628 m 1
 1091.7 643 1326.64 680 1334.18 824 c 0
 1344.4 1019 1201.49 1116 1027.95 1144 c 1
 945.912 628 l 1
782.902 1143 m 1
 521.652 1081 404.083 803 387.312 483 c 2
 379.609 336 l 2
 371.643 184 360.658 -121 445.658 -121 c 0
 609.658 -121 671.683 242 680.016 401 c 1
 613.535 430 543.426 447 548.038 535 c 0
 550.292 578 553.122 632 596.122 632 c 0
 627.122 632 662.864 608 703.864 608 c 1
 712.878 780 756.836 970 782.902 1143 c 1
1065.32 1380 m 1
 1352.28 1341 1587.05 1165 1570.39 847 c 0
 1554.51 544 1211.38 427 927.597 393 c 1
 859.468 28 810.396 -355 411.396 -355 c 0
 120.396 -355 102.805 168 117.95 457 c 0
 143.893 952 384.388 1324 818.48 1383 c 1
 825.629 1424 832.41 1458 834.035 1489 c 1
 849.573 1671 909.404 1954 1094.4 1954 c 0
 1148.4 1954 1180.94 1926 1178.05 1871 c 0
 1177.58 1862 1176.58 1862 1176.22 1855 c 1
 1087.4 1515 l 1
 1065.32 1380 l 1
EndSplineSet
EndChar

StartChar: five
Encoding: 23 53 225
Width: 1157
Flags: HW
HStem: -22 168.96<347.047 594.409> 1128 265<380.355 726.274>
VStem: 70.1884 229.51<207.089 460.53> 712.827 316.436<259.648 558.269>
LayerCount: 2
Fore
SplineSet
488.094 -22 m 0
 289.762 -22 76.4297 119.082 91.6162 408.862 c 0
 95.5625 484.16 149.896 539 267.724 539 c 0
 304.805 539 395.512 510.132 392.832 459.002 c 0
 390.498 414.455 321.33 412.769 316.314 317.052 c 0
 310.125 198.953 381.746 146.96 467.361 146.96 c 0
 583.564 146.96 725.549 242.743 733.738 399.019 c 0
 745.442 622.344 594.905 663.34 378.799 690 c 0
 293.918 700.471 275.476 719.276 281.779 839.562 c 0
 283.483 872.067 284.946 915.963 287.511 964.896 c 0
 296.943 1144.88 321.268 1393 427.197 1393 c 2
 461.197 1393 l 2
 610.288 1393 713.75 1345 865.325 1345 c 0
 932.325 1345 1035.65 1364 1059.81 1398 c 0
 1061.18 1401 1066.18 1401 1076.17 1401 c 0
 1142.7 1401 1156.84 1335.53 1153.04 1262.91 c 0
 1146.43 1136.93 946.868 1109.86 812.665 1087 c 1
 684.428 1097 600.604 1128 477.681 1128 c 0
 463.681 1128 451.437 1126 439.313 1125 c 1
 441.876 1042.31 441.792 953.956 448.095 869 c 1
 502.705 874 554.072 877 602.072 877 c 0
 906.227 877 1069.23 762.625 1053.65 465.381 c 0
 1037.42 155.649 768.227 -22 488.094 -22 c 0
EndSplineSet
EndChar

StartChar: four
Encoding: 22 52 226
Width: 927
Flags: HW
HStem: 264 173<761.484 927.752> 273 118<414.345 501>
VStem: 313 309<796.523 1032.55> 466 227<51.2592 267.073> 501 214<74.2351 269> 612 224<498.962 697.019>
LayerCount: 2
Fore
SplineSet
783.532 -28 m 0x90
 783.061 -37 779.009 -38 768.009 -38 c 0
 712.009 -38 649.642 -45 594.642 -45 c 0
 505.642 -45 465.057 -18 469.721 71 c 0x90
 473.337 140 496.006 210 515.308 273 c 1x48
 361.308 273 269.062 192 130.062 192 c 0
 106.062 192 97.1104 212 98.4209 237 c 0
 101.041 287 136.557 335 163.496 372 c 1
 247.61 565 302.039 764 364.988 992 c 0
 379.714 1044 485.133 1052 554.133 1052 c 0
 590.133 1052 677.028 1050 675.403 1019 c 0x60
 662.826 779 527.764 587 431.648 394 c 1
 474.544 392 503.491 391 542.491 391 c 2
 555.491 391 l 1
 584.736 472 619.086 555 645.174 633 c 0
 664.214 691 724.258 730 794.258 730 c 0
 845.258 730 873.629 718 871.323 674 c 0x44
 866.554 583 810.837 493 780.697 414 c 1
 834.169 423 887.902 437 939.902 437 c 0
 958.902 437 962.906 418 961.806 397 c 0
 958.871 341 941.836 264 894.836 264 c 0
 839.836 264 784.993 267 729.098 269 c 1x88
 718.106 231 705.957 190 700.809 149 c 1
 699.812 130 l 2
 696.406 65 786.468 28 783.532 -28 c 0x90
EndSplineSet
EndChar

StartChar: endash
Encoding: 208 8211 227
Width: 991
Flags: HW
HStem: 384 224<80.0945 903.481>
LayerCount: 2
Fore
SplineSet
179.125 384 m 2
 119.125 384 87.5352 430 90.7842 492 c 0
 95.292 578 134.864 608 218.864 608 c 2
 838.864 608 l 2
 909.864 608 958.764 587 955.147 518 c 0
 950.745 434 908.125 384 823.125 384 c 2
 179.125 384 l 2
EndSplineSet
EndChar

StartChar: emdash
Encoding: 209 8212 228
Width: 1120
Flags: HW
HStem: 384 224<78.0945 1031.48>
LayerCount: 2
Fore
SplineSet
177.125 384 m 2
 117.125 384 85.5352 430 88.7842 492 c 0
 93.292 578 132.864 608 216.864 608 c 2
 966.864 608 l 2
 1037.86 608 1086.76 587 1083.15 518 c 0
 1078.75 434 1036.12 384 951.125 384 c 2
 177.125 384 l 2
EndSplineSet
EndChar

StartChar: twosuperior
Encoding: 112 178 229
Width: 992
Flags: HW
HStem: 609 187<658.654 849.092> 609 165<208.575 353.054> 838 138<208.369 352.921> 1364 171<343.144 534.831>
VStem: 37 170<776.827 834.818> 78 245<1227.61 1340.58> 570 264<1022.14 1333.71>
LayerCount: 2
Fore
SplineSet
249.607 813 m 0x7a
 248.454 791 280.563 774 303.563 774 c 0
 328.563 774 360.245 787 396.607 813 c 1
 375.184 824 350.918 838 322.918 838 c 0
 290.918 838 250.761 835 249.607 813 c 0x7a
991.756 854 m 0
 985.362 732 926.916 609 796.916 609 c 0xb6
 704.916 609 625.694 662 564.79 702 c 1
 495.274 654 410.916 609 307.916 609 c 0
 189.916 609 72.375 675 78.3496 789 c 0x7a
 84.0098 897 160.15 976 271.15 976 c 0
 372.15 976 442.84 951 509.215 920 c 1
 563.674 986 626.811 1084 632.418 1191 c 0
 637.606 1290 610.484 1364 516.484 1364 c 0
 453.484 1364 392.702 1330 389.453 1268 c 0
 387.305 1227 476.199 1225 474.627 1195 c 0
 472.217 1149 288.063 1127 234.063 1127 c 1
 228.535 1136 221.588 1137 209.588 1137 c 1
 171.212 1168 141.309 1208 144.61 1271 c 0
 153.415 1439 368.446 1535 544.446 1535 c 0
 753.446 1535 908.419 1420 897.204 1206 c 0
 889.133 1052 782.796 912 700.026 821 c 1
 739.188 805 782.717 796 837.717 796 c 0xb6
 880.717 796 906.171 881 941.171 881 c 0
 972.171 881 993.171 881 991.756 854 c 0
EndSplineSet
EndChar

StartChar: o_x
Encoding: 231 -1 231
Width: 1765
Flags: HW
HStem: -30 223<1430 1638.85> 0 192<325.966 528.742> 407 195<782.5 921.585> 768 192<385.843 636.5> 876 20G<1130 1169.5 1641.5 1690>
VStem: 67 194<261.07 622.677>
DStem2: 1020 274 1103 36 0.678414 0.73468<-172.048 128.602 446.591 867.366>
LayerCount: 2
Fore
SplineSet
284.374 446 m 0x74
 277.403 313 314.062 192 446.062 192 c 0
 555.062 192 629.447 352 635.16 461 c 1
 571.099 498 477.771 549 482.594 641 c 0
 484.952 686 515.839 722 539.096 746 c 0
 545.463 753 548.725 758 548.935 762 c 0
 549.145 766 544.249 768 534.249 768 c 0
 394.249 768 291.815 588 284.374 446 c 0x74
595.312 960 m 0
 778.312 960 868.346 808 858.388 618 c 0
 857.812 607 862.55 602 872.55 602 c 0
 992.55 602 1081.34 827 1150.33 884 c 0
 1159.75 892 1170.96 896 1182.96 896 c 0
 1249.96 896 1255.39 828 1282.09 765 c 0
 1301.63 718 1325.8 664 1353.6 603 c 1
 1430.48 696 1517.35 789 1617.28 864 c 0
 1642.28 883 1670.91 895 1705.91 895 c 0
 1767.91 895 1797.13 842 1793.88 780 c 0
 1791.36 732 1766.37 694 1735.22 672 c 0
 1624.08 593 1528.79 492 1440.23 386 c 1
 1468.71 338 1528.12 193 1595.12 193 c 0
 1739.12 193 1908.34 369 1977.79 454 c 1
 1976.12 422 1975.86 398 1974.29 368 c 0
 1972.77 339 1972.46 314 1970.88 284 c 1
 1867.65 165 1736.1 40 1571.27 -14 c 0
 1538.69 -25 1506.43 -30 1474.43 -30 c 0xac
 1382.43 -30 1325.65 146 1289.27 215 c 1
 1231.28 158 1165.66 89 1104.89 36 c 0
 1087.05 20 1071.47 9 1059.16 3 c 1
 1049.16 -16 1033.64 -26 1007.64 -26 c 0
 943.638 -26 877.625 31 880.979 95 c 0
 884.805 168 986.949 228 1034.36 274 c 0
 1078.61 317 1135.71 376 1163.54 430 c 1
 1138.1 479 1113.78 530 1091.61 584 c 1
 1042.83 512 917.33 407 809.33 407 c 0
 798.33 407 791.435 409 786.592 412 c 1
 738.421 237 646 0 397 0 c 0
 166 0 77.7959 206 89.9023 437 c 0
 105.729 739 293.312 960 595.312 960 c 0
EndSplineSet
Ligature2: "'liga' Ligatures lookup 0 subtable" o x
EndChar

StartChar: t_t
Encoding: 232 -1 232
Width: 1443
Flags: HW
HStem: 0 223<384.407 575.903 1086.11 1327.71> 764 194<595.798 820 1109.49 1137.62 1274 1462.93> 784 162<-20.522 118.993> 1568 224<486.613 591.171 1182.74 1291.17>
VStem: 116 227<260.358 723.562> 596 160<1244.57 1565.82> 816 230<538.58 694.75> 837 217<965 1191.68> 1296 160<1263.89 1565.82>
LayerCount: 2
Back
SplineSet
1126 420 m 4xde80
 1126 304.475 1160.51 224 1273 224 c 4
 1440.98 224 1615 386.5 1700 480 c 5
 1700 224 l 5
 1583.33 135.71 1452.95 53.6547 1300 14 c 4
 1264 4.66667 1233.67 4.76837e-07 1209 0 c 4
 997.223 0 936.714 242.291 912 440 c 5
 827.081 271.652 711.238 106.631 554 26.5 c 4
 519.333 8.83333 491 9.53674e-07 469 0 c 4
 200.636 0 160 379.837 160 665 c 4
 160 752.546 168.114 846.96 179 928 c 5
 158.753 930.728 135.755 931.145 111.886 931.145 c 4
 101.401 931.145 90.7486 931.064 80.0874 931.064 c 4
 -7.66744 931.064 -96 936.507 -96 1037 c 4
 -96 1089.66 -57.0749 1093 1 1093 c 4xbe80
 66.7895 1093 130.579 1088 207 1088 c 5
 255.277 1329.38 336.891 1591.94 481 1732.5 c 4
 521.667 1772.17 564.334 1792 609 1792 c 4
 743.325 1792 800 1637.33 800 1499 c 4
 800 1318.24 698.068 1173.86 623 1055 c 5
 717.195 1045.13 840.3 1048.3 939 1046 c 5xdd80
 991.474 1311.05 1079.37 1633.03 1267 1763.5 c 4
 1294.34 1782.5 1321.67 1792 1349 1792 c 4
 1483.32 1792 1540 1637.33 1540 1499 c 4
 1540 1318.24 1438.07 1173.86 1363 1055 c 5
 1417.25 1049.58 1581.45 1062.69 1601 1022.5 c 4
 1607 1010.16 1610 994.33 1610 975 c 4
 1610 934.875 1583.13 896 1546 896 c 6
 1252 896 l 5
 1216.68 847.287 1174.92 792.57 1139 748 c 5
 1132.06 640.376 1126 532.822 1126 420 c 4xde80
387 470 m 4
 387 356.493 404.703 223 516 223 c 4
 520 223 520 223 524 223 c 4
 590.098 223 654.809 310.536 697 361 c 4
 769.71 447.967 843.432 561.554 900 671 c 5
 900 748.502 906.332 823.965 915 896 c 5
 522 896 l 5xde80
 440.807 776.356 387 685.713 387 470 c 4
1380 1490 m 4
 1380 1532.15 1370.33 1568 1327 1568 c 4
 1210.42 1568 1148.6 1147.84 1128 1050 c 5x9d80
 1189 1053 l 5
 1251.9 1157.17 1320.14 1282.41 1362 1404.5 c 4
 1374 1439.5 1380 1468 1380 1490 c 4
407 1074 m 6
 447 1074 l 6
 451 1074 455 1073.67 459 1073 c 5
 517.947 1173.21 583.32 1291.31 623 1408 c 4
 634.333 1441.34 640 1468.67 640 1490 c 4
 640 1532.15 630.329 1568 587 1568 c 4
 476.526 1568 418.416 1166.87 398 1075 c 5
 401.333 1074.33 404.333 1074 407 1074 c 6
EndSplineSet
Fore
SplineSet
477.106 937 m 1x9c80
 566.016 1107 664.759 1312 674.088 1490 c 0
 676.289 1532 668.176 1568 625.176 1568 c 0
 520.176 1568 443.475 1173 406.949 934 c 1
 430.001 935 453.054 936 477.106 937 c 1x9c80
1168.57 965 m 1
 1259.75 1121 1364.97 1316 1374.09 1490 c 0
 1376.29 1532 1368.18 1568 1325.18 1568 c 0
 1215.18 1568 1139.73 1197 1104.57 965 c 1x9d80
 1168.57 965 l 1
1179.93 762 m 1
 1142.42 714 1107.22 672 1079.44 638 c 1
 1064.01 420 l 1
 1057.93 304 1088.74 224 1200.74 224 c 0
 1368.74 224 1551.23 386 1641.16 480 c 1
 1627.74 224 l 1
 1497.81 130 1321 0 1125 0 c 0
 927 0 881.114 193 866.343 350 c 1
 784.739 224 630 0 425 0 c 0
 157 0 135.915 380 150.852 665 c 0
 152.896 704 155.991 744 160.088 784 c 1
 67.0312 802 -21.292 834 -18.6719 884 c 0
 -16.9941 916 22.5781 946 89.5781 946 c 0xbe80
 122.578 946 154.473 944 186.315 941 c 1
 220.02 1088 l 1
 277.969 1316 409.915 1792 658.915 1792 c 0
 792.915 1792 841.791 1637 834.56 1499 c 0
 823.973 1297 737.173 1110 641.525 945 c 1
 722.787 950 804.997 954 887.207 958 c 1xdd80
 948.868 1295 1078.27 1627 1275.45 1764 c 0
 1303.44 1783 1331.92 1792 1358.92 1792 c 0
 1492.92 1792 1541.79 1637 1534.56 1499 c 0
 1524.92 1315 1429.85 1123 1324.36 961 c 1
 1419.21 958 1513 954 1512.58 946 c 1xbd80
 1619.42 924 1504.79 721 1477.36 751 c 1
 1399.46 753 1278.78 759 1179.93 762 c 1
860.039 764 m 1xde80
 744.039 764 630.092 765 531.145 766 c 1
 443.965 629 369.99 515 365.535 430 c 0
 360.557 335 372.687 223 483.687 223 c 0
 655.687 223 785.466 505 849.069 631 c 1
 851.375 675 855.682 719 860.039 764 c 1xde80
EndSplineSet
LCarets2: 1 0 
Ligature2: "'liga' Ligatures lookup 0 subtable" t t
EndChar

StartChar: i_t_t
Encoding: 233 -1 233
Width: 2106
Flags: HW
HStem: 0 224<1012.36 1161.96 1747.85 1969.68> 0 192<253.504 497.71> 896 150<1206.43 1494 1942 2182.31> 911 172<606.341 767.389> 940 20G<368.5 432> 1129 319<300.606 551.924> 1568 224<1107.7 1215.44 1846 1954.17>
VStem: 96 256<193.631 531.146> 243 366<1185.59 1392.11> 749 217<381.455 730.719> 1219 180<1333.37 1565.75> 1479 226<420 671> 1518 189<1050 1235.07> 1959 160<1337.5 1565.82>
LayerCount: 2
Fore
SplineSet
474.168 1129 m 0x06e4
 367.168 1129 304.841 1180 310.135 1281 c 0
 315.585 1385 404.887 1448 514.887 1448 c 0
 612.887 1448 682.686 1406 677.55 1308 c 0
 671.627 1195 590.168 1129 474.168 1129 c 0x06e4
1727.01 420 m 0x2674
 1720.93 304 1751.74 224 1863.74 224 c 0
 2031.74 224 2214.23 386 2304.16 480 c 1
 2290.74 224 l 1
 2169.13 136 2034.83 54 1879.73 14 c 0
 1843.26 5 1813 0 1788 0 c 0
 1576 0 1528.68 242 1514.06 440 c 1
 1420.25 272 1295.55 106 1134.36 26 c 0
 1098.42 8 1070 0 1048 0 c 0xa674
 916 0 846.136 98 811.106 231 c 1
 687.761 129 489 0 282 0 c 0
 151 0 99.7207 71 106.534 201 c 0
 118.955 438 212.642 661 271.228 863 c 0
 290.635 928 379.312 960 458.312 960 c 0x4f74
 506.312 960 529.525 945 527.324 903 c 0
 516.424 695 378.938 514 367.198 290 c 0
 364.578 240 367.062 192 413.062 192 c 0
 550.062 192 694.613 317 784.33 407 c 1
 777.837 493 779.554 583 783.852 665 c 0
 788.096 746 800.655 833 815.586 908 c 1
 802.743 911 787.743 911 772.743 911 c 2
 752.743 911 l 2
 696.743 911 641.058 917 646.823 1027 c 0
 649.601 1080 688.758 1083 746.758 1083 c 0x5774
 780.758 1083 813.496 1078 852.496 1078 c 1
 913.336 1323 1009.28 1589 1160.77 1732 c 1
 1199.87 1772 1240.92 1792 1281.92 1792 c 0
 1429.92 1792 1485.63 1653 1479.13 1529 c 0
 1469.02 1336 1347.95 1182 1257.29 1055 c 1
 1350.77 1045 1473.92 1048 1572.82 1046 c 1x276c
 1638.71 1311 1743.63 1634 1938.45 1764 c 0
 1966.44 1783 1994.92 1792 2021.92 1792 c 0
 2155.91 1792 2204.79 1637 2197.56 1499 c 0
 2188.07 1318 2078.53 1174 1997.29 1055 c 1
 2051.03 1050 2215.66 1062 2233.56 1022 c 0
 2238.93 1010 2241.09 994 2240.1 975 c 0
 2238 935 2208.96 896 2171.96 896 c 2
 1877.96 896 l 1
 1840.39 847 1795.56 793 1757.2 748 c 1
 1744.54 640 1732.93 533 1727.01 420 c 0x2674
990.632 470 m 0
 984.657 356 995.687 223 1106.69 223 c 2
 1114.69 223 l 2
 1180.69 223 1250.3 311 1294.92 361 c 0
 1372.48 448 1451.45 562 1514.17 671 c 1
 1518.25 749 1528.18 824 1540.96 896 c 1
 1157.96 896 l 1
 1064.67 776 1001.95 686 990.632 470 c 0
2037.09 1490 m 0
 2039.29 1532 2031.18 1568 1988.18 1568 c 0
 1871.18 1568 1788.16 1148 1762.03 1050 c 1x066c
 1823.19 1053 l 1
 1891.64 1157 1966.19 1282 2014.58 1404 c 0
 2028.42 1439 2035.93 1468 2037.09 1490 c 0
1052.29 1074 m 2
 1092.29 1074 l 2
 1096.29 1074 1100.29 1074 1104.23 1073 c 1
 1164.47 1173 1232.66 1291 1275.79 1408 c 0
 1288.52 1441 1295.99 1469 1297.09 1490 c 0
 1299.29 1532 1291.18 1568 1248.18 1568 c 0
 1143.18 1568 1067.16 1167 1043.34 1075 c 1
 1046.29 1074 1049.29 1074 1052.29 1074 c 2
EndSplineSet
Ligature2: "'liga' Ligatures lookup 0 subtable" i t t
EndChar

StartChar: i_t
Encoding: 234 -1 234
Width: 1217
Flags: HW
HStem: 0 224<960.752 1220.75> 0 192<208.5 465.884> 928 147<564.438 712 1156 1483.71> 940 20G<366.5 430> 1119 319<295.072 537.581> 1568 224<1060.6 1168.17>
VStem: 88 256<193.631 521.844> 231 356<1169.04 1375.98> 676.798 242.202<307.008 742.938> 1173 160<1312.77 1565.82>
LayerCount: 2
Fore
SplineSet
481.645 1119 m 0x0dc0
 361.645 1119 292.317 1170 297.61 1271 c 0
 303.061 1375 401.362 1438 522.362 1438 c 0
 603.362 1438 660.161 1396 655.025 1298 c 0
 649.104 1185 579.645 1119 481.645 1119 c 0x0dc0
1361.29 1074 m 0
 1494.84 1074 1549.68 1081.5 1544.1 975 c 0
 1542.84 951 1514.58 927 1477.58 927 c 2
 1093.58 927 l 1
 1055.49 868 1010.03 802 971.201 748 c 1
 958.541 640 946.934 533 941.012 420 c 0
 934.932 304 965.739 224 1077.74 224 c 0
 1245.74 224 1428.23 386 1518.16 480 c 1
 1504.74 224 l 1
 1415.29 120 1193 0 1002 0 c 0xaec0
 853.291 0 772.123 94 729.687 223 c 1
 623.335 124 451.975 0 274 0 c 0
 143 0 91.7207 71 98.5342 201 c 0
 110.955 438 208.642 661 269.228 863 c 0
 288.635 928 377.312 960 456.312 960 c 0x5ec0
 504.312 960 527.264 940 524.276 883 c 0
 520.24 806 370.57 507 359.198 290 c 0
 356.578 240 359.062 192 405.062 192 c 0
 514.501 192 622.872 275.15 697.29 349 c 1
 697.268 377.322 698.156 407.535 699.811 439.099 c 0
 707.756 590.719 733.376 773.542 760.635 928 c 1
 669.635 928 l 1
 624.001 935 607.469 963 610.823 1027 c 0
 613.076 1070 648.548 1079 688.548 1079 c 0
 716.548 1079 746.338 1075 770.338 1075 c 0
 780.338 1075 789.391 1076 796.496 1078 c 1
 857.336 1323 953.276 1589 1104.77 1732 c 0
 1147.87 1772 1190.92 1792 1235.92 1792 c 0
 1369.92 1792 1418.79 1637 1411.56 1499 c 0
 1402.49 1326 1293.31 1189 1212.34 1075 c 1x6ec0
 1223.29 1074 1238.23 1073 1257.23 1073 c 0
 1286.23 1073 1324.29 1074 1361.29 1074 c 0
1048.23 1073 m 1
 1116.23 1178.85 1243.29 1341.12 1251.09 1490 c 0
 1253.29 1532 1245.18 1568 1202.18 1568 c 0
 1095.18 1568 1014.74 1178 987.601 1080 c 1
 1008.44 1077 1027.39 1076 1048.23 1073 c 1
EndSplineSet
LCarets2: 1 0 
Ligature2: "'liga' Ligatures lookup 0 subtable" i t
EndChar

StartChar: a.fina
Encoding: 235 -1 235
Width: 953
Flags: HW
HStem: 0 192<237.5 477.896 759.287 1041.02> 768 190<503.516 629.204>
VStem: 64 256<201.447 524.198>
LayerCount: 2
Back
SplineSet
800 324 m 4x70
 800 274.762 801.664 224 845 224 c 4
 922.861 224 987.128 301.333 1027 345 c 4
 1059.01 383.361 1091.34 426.694 1124 475 c 5
 1174 245 l 5
 1103.73 147.238 976.065 0 813 0 c 4xb0
 706.816 0 661.327 74.0993 627 161 c 5
 562.683 85.9635 450.368 0 315 0 c 4
 160.036 0 64 122.703 64 281 c 4
 64 582.881 256.106 834.724 467.5 928.5 c 4
 511.833 948.167 557 958 603 958 c 4
 676.22 958 662.581 882 747 882 c 4
 761.561 882 777.44 883 792 883 c 4
 849.214 883 864 849.461 864 790 c 4
 864 627.255 800 489.945 800 324 c 4x70
320 324 m 4
 320 259.53 334.311 192 398 192 c 4x70
 505.651 192 550.515 380.091 570 474 c 6
 631 768 l 5
 443.713 768 320 508.123 320 324 c 4
EndSplineSet
Fore
SplineSet
336.98 324 m 0
 333.626 260 344.062 192 408.062 192 c 0
 516.062 192 570.915 380 594.842 474 c 2
 671.249 768 l 1
 484.249 768 346.623 508 336.98 324 c 0
873.01 191 m 0
 989.01 191 1132.41 275 1204.98 305 c 0
 1207.04 306 1208.04 306 1210.04 306 c 0
 1239.04 306 1270.16 213 1268.59 183 c 0
 1267.8 168 1265.07 154 1260.65 146 c 1
 1107.83 54 1011 0 813 0 c 0
 707 0 664.878 74 635.438 161 c 1
 567.507 86 450 0 315 0 c 0
 160 0 70.4463 123 78.7266 281 c 0
 94.5537 583 300.708 834 516.635 928 c 0
 561.683 948 607.207 958 653.207 958 c 0
 726.207 958 709.224 882 793.224 882 c 0
 808.224 882 823.276 883 838.276 883 c 0
 895.276 883 908.494 849 905.402 790 c 0
 896.859 627 825.68 490 816.98 324 c 0
 812.054 230 835.01 191 873.01 191 c 0
EndSplineSet
EndChar

StartChar: h.fina
Encoding: 236 -1 236
Width: 1161
Flags: HW
HStem: 0 196<715.5 1028.49> 958 20G<865 910.5> 1729 191<581.6 734>
VStem: 95 168<18.7686 133.812> 576 231<198.674 442.942> 652 193<1419.68 1726.52>
LayerCount: 2
Fore
SplineSet
351.21 710 m 1xf4
 433.119 880 529.023 1069 604.985 1240 c 0
 668.428 1382 731.293 1513 738.63 1653 c 0
 741.303 1704 735.613 1729 722.613 1729 c 0
 705.613 1729 678.146 1701 641.158 1644 c 0
 604.171 1587 553.031 1508 508.214 1397 c 0
 427.68 1196 382.893 952 351.21 710 c 1xf4
765.623 1920 m 0
 903.623 1920 941.221 1836 934.041 1699 c 0xf4
 919.104 1414 761.95 1163 650.207 958 c 0
 590.494 849 522.467 734 464.331 636 c 1
 483.598 622 l 1
 580.467 734 698.28 864 827.368 942 c 0
 865.573 965 900.255 978 932.255 978 c 0
 991.255 978 1016.79 931 1013.49 868 c 0
 1002.9 666 832.68 490 821.727 281 c 0
 819.525 239 825.271 196 871.271 196 c 0
 986.271 196 1186.72 300 1292.02 363 c 0
 1343.65 394 1378.7 414 1409.7 414 c 0
 1450.7 414 1473.28 387 1471.34 350 c 0
 1469.56 316 1455.31 273 1395.16 232 c 0
 1248.92 132 1023 0 771 0 c 0
 660 0 580.717 90 586.796 206 c 0xf8
 587.11 212 587.478 219 588.844 226 c 0
 620.793 454 727.493 620 728.908 647 c 0
 729.013 649 729.117 651 727.117 651 c 0
 726.117 651 723.013 649 720.96 648 c 0
 480.095 517 317.289 120 265.306 44 c 0
 247.996 19 230 0 192 0 c 0
 97 0 101.604 126 106.687 223 c 0
 135.459 772 202.117 1357 431.407 1706 c 0
 503.173 1816 605.623 1920 765.623 1920 c 0
EndSplineSet
EndChar

StartChar: o.fina
Encoding: 237 -1 237
Width: 933
Flags: W
HStem: 0 192<350.639 529.427> 439.116 173.372<1021.14 1218.59> 768 192.479<438.248 715.48>
LayerCount: 2
Back
SplineSet
291 396 m 4
 291 287 327 192 436 192 c 4
 554 192 611 425 611 551 c 4
 611 650 590 768 494 768 c 4
 359 768 291 538 291 396 c 4
67 437 m 4
 67 739 243 960 545 960 c 4
 832 960 1001 769 1130 606 c 5
 1156.21 679.334 1192.38 733.522 1210.76 726.956 c 4
 1229.13 720.391 1222.78 655.545 1196.57 582.211 c 4
 1170.37 508.877 1134.19 454.688 1115.81 461.255 c 4
 1113.96 461.918 1112.36 463.201 1111 465 c 5
 1025 580 873 680 753 760 c 5
 745 749 l 5
 778 683 803 595 803 503 c 4
 803 246 651 0 397 0 c 4
 166 0 67 206 67 437 c 4
EndSplineSet
Fore
SplineSet
311.394 396 m 0
 305.681 287 336.702 192 445.702 192 c 0
 563.702 192 632.913 425 639.517 551 c 0
 644.705 650 629.889 768 533.889 768 c 0
 398.89 768 318.835 538 311.394 396 c 0
89.542 437 m 0
 105.436 740.269 299.498 960.479 614.953 960.479 c 0
 816.008 960.479 1010.04 815.881 1101.92 616 c 0
 1103.13 613.593 1106.35 612.488 1111.25 612.488 c 0
 1139.16 612.488 1254.86 675.379 1296.93 696.956 c 0
 1298.38 697.643 1299.91 697.977 1301.47 697.977 c 0
 1315.73 697.977 1333.12 670.219 1331 629.656 c 0
 1323.97 495.625 1169.31 439.116 1081.41 439.116 c 4
 960.863 439.116 865.776 530 798.802 690 c 5
 823.858 645.146 831.461 549.941 829.001 503 c 0
 815.532 246 650.64 0 396.64 0 c 0
 165.64 0 77.4355 206 89.542 437 c 0
EndSplineSet
EndChar

